<svg width="24" height="24" viewBox="0 0 24 24" fill="none" xmlns="http://www.w3.org/2000/svg">
<g clip-path="url(#clip0_2441_8401)">
<path d="M12.1256 0.370117C5.63285 0.370117 0.370605 5.6326 0.370605 12.1252C0.370485 18.6165 5.63273 23.8796 12.1256 23.8796C18.617 23.8796 23.8799 18.6165 23.8799 12.1252C23.8799 5.6326 18.6111 0.370117 12.1256 0.370117ZM15.8332 13.0205L11.1536 17.7012C10.8803 17.9749 10.5146 18.0977 10.1584 18.0697C9.58646 18.0247 9.3622 17.379 9.3622 16.8054C9.3622 16.2322 9.58944 15.6824 9.99412 15.2765L11.2491 14.0178L12.1925 13.0715C12.714 12.5484 12.714 11.702 12.1925 11.1789L11.2491 10.2326L9.99393 8.97358C9.58938 8.56779 9.3622 8.01815 9.3622 7.44515C9.3622 6.87099 9.58708 6.22499 10.1595 6.18055C10.5153 6.15292 10.8805 6.27555 11.1536 6.54844L15.8332 11.229C16.3299 11.7248 16.3299 12.5298 15.8332 13.0205Z" fill="url(#paint0_linear_2441_8401)"/>
</g>
<defs>
<linearGradient id="paint0_linear_2441_8401" x1="5.07247" y1="3.66144" x2="21.294" y2="21.5285" gradientUnits="userSpaceOnUse">
<stop stop-color="#59BEF9"/>
<stop offset="1" stop-color="#4571F6"/>
</linearGradient>
<clipPath id="clip0_2441_8401">
<rect width="24" height="24" fill="white"/>
</clipPath>
</defs>
</svg>
