<svg width="50" height="50" viewBox="0 0 50 50" fill="none" xmlns="http://www.w3.org/2000/svg">
<g clip-path="url(#clip0_2379_10639)">
<rect width="50" height="50" rx="25" fill="url(#paint0_linear_2379_10639)"/>
<g clip-path="url(#clip1_2379_10639)">
<path d="M32.6148 15.3203C34.4511 15.3203 35.8302 16.8272 35.8334 18.7285V29.7308C35.8334 31.6342 34.5269 32.8356 32.63 32.8356L28.4711 32.8346L26.3835 35.3262C26.0591 35.6575 25.6259 35.8603 25.1637 35.8971L24.9979 35.9036C24.4443 35.9036 23.9308 35.6621 23.6037 35.1616L23.673 35.2569L21.5421 32.8356H16.9466C15.1331 32.8356 14.235 31.7653 14.17 29.9431L14.1667 29.7319V18.7285C14.1667 16.8283 15.5458 15.3203 17.3832 15.3203H32.6148ZM32.6148 17.487H17.3832C16.7873 17.487 16.3334 17.9842 16.3334 18.7285V29.8825C16.3442 30.5975 16.4309 30.6701 16.9466 30.6701H22.5225L22.8464 31.0384L25.0521 33.5441L27.1364 31.0568L27.4614 30.669H32.6289C33.3688 30.669 33.6667 30.3949 33.6667 29.7308V18.7306C33.6657 17.9842 33.2107 17.487 32.6148 17.487Z" fill="white"/>
<path d="M26.0834 19.6538V22.9027L29.3334 22.9038V25.0705L26.0834 25.0694V28.3205H23.9167V25.0694L20.6667 25.0705V22.9038L23.9167 22.9027V19.6538H26.0834Z" fill="white"/>
</g>
</g>
<defs>
<linearGradient id="paint0_linear_2379_10639" x1="10" y1="7" x2="42" y2="45" gradientUnits="userSpaceOnUse">
<stop stop-color="#FD817E"/>
<stop offset="1" stop-color="#C22723"/>
</linearGradient>
<clipPath id="clip0_2379_10639">
<rect width="50" height="50" fill="white"/>
</clipPath>
<clipPath id="clip1_2379_10639">
<rect width="26" height="26" fill="white" transform="translate(12 12.0703)"/>
</clipPath>
</defs>
</svg>
