<svg width="128" height="70" viewBox="0 0 128 70" fill="none" xmlns="http://www.w3.org/2000/svg">
<g opacity="0.3" clip-path="url(#clip0_2436_13433)">
<path d="M92.979 52.6729L90.945 51.5125C90.7955 51.4247 90.811 51.2725 90.9878 51.1712L92.9201 50.0666C93.0969 49.966 93.368 49.9549 93.5168 50.0427L95.5515 51.2025C95.7054 51.2903 95.6855 51.4431 95.5087 51.5444L93.577 52.649C93.4002 52.7466 93.1328 52.7601 92.979 52.6729Z" fill="#C9CFE5" fill-opacity="0.3"/>
<path d="M95.6552 50.4027C95.6558 50.3965 95.6558 50.3904 95.6552 50.3843V29.335H90.842V50.4051C90.8464 50.4696 90.8861 50.526 90.945 50.553L92.9791 51.7129C93.1329 51.8 93.4003 51.7871 93.5764 51.6883L95.5082 50.5837C95.582 50.5499 95.6359 50.4843 95.6539 50.4057L95.6552 50.4027Z" fill="url(#paint0_linear_2436_13433)"/>
<path d="M92.9793 30.655L90.9452 29.4946C90.7957 29.4068 90.8112 29.254 90.988 29.1534L92.9203 28.0487C93.0971 27.9475 93.3682 27.9364 93.5171 28.0236C93.617 28.0819 94.2956 28.4691 95.5518 29.1847C95.7056 29.2718 95.6857 29.4246 95.509 29.5252L93.5772 30.6299C93.4005 30.7317 93.1331 30.7416 92.9793 30.655Z" fill="#FAFBFD"/>
<path d="M20.141 22.7762L18.1032 21.6157C17.95 21.5285 17.9698 21.3745 18.1466 21.2739L20.0851 20.1692C20.2625 20.068 20.5342 20.0569 20.6837 20.1447L22.7209 21.3058C22.8747 21.3935 22.8555 21.5463 22.6781 21.6476L20.7402 22.7522C20.5622 22.8541 20.2948 22.8651 20.141 22.7762Z" fill="#A0B3F8" fill-opacity="0.3"/>
<path d="M22.8209 20.5053C22.8215 20.4991 22.8215 20.493 22.8209 20.4869V13.3682H18.0034V20.5096C18.0078 20.5734 18.0475 20.6299 18.1064 20.6569L20.1442 21.818C20.298 21.9057 20.5654 21.8916 20.7422 21.7934L22.677 20.6888C22.7514 20.6556 22.8054 20.59 22.8228 20.5108L22.8209 20.5053Z" fill="url(#paint1_linear_2436_13433)"/>
<path d="M20.141 14.6902L18.1032 13.5291C17.95 13.442 17.9698 13.2892 18.1466 13.1885L20.0814 12.0839C20.2588 11.9826 20.5305 11.9716 20.68 12.0587L22.7178 13.2216C22.8716 13.3094 22.8524 13.4622 22.675 13.5635L20.7402 14.6681C20.5622 14.7663 20.2948 14.7773 20.141 14.6902Z" fill="url(#paint2_linear_2436_13433)"/>
<path d="M19.509 54.541L7.82887 59.6677L6.20361 64.9386C5.52124 63.9567 3.90839 60.9092 3.68321 60.4133L0.0853016 52.3919C-0.021395 52.1538 -0.0282185 51.8837 0.0660715 51.6407C0.160362 51.3971 0.348942 51.2013 0.589629 51.0958L15.1053 44.7245C15.346 44.619 15.619 44.6122 15.8646 44.7055C16.1109 44.7988 16.3088 44.9853 16.4155 45.2234L20.0134 53.2449C20.1201 53.483 20.1269 53.753 20.0326 53.996C19.9383 54.2391 19.7497 54.4354 19.509 54.541Z" fill="#F6A48D"/>
<path d="M8.37458 54.0766C8.37458 54.7204 7.84668 55.2426 7.19596 55.2426C6.54523 55.2426 6.01733 54.7204 6.01733 54.0766C6.01733 53.4329 6.54523 52.9106 7.19596 52.9106C7.84668 52.9106 8.37458 53.4329 8.37458 54.0766Z" fill="url(#paint3_linear_2436_13433)"/>
<path d="M13.1512 51.9287C13.1512 52.5724 12.6233 53.0947 11.9726 53.0947C11.3218 53.0947 10.7939 52.5724 10.7939 51.9287C10.7939 51.2849 11.3218 50.7627 11.9726 50.7627C12.6233 50.7627 13.1512 51.2849 13.1512 51.9287Z" fill="url(#paint4_linear_2436_13433)"/>
<path d="M68.2457 64.9671L68.2256 64.9395L68.2457 64.9671Z" fill="#3A3A77"/>
<path d="M83.848 64.8633L83.7432 64.9394L83.848 64.8633Z" fill="#3A3A77"/>
<path d="M94.2614 64.9384L85.2394 52.7427C84.8349 52.1959 84.9552 51.4276 85.508 51.0275L111.342 32.3267C111.607 32.1334 111.94 32.053 112.266 32.1027C112.592 32.1525 112.884 32.3292 113.078 32.5925L126.78 51.114C127.184 51.6608 127.064 52.4291 126.511 52.8292L109.824 64.9243" fill="#F6A38D"/>
<path d="M113.428 44.4323L117.972 50.5734C118.163 50.833 118.106 51.1975 117.844 51.3878C117.581 51.578 117.212 51.5216 117.02 51.262L112.477 45.1209C112.285 44.8613 112.342 44.4968 112.605 44.3065C112.868 44.1163 113.236 44.1727 113.428 44.4323Z" fill="url(#paint5_linear_2436_13433)"/>
<path d="M108.093 47.9309L112.637 54.0714C112.828 54.3316 112.771 54.6962 112.509 54.8864C112.247 55.0766 111.877 55.0202 111.685 54.76L107.142 48.6195C106.95 48.3599 107.007 47.9948 107.27 47.8045C107.533 47.6143 107.901 47.6707 108.093 47.9309Z" fill="url(#paint6_linear_2436_13433)"/>
<path d="M102.945 51.6136L107.488 57.7541C107.68 58.0136 107.623 58.3788 107.36 58.569C107.098 58.7593 106.729 58.7028 106.537 58.4426L101.994 52.3021C101.801 52.0419 101.858 51.6774 102.122 51.4871C102.384 51.2969 102.752 51.3534 102.945 51.6136Z" fill="url(#paint7_linear_2436_13433)"/>
<path d="M109.946 39.6856C109.835 40.913 109.711 42.1403 109.574 43.3677C109.54 43.6647 109.854 43.92 110.132 43.92C110.461 43.92 110.657 43.6653 110.69 43.3677C110.827 42.1403 110.951 40.913 111.062 39.6856C111.089 39.388 110.787 39.1333 110.504 39.1333C110.18 39.1333 109.972 39.3874 109.946 39.6856Z" fill="#FE9F39"/>
<path d="M108.309 41.7527C109.497 42.043 110.707 42.2523 111.907 42.4891C112.608 42.6278 112.908 41.5631 112.203 41.4238C111.003 41.1869 109.794 40.9783 108.605 40.6874C107.908 40.5168 107.613 41.5821 108.309 41.7527Z" fill="#FE9F39"/>
<path d="M104.687 43.0299C104.527 43.3521 104.394 43.6872 104.247 44.0155C104.172 44.1831 104.096 44.3512 104.01 44.5132C103.976 44.5746 103.941 44.6359 103.904 44.6973C103.867 44.7587 103.872 44.7452 103.921 44.6789C103.846 44.7501 103.902 44.7194 104.09 44.5869C103.442 44.7231 103.642 45.6301 104.238 45.6718C105.57 45.7694 106.886 45.9965 108.208 46.1628C108.508 46.2002 108.767 45.8817 108.767 45.6105C108.767 45.2809 108.509 45.0956 108.208 45.0582C108.185 45.0582 108.056 45.0385 108.146 45.0508L107.96 45.025C107.816 45.0054 107.671 44.9845 107.526 44.9637C107.179 44.9146 106.833 44.8667 106.486 44.8194C105.738 44.7188 104.988 44.6218 104.235 44.5666L104.383 45.6516C104.775 45.5687 104.968 45.0913 105.117 44.7734C105.303 44.3807 105.456 43.9756 105.648 43.5872C105.964 42.9514 105.001 42.3911 104.684 43.0299H104.687Z" fill="#FE9F39"/>
<path d="M34.4387 9.646H75.0702C76.2011 9.646 77.1173 10.5524 77.1173 11.6711V58.6178C77.1173 59.7366 76.2011 60.643 75.0702 60.643H34.4387C33.3078 60.643 32.3916 59.7366 32.3916 58.6178V11.6711C32.3916 10.5524 33.3078 9.646 34.4387 9.646Z" fill="url(#paint8_linear_2436_13433)" stroke="#FA8173" stroke-width="18"/>
<path d="M53.6688 54.9356H37.8504C36.9596 54.9356 36.2375 54.2213 36.2375 53.3401V16.0282C36.2375 15.1469 36.9596 14.4326 37.8504 14.4326H71.9065C72.7972 14.4326 73.5193 15.1469 73.5193 16.0282V40.0845C72.038 46.063 66.0754 54.1992 53.6688 54.9356Z" fill="white"/>
<path d="M47.5896 5.53418H61.8571C62.6108 5.53418 63.2219 6.13866 63.2219 6.88428V8.29575C63.2219 9.04137 62.6108 9.64585 61.8571 9.64585H47.5896C46.8359 9.64585 46.2249 9.04137 46.2249 8.29575V6.88428C46.2249 6.13866 46.8359 5.53418 47.5896 5.53418Z" fill="#881107"/>
<path d="M45.6047 22.4104C45.6047 23.3254 44.8547 24.0673 43.9298 24.0673C43.0049 24.0673 42.2549 23.3254 42.2549 22.4104C42.2549 21.4954 43.0049 20.7534 43.9298 20.7534C44.8547 20.7534 45.6047 21.4954 45.6047 22.4104Z" fill="#FE9F39"/>
<path d="M48.4892 21.3057H65.8584C66.5265 21.3057 67.068 21.8414 67.068 22.5023C67.068 23.1633 66.5265 23.699 65.8584 23.699H48.4892C47.8211 23.699 47.2795 23.1633 47.2795 22.5023C47.2795 21.8414 47.8211 21.3057 48.4892 21.3057Z" fill="#F7A900"/>
<path d="M45.6047 29.9587C45.6047 30.8737 44.8547 31.6156 43.9298 31.6156C43.0049 31.6156 42.2549 30.8737 42.2549 29.9587C42.2549 29.0437 43.0049 28.3018 43.9298 28.3018C44.8547 28.3018 45.6047 29.0437 45.6047 29.9587Z" fill="#FE9F39"/>
<path d="M48.4892 28.854H61.7022C62.3703 28.854 62.9118 29.3897 62.9118 30.0507C62.9118 30.7116 62.3703 31.2474 61.7022 31.2474H48.4892C47.8211 31.2474 47.2795 30.7116 47.2795 30.0507C47.2795 29.3897 47.8211 28.854 48.4892 28.854Z" fill="url(#paint9_linear_2436_13433)"/>
<path d="M45.6047 37.323C45.6047 38.238 44.8547 38.9799 43.9298 38.9799C43.0049 38.9799 42.2549 38.238 42.2549 37.323C42.2549 36.408 43.0049 35.666 43.9298 35.666C44.8547 35.666 45.6047 36.408 45.6047 37.323Z" fill="#FE9F39"/>
<path d="M48.4892 36.2183H65.8584C66.5265 36.2183 67.068 36.754 67.068 37.4149C67.068 38.0759 66.5265 38.6116 65.8584 38.6116H48.4892C47.8211 38.6116 47.2795 38.0759 47.2795 37.4149C47.2795 36.754 47.8211 36.2183 48.4892 36.2183Z" fill="url(#paint10_linear_2436_13433)"/>
<path d="M45.6047 44.6872C45.6047 45.6022 44.8547 46.3442 43.9298 46.3442C43.0049 46.3442 42.2549 45.6022 42.2549 44.6872C42.2549 43.7722 43.0049 43.0303 43.9298 43.0303C44.8547 43.0303 45.6047 43.7722 45.6047 44.6872Z" fill="#FE9F39"/>
<path d="M48.4892 43.5825H61.7022C62.3703 43.5825 62.9118 44.1183 62.9118 44.7792C62.9118 45.4401 62.3703 45.9759 61.7022 45.9759H48.4892C47.8211 45.9759 47.2795 45.4401 47.2795 44.7792C47.2795 44.1183 47.8211 43.5825 48.4892 43.5825Z" fill="url(#paint11_linear_2436_13433)"/>
<path d="M52.6143 54.9356C52.6143 54.9356 59.4999 51.8058 59.2518 45.4849C66.4476 46.2213 71.2862 44.2575 73.5193 40.0845C73.3332 41.7414 70.976 47.0191 67.13 50.0875C62.7976 53.5437 60.7406 54.9969 52.6143 54.9356Z" fill="#D7D7F4"/>
<path d="M93.4845 8.18731L91.1272 5.79395L87.4673 11.4398L93.4845 8.18731Z" fill="#D3DCF4"/>
<path d="M97.0205 11.8081L89.9487 12.8514L96.7103 15.3061L97.0205 11.8081Z" fill="#D3DCF4"/>
</g>
<defs>
<linearGradient id="paint0_linear_2436_13433" x1="15442.9" y1="-22861.7" x2="15455.3" y2="-22861.7" gradientUnits="userSpaceOnUse">
<stop stop-color="#EAEFF5"/>
<stop offset="0.99" stop-color="#DEE1F0"/>
</linearGradient>
<linearGradient id="paint1_linear_2436_13433" x1="15208.4" y1="-8914.67" x2="15220.7" y2="-8914.67" gradientUnits="userSpaceOnUse">
<stop stop-color="#FD6E66"/>
<stop offset="1" stop-color="#F7A38D"/>
</linearGradient>
<linearGradient id="paint2_linear_2436_13433" x1="1729.47" y1="1358.61" x2="2104.21" y2="1358.61" gradientUnits="userSpaceOnUse">
<stop stop-color="#EBF4FF"/>
<stop offset="1" stop-color="#EBEBFF"/>
</linearGradient>
<linearGradient id="paint3_linear_2436_13433" x1="819.268" y1="2419.88" x2="908.844" y2="2419.88" gradientUnits="userSpaceOnUse">
<stop stop-color="#EBF4FF"/>
<stop offset="1" stop-color="#EBE1FF"/>
</linearGradient>
<linearGradient id="paint4_linear_2436_13433" x1="1005.55" y1="2336.12" x2="1095.13" y2="2336.12" gradientUnits="userSpaceOnUse">
<stop stop-color="#EBF4FF"/>
<stop offset="1" stop-color="#EBE1FF"/>
</linearGradient>
<linearGradient id="paint5_linear_2436_13433" x1="7815.09" y1="6741.57" x2="8358.52" y2="6741.57" gradientUnits="userSpaceOnUse">
<stop stop-color="#EBF4FF"/>
<stop offset="1" stop-color="#EBE1FF"/>
</linearGradient>
<linearGradient id="paint6_linear_2436_13433" x1="7327.03" y1="7179.46" x2="7870.46" y2="7179.46" gradientUnits="userSpaceOnUse">
<stop stop-color="#EBF4FF"/>
<stop offset="1" stop-color="#EBE1FF"/>
</linearGradient>
<linearGradient id="paint7_linear_2436_13433" x1="6857.25" y1="7638.38" x2="7400.72" y2="7638.38" gradientUnits="userSpaceOnUse">
<stop stop-color="#EBF4FF"/>
<stop offset="1" stop-color="#EBE1FF"/>
</linearGradient>
<linearGradient id="paint8_linear_2436_13433" x1="21456" y1="36039" x2="53703.2" y2="36039" gradientUnits="userSpaceOnUse">
<stop stop-color="#EBF4FF"/>
<stop offset="1" stop-color="#EBE1FF"/>
</linearGradient>
<linearGradient id="paint9_linear_2436_13433" x1="11286.9" y1="1521.11" x2="15226.2" y2="1521.11" gradientUnits="userSpaceOnUse">
<stop stop-color="#EBF4FF"/>
<stop offset="1" stop-color="#EBE1FF"/>
</linearGradient>
<linearGradient id="paint10_linear_2436_13433" x1="14275.2" y1="1815.68" x2="20587.7" y2="1815.68" gradientUnits="userSpaceOnUse">
<stop stop-color="#EBF4FF"/>
<stop offset="1" stop-color="#EBE1FF"/>
</linearGradient>
<linearGradient id="paint11_linear_2436_13433" x1="11286.9" y1="2110.25" x2="15226.2" y2="2110.25" gradientUnits="userSpaceOnUse">
<stop stop-color="#EBF4FF"/>
<stop offset="1" stop-color="#EBE1FF"/>
</linearGradient>
<clipPath id="clip0_2436_13433">
<rect width="128" height="70" fill="white"/>
</clipPath>
</defs>
</svg>
