<svg width="133" height="66" viewBox="0 0 133 66" fill="none" xmlns="http://www.w3.org/2000/svg">
<g opacity="0.4">
<path fill-rule="evenodd" clip-rule="evenodd" d="M7.9769 23.4922V23.4461C7.70322 23.4769 7.42544 23.4922 7.14355 23.4922C3.00346 23.4922 -0.353516 20.1353 -0.353516 15.9952C-0.353516 11.854 3.00346 8.49707 7.14355 8.49707C7.63147 8.49707 8.10811 8.54422 8.5704 8.63237C10.0751 4.19399 14.2757 1 19.2225 1C25.3143 1 30.2754 5.84327 30.463 11.8899C30.7367 11.8499 31.0175 11.8294 31.3025 11.8294C34.5221 11.8294 37.1329 14.4402 37.1329 17.6608C37.1329 20.8815 34.5221 23.4922 31.3025 23.4922C31.0196 23.4922 30.7408 23.4717 30.4691 23.4328V23.4922H7.9769Z" fill="url(#paint0_linear_2436_14053)"/>
<path d="M40.779 36.2261C40.9963 36.2989 41.1141 36.5357 41.0414 36.753C39.2435 42.1354 37.0571 45.1357 34.4976 45.6307L34.3746 45.6512L34.3428 45.6933C34.1193 45.9813 33.8744 46.2755 33.6068 46.5769L33.4438 46.7583C31.1806 49.245 28.6549 50.2588 25.9037 49.7626C25.6772 49.7227 25.5265 49.5054 25.5675 49.2788C25.6085 49.0523 25.8248 48.9026 26.0513 48.9436C28.5022 49.3854 30.748 48.4834 32.8278 46.1976L32.9928 46.0141L33.2839 45.6789L33.1866 45.6687C32.6833 45.6041 32.1667 45.4514 31.6377 45.2084L31.4604 45.1244L31.3866 45.0772C30.1556 44.1035 29.9608 42.8806 30.7367 41.8556C31.3969 40.9843 32.6689 40.4072 33.9225 40.4072C36.2053 40.4072 36.6225 42.0185 35.2469 44.373L35.1567 44.5217L35.2387 44.4827C37.055 43.5879 38.6859 41.0581 40.1404 36.8186L40.2511 36.4895C40.3249 36.2712 40.5606 36.1533 40.779 36.2261ZM33.9584 44.8415L33.9789 44.8148C35.6907 42.5229 35.5359 41.2405 33.9225 41.2405C32.9201 41.2405 31.8961 41.7049 31.402 42.3589C30.9305 42.98 31.0094 43.6535 31.7761 44.3187L31.8694 44.3966L31.9852 44.452C32.5869 44.7256 33.1712 44.8599 33.7391 44.8517L33.9584 44.8415Z" fill="#D0F4E9"/>
<path fill-rule="evenodd" clip-rule="evenodd" d="M100.244 33.5089L113.383 31.1041L113.792 37.9575L100.244 33.5089ZM99.4087 31.0129L104.729 24.8125L107.561 27.9122L99.4087 31.0129Z" fill="#D0F4E9"/>
<path fill-rule="evenodd" clip-rule="evenodd" d="M62.6683 12.4139L98.0852 21.9036C98.3035 21.9631 98.4337 22.1875 98.3753 22.4059L86.571 66.4617C86.5116 66.68 86.2871 66.8102 86.0688 66.7507C86.0134 66.7364 85.9622 66.7107 85.9181 66.6749C82.6411 64.0477 80.0272 62.4733 78.0756 61.9495C76.1157 61.4247 73.0335 61.48 68.8288 62.1155C68.4608 62.1709 68.0856 62.0704 67.7945 61.8367C64.5134 59.1963 61.9519 57.63 60.1088 57.1359C58.2669 56.6419 55.1672 56.6911 50.8088 57.2835C50.5853 57.3133 50.3782 57.1564 50.3475 56.932C50.3403 56.8776 50.3444 56.8233 50.3577 56.771L62.1661 12.704C62.2245 12.4856 62.449 12.3554 62.6683 12.4139Z" fill="#DCFDF8"/>
<path opacity="0.34" fill-rule="evenodd" clip-rule="evenodd" d="M110.857 52.6009C110.853 52.6009 110.85 52.5976 110.85 52.5935C110.85 52.5892 110.846 52.5858 110.842 52.5861C110.707 52.596 110.571 52.6009 110.434 52.6009C107.444 52.6009 105.02 50.1767 105.02 47.1867C105.02 44.1957 107.444 41.7715 110.434 41.7715C110.982 41.7715 111.508 41.4779 111.764 40.9928C113.09 38.4833 115.728 36.7734 118.764 36.7734C122.737 36.7734 126.025 39.6997 126.592 43.5142C126.657 43.9526 127.068 44.2705 127.511 44.2705C129.812 44.2705 131.676 46.1361 131.676 48.4362C131.676 50.7364 129.812 52.6009 127.511 52.6009C127.242 52.6009 126.978 52.5753 126.723 52.5267C126.7 52.5223 126.678 52.54 126.678 52.5636C126.678 52.5842 126.662 52.6009 126.641 52.6009H110.857Z" fill="url(#paint1_linear_2436_14053)"/>
<path fill-rule="evenodd" clip-rule="evenodd" d="M53.0074 20.1128H89.6738C89.9003 20.1128 90.0838 20.2963 90.0838 20.5228V66.1325C90.0838 66.3581 89.9003 66.5415 89.6738 66.5415C89.6174 66.5415 89.561 66.5303 89.5087 66.5077C85.6639 64.8174 82.7313 63.9728 80.7099 63.9728C78.6824 63.9728 75.719 64.8246 71.8219 66.5262C71.4805 66.6758 71.092 66.6748 70.7507 66.5241C66.8986 64.8236 64.0183 63.9728 62.1107 63.9728C60.2031 63.9728 57.2213 64.8226 53.1653 66.5221C52.9572 66.6102 52.7163 66.5118 52.6292 66.3027C52.6077 66.2525 52.5974 66.1982 52.5974 66.1438V20.5228C52.5974 20.2963 52.7809 20.1128 53.0074 20.1128Z" fill="#4AC9C5"/>
<path fill-rule="evenodd" clip-rule="evenodd" d="M54.5072 20.1128H91.1735C91.4001 20.1128 91.5835 20.2963 91.5835 20.5228V66.1325C91.5835 66.3581 91.4001 66.5415 91.1735 66.5415C91.1172 66.5415 91.0608 66.5303 91.0085 66.5077C87.1636 64.8174 84.231 63.9728 82.2096 63.9728C80.1811 63.9728 77.2188 64.8246 73.3216 66.5262C72.9803 66.6758 72.5918 66.6748 72.2505 66.5241C68.3984 64.8236 65.5181 63.9728 63.6105 63.9728C61.7029 63.9728 58.7211 64.8226 54.665 66.5221C54.4559 66.6102 54.2161 66.5118 54.1289 66.3027C54.1074 66.2525 54.0972 66.1982 54.0972 66.1438V20.5228C54.0972 20.2963 54.2806 20.1128 54.5072 20.1128Z" fill="url(#paint2_linear_2436_14053)"/>
<path fill-rule="evenodd" clip-rule="evenodd" d="M58.2617 30.1089H68.552V31.7756H58.2617V30.1089Z" fill="white" fill-opacity="0.498455"/>
<path fill-rule="evenodd" clip-rule="evenodd" d="M58.2617 35.9404H68.552V37.6071H58.2617V35.9404Z" fill="white" fill-opacity="0.498455"/>
<path fill-rule="evenodd" clip-rule="evenodd" d="M58.2617 41.7715H68.758V43.4382H58.2617V41.7715Z" fill="white" fill-opacity="0.498455"/>
<path fill-rule="evenodd" clip-rule="evenodd" d="M58.2617 47.77H87.4187V49.4357H58.2617V47.77Z" fill="white" fill-opacity="0.498455"/>
<path fill-rule="evenodd" clip-rule="evenodd" d="M58.2617 53.7676H87.4187V55.4333H58.2617V53.7676Z" fill="white" fill-opacity="0.498455"/>
</g>
<defs>
<linearGradient id="paint0_linear_2436_14053" x1="18.3897" y1="23.4922" x2="18.3897" y2="1" gradientUnits="userSpaceOnUse">
<stop stop-color="#BBF3D8" stop-opacity="0"/>
<stop offset="1" stop-color="#BBF3D8"/>
</linearGradient>
<linearGradient id="paint1_linear_2436_14053" x1="110.351" y1="38.9893" x2="118.575" y2="55.4366" gradientUnits="userSpaceOnUse">
<stop stop-color="#C9F9DA"/>
<stop offset="1" stop-color="#49C9C4"/>
</linearGradient>
<linearGradient id="paint2_linear_2436_14053" x1="61.5944" y1="26.6263" x2="91.7817" y2="55.5095" gradientUnits="userSpaceOnUse">
<stop stop-color="#C9F9DA"/>
<stop offset="1" stop-color="#49C9C4"/>
</linearGradient>
</defs>
</svg>
