<svg width="50" height="50" viewBox="0 0 50 50" fill="none" xmlns="http://www.w3.org/2000/svg">
<g clip-path="url(#clip0_2352_12821)">
<path d="M0 25C0 11.1929 11.1929 0 25 0V0C38.8071 0 50 11.1929 50 25V25C50 38.8071 38.8071 50 25 50V50C11.1929 50 0 38.8071 0 25V25Z" fill="url(#paint0_linear_2352_12821)"/>
<g clip-path="url(#clip1_2352_12821)">
<path d="M35.6661 13C36.402 13 36.999 13.597 36.999 14.3329V35.6661C36.999 36.402 36.402 36.999 35.6661 36.999H35.3861C35.0101 36.999 34.6521 36.842 34.3991 36.564L31.7362 33.6441L29.3523 36.258C29.2274 36.3949 29.0754 36.5041 28.9059 36.5789C28.7364 36.6537 28.5531 36.6923 28.3679 36.6923C28.1826 36.6923 27.9994 36.6537 27.8299 36.5789C27.6604 36.5041 27.5083 36.3949 27.3834 36.258L24.9995 33.6441L22.6156 36.259C22.4907 36.396 22.3386 36.5054 22.169 36.5803C21.9994 36.6552 21.816 36.6939 21.6306 36.6939C21.4453 36.6939 21.2619 36.6552 21.0923 36.5803C20.9227 36.5054 20.7706 36.396 20.6457 36.259L18.2628 33.6451L15.5999 36.565C15.4748 36.7023 15.3223 36.8119 15.1524 36.8868C14.9824 36.9617 14.7987 37.0003 14.6129 37H14.3329C14.1578 37 13.9844 36.9655 13.8226 36.8984C13.6608 36.8314 13.5138 36.7331 13.3901 36.6092C13.2663 36.4854 13.1681 36.3383 13.1012 36.1765C13.0342 36.0146 12.9999 35.8412 13 35.6661V14.3329C13 13.597 13.597 13 14.3329 13H35.6661ZM30.5743 20.6667C30.4617 20.5325 30.3238 20.4217 30.1685 20.3409C30.0131 20.26 29.8433 20.2105 29.6688 20.1953C29.4943 20.18 29.3185 20.1993 29.1515 20.2521C28.9844 20.3048 28.8294 20.39 28.6953 20.5027L24.2125 24.2635L21.7796 21.9936C21.6516 21.8742 21.5013 21.7811 21.3373 21.7198C21.1733 21.6585 20.9988 21.63 20.8239 21.6361C20.6489 21.6422 20.4768 21.6827 20.3175 21.7552C20.1581 21.8278 20.0146 21.9311 19.8952 22.0591C19.7758 22.1872 19.6827 22.3375 19.6214 22.5015C19.56 22.6654 19.5316 22.8399 19.5377 23.0149C19.5438 23.1899 19.5843 23.362 19.6568 23.5213C19.7294 23.6806 19.8327 23.8241 19.9607 23.9435L22.8866 26.6714C23.0216 26.7979 23.1815 26.8947 23.3561 26.9559C23.5307 27.017 23.7161 27.041 23.9005 27.0264C24.1292 27.1289 24.3821 27.1649 24.6302 27.1302C24.8783 27.0955 25.1117 26.9916 25.3035 26.8304L30.4103 22.5446C30.5443 22.4321 30.6549 22.2942 30.7357 22.1389C30.8165 21.9837 30.866 21.814 30.8812 21.6396C30.8964 21.4652 30.8772 21.2896 30.8245 21.1226C30.7718 20.9557 30.6868 20.8008 30.5743 20.6667Z" fill="white"/>
</g>
</g>
<defs>
<linearGradient id="paint0_linear_2352_12821" x1="10" y1="7" x2="42" y2="45" gradientUnits="userSpaceOnUse">
<stop stop-color="#FFBD82"/>
<stop offset="1" stop-color="#DF6C21"/>
</linearGradient>
<clipPath id="clip0_2352_12821">
<rect width="50" height="50" rx="10" fill="white"/>
</clipPath>
<clipPath id="clip1_2352_12821">
<rect width="24" height="24" fill="white" transform="translate(13 13)"/>
</clipPath>
</defs>
</svg>
