<svg width="125" height="70" viewBox="0 0 125 70" fill="none" xmlns="http://www.w3.org/2000/svg">
<g opacity="0.3" clip-path="url(#clip0_2436_13336)">
<path d="M6.07312 59.0508C10.1257 60.8834 14.0368 61.0027 14.8085 59.3203C15.5802 57.6364 12.9213 54.7878 8.86864 52.9569C4.81604 51.1243 0.90493 51.005 0.13324 52.6874C-0.638451 54.3713 2.02051 57.2199 6.07312 59.0508Z" fill="#FCE1E9"/>
<path d="M6.29049 54.9825C9.00375 58.4876 12.3998 60.4166 13.8774 59.2912C15.355 58.1642 14.3529 54.4092 11.6413 50.904C8.9297 47.3989 5.53196 45.4699 4.0544 46.5953C2.57848 47.7223 3.57888 51.4774 6.29049 54.9825Z" fill="#FFBDD1"/>
<path d="M9.83123 52.1761C10.3002 55.9785 11.9785 58.9038 13.5811 58.7095C15.1837 58.5151 16.1035 55.2746 15.6345 51.4722C15.1656 47.6698 13.4873 44.7445 11.8847 44.9388C10.2821 45.1332 9.3623 48.3737 9.83123 52.1761Z" fill="#F9759C"/>
<path d="M107.572 52.1237C104.634 55.0343 104.013 60.555 104.071 62.9527C105.576 60.5027 108.888 56.9567 111.185 55.5423C112.954 54.4545 116.9 49.7799 118.458 46.9297C117.066 48.9469 111.248 48.4846 107.572 52.1237Z" fill="#EF3531"/>
<path d="M112.271 55.0996C108.296 56.2936 105.101 60.7918 104 62.8906C106.496 61.45 111.103 59.8739 113.793 59.686C115.867 59.5407 121.57 57.2752 124.303 55.5112C122.116 56.6284 117.239 53.6084 112.271 55.0996Z" fill="#F5B3AC"/>
<path d="M30.3143 55.9432C30.237 55.8664 29.7253 55.3781 29.5393 54.8423C29.3452 55.0677 28.8038 55.1118 28.5702 55.0351C28.3382 54.9583 28.0733 54.7607 27.945 54.6006C27.6225 55.1118 26.9824 56.033 27.2144 56.1866L28.2806 56.7631C28.7314 56.9869 29.7713 57.472 30.3143 57.6272C30.8573 57.7807 31.6389 57.6909 31.9614 57.6272C31.9943 57.4981 32.0387 57.3054 31.9614 57.0751C31.8643 56.7876 30.4114 56.0396 30.3143 55.9432Z" fill="#2B3A7C"/>
<path d="M23.6009 57.6405C23.4298 57.3579 23.3393 56.1558 23.3146 55.5907L23.1024 55.166H21.8206L21.6774 55.9435V57.4282C21.6774 57.7826 21.5343 58.6303 21.6774 58.7724C21.8206 58.9129 22.3192 59.1954 23.1024 59.1252C23.8856 59.055 23.8148 57.9949 23.6009 57.6405Z" fill="#2B3A7C"/>
<path d="M31.4348 45.3394C31.3196 44.7743 28.7758 38.3356 27.5878 35.5312V34.6133C26.9955 34.8011 25.9573 35.1016 24.8121 35.1784C23.7425 35.2486 21.7105 35.3189 21.2119 35.1784L21.3551 36.0261L21.4258 38.9955L22.0675 47.1067L21.6776 55.1655C21.6776 55.355 21.8059 55.7306 22.3193 55.7306C22.831 55.7306 23.1502 55.5902 23.244 55.5199L25.3106 47.319L26.0428 41.127L28.5142 47.0364L27.8741 54.6706C27.9679 54.7899 28.2723 55.11 28.7281 55.1655C29.1839 55.2227 29.5113 55.19 29.5821 55.025C30.1991 52.3611 31.5483 45.9062 31.4348 45.3394Z" fill="#3C56C6"/>
<path d="M21.8208 26.1842C22.247 26.8196 23.1026 28.7289 23.1026 28.7289C23.1026 28.7289 24.5982 31.0613 25.0968 31.486C25.5953 31.909 29.5821 34.2431 29.5821 34.2431L28.7282 36.0806L23.3872 33.5358C23.3872 33.5358 20.2544 31.3439 19.6834 30.1418C19.1141 28.9413 18.9002 28.0919 19.0434 27.1021C19.1849 26.1123 20.3959 25.2646 20.3959 25.2646C20.3959 25.2646 21.393 25.5472 21.8208 26.1842Z" fill="url(#paint0_linear_2436_13336)"/>
<path d="M24.5307 18.2572C24.6755 17.9714 24.9881 17.3507 24.6689 16.8525C24.2592 16.2123 23.5797 15.9901 22.8178 15.933C22.1317 15.8823 21.6068 16.4279 21.2514 16.7104C20.6805 16.6402 20.2543 17.2756 20.1112 17.7705C19.9697 18.2654 20.1112 19.1849 20.3958 19.6798C20.6245 20.0751 21.3452 21.2821 21.5361 21.5173C21.3222 21.0927 21.2169 20.3952 21.0375 19.6798C20.8944 19.1147 21.4637 18.053 21.75 17.7002C22.1054 17.7705 22.5036 17.6153 23.244 17.5598C23.9861 17.5026 24.3135 18.053 24.5274 18.2654L24.5307 18.2572Z" fill="#3049A0"/>
<path d="M24.7399 24.8297L24.3565 24.0016L24.2035 24.6108L23.5124 23.9248L23.6012 24.9701L24.2035 24.6108L24.7399 24.8297Z" fill="#97ADF9"/>
<path d="M30.5084 35.5861L30.7931 35.0912L30.153 34.8086L29.8667 35.3035L30.5084 35.5861Z" fill="#293253"/>
<path d="M30.1529 36.4328L30.3668 36.0082L29.6544 35.7256L29.4405 36.1503L30.1529 36.4328Z" fill="#293253"/>
<path d="M29.582 35.656C29.582 35.9679 29.8371 36.2211 30.153 36.2211C30.4672 36.2211 30.7223 35.9679 30.7223 35.656C30.7223 35.344 30.4672 35.0908 30.153 35.0908C29.8371 35.0908 29.582 35.344 29.582 35.656Z" fill="#B2C3FF"/>
<path d="M30.4377 36.5752L28.7989 35.7977V34.1709L31.0777 35.2309L30.4377 36.5752Z" fill="#FCD8E3"/>
<path d="M36.5619 31.6266L35.2801 30.9912L34.7092 32.0512L35.8494 32.6866L36.5619 31.6266Z" fill="#FCD8E3"/>
<path d="M31.0778 37.2829L30.3653 36.5757L30.9363 35.2314C31.1255 35.3033 31.5763 35.4307 31.861 35.3735C32.218 35.3033 32.7873 35.3735 33.072 35.5859C33.3566 35.7982 33.2859 36.151 33.072 36.5757C32.9009 36.9154 31.6718 37.1882 31.0778 37.2829Z" fill="#FCD8E3"/>
<path d="M36.4895 31.626L35.7787 32.686C35.8494 32.7334 36.0485 32.8559 36.2772 32.9686C36.5619 33.1107 36.9173 33.323 37.1312 33.3932C37.3451 33.4635 37.559 33.3932 38.1283 32.686C38.5841 32.1209 38.1283 31.8383 37.8436 31.7681C37.8189 31.7207 37.7301 31.626 37.559 31.626H36.4895Z" fill="#FCD8E3"/>
<path d="M31.0068 28.445L27.1615 24.9121C26.5675 24.9121 25.4947 25.3629 25.3812 26.3249C25.2677 27.287 26.1414 28.1396 26.5922 28.445L30.2944 30.7088L35.066 32.334L35.5646 30.9195L31.0068 28.445Z" fill="#B2C3FF"/>
<path d="M24.3136 22.7196L24.5983 23.7796L24.0997 25.1222L21.9623 24.2043V22.2949L24.3136 22.7196Z" fill="#FCD8E3"/>
<path d="M25.3815 21.4474C25.3815 21.7871 24.6213 22.4845 24.2412 22.79C23.6489 22.79 22.3622 22.6773 21.9623 22.2248C21.4638 21.6597 21.0376 19.8206 20.8945 19.0431C20.753 18.2656 21.9623 17.4179 22.604 17.2056C23.2441 16.9933 23.9565 17.4882 24.5275 18.2656C25.0968 19.0431 25.3815 21.0227 25.3815 21.4474Z" fill="#FCD8E3"/>
<path d="M22.8179 22.5774C22.6599 22.3683 24.0684 21.6415 25.0145 21.4765C25.1494 21.452 25.3107 21.5222 25.3107 21.6594C25.3107 21.7297 24.3843 22.9318 24.3843 22.9318L24.455 23.3548C24.3135 23.3793 23.815 23.2846 23.815 23.2846C23.815 23.2846 23.0318 22.8599 22.8179 22.5774Z" fill="#EDD2E4"/>
<path d="M28.1588 28.3742C28.2147 27.7519 27.5171 25.8066 27.1617 24.9115L25.0243 24.134L24.5093 23.4268L24.2033 24.611L23.5122 23.925L21.5953 23.3174C21.62 23.693 20.952 24.5146 20.6097 24.9115C20.1819 25.4048 19.9697 27.4563 19.9697 28.3742C19.9697 29.1092 21.0606 34.478 21.6068 37.0701C21.9622 37.1632 22.9742 37.3657 24.1704 37.4229C25.3666 37.48 26.9001 36.7875 27.5171 36.4331C27.708 34.0059 28.1012 28.9965 28.1588 28.3742Z" fill="#B2C3FF"/>
<path d="M21.5953 23.318L21.9623 23.2412V23.4372L21.5953 23.318Z" fill="#DADADA"/>
<path d="M40.3304 46.0192C42.4296 52.6481 47.59 68.0664 50.2768 68.4212L52.0372 67.9258C53.7047 67.5358 63.3688 54.8536 68.8666 48.3823C66.7216 44.8843 64.0212 37.6544 62.9609 34.7107C62.7358 34.0882 61.6082 33.7933 60.7745 34.141L43.3768 41.3886C40.9732 42.3885 39.7594 44.2146 40.3304 46.0192Z" fill="#EF3531"/>
<path d="M87.2149 37.0251C87.6037 37.644 80.4249 56.3227 78.7713 58.4785C76.648 59.5852 60.0006 66.3815 56.3753 67.6476C51.8449 69.2281 51.2189 68.8637 50.1692 68.4175C52.437 68.4113 58.3868 54.0756 60.5967 48.5546C61.1473 47.1756 62.4149 45.9689 64.2189 45.139C69.7952 42.5771 81.961 37.0268 83.9006 36.5067C86.4269 35.828 86.7252 36.2502 87.2149 37.0251Z" fill="#F5E7E7"/>
<path d="M55.1789 68.261C57.3306 67.4404 68.7371 62.8331 74.7942 60.244C74.7942 60.244 68.7063 59.9973 66.2263 57.4651C63.7437 54.933 61.1169 47.4538 62.9833 45.8697C61.3079 46.9212 61.1871 46.997 60.3353 49.2736C59.4835 51.5502 56.6932 57.6938 54.6323 62.1673C53.5134 64.5937 50.93 68.2268 50.2916 68.4503C51.5976 69.1452 53.3966 68.9392 55.1789 68.261Z" fill="#EF3531" fill-opacity="0.2"/>
<path d="M79.0745 37.6343C78.9582 39.3811 78.2266 43.2382 77.8107 45.9887C77.7649 46.2807 77.5071 46.54 77.1097 46.6871L71.5528 48.7428C71.0477 48.9299 70.4234 48.6684 70.4852 48.2981C71.0164 45.1908 71.7181 41.2436 71.8435 39.3238C72.0094 36.8228 73.0295 34.6031 75.3628 34.0812C77.6961 33.5594 79.2467 34.9815 79.0745 37.6343Z" fill="#BAC6F4"/>
<path d="M73.5425 37.2827C73.4638 37.8472 73.6153 38.4022 73.9621 38.8248C74.309 39.249 74.8233 39.5063 75.3932 39.5419C75.963 39.5775 76.5424 39.3878 77.0005 39.0142C77.4586 38.639 77.762 38.1122 77.8406 37.5493C77.9193 36.9848 77.7678 36.4298 77.421 36.0056C77.0741 35.5831 76.5598 35.3241 75.9899 35.2885C75.4201 35.2545 74.8407 35.4442 74.3826 35.8178C73.9245 36.1914 73.6212 36.7182 73.5425 37.2827Z" fill="white"/>
<path d="M71.0199 2.24545C73.7337 4.31721 79.1244 10.1853 78.9794 17.0836C78.7999 25.7064 74.1175 29.9808 70.7704 33.2059C67.4259 36.431 67.2824 40.5999 68.258 42.9419" stroke="#F9B2C8" stroke-width="2.78633" stroke-linecap="round" stroke-dasharray="9.29 13.93"/>
<path d="M58.1548 53.6709C45.2127 48.3153 43.9726 35.9601 46.5636 30.1139C49.8967 22.5961 59.3673 20.5915 58.7555 14.022C58.4848 11.1287 54.2679 7.7659 54.2679 7.7659" stroke="#F9B2C8" stroke-width="2.78633" stroke-linecap="round" stroke-dasharray="9.29 13.93"/>
<path d="M59.8576 49.5728C53.2409 42.5939 55.5683 38.0457 60.2167 34.506C68.2325 28.3997 82.9695 34.6894 91.3541 29.125" stroke="#F9B2C8" stroke-width="2.78633" stroke-linecap="round" stroke-dasharray="9.29 13.93"/>
<path d="M56.8442 4.0391L54.1954 3.09816L49.4902 10.2014L52.3611 10.8599C53.36 10.6328 55.5349 9.78297 56.6981 8.20795C57.8613 6.63458 57.2813 4.67964 56.8442 4.0391Z" fill="url(#paint1_linear_2436_13336)"/>
<path d="M48.5013 5.69797C47.1841 7.66702 47.7097 9.70645 49.6765 10.2515C51.6432 10.7966 54.3063 9.64363 55.6261 7.6746C56.9459 5.70557 56.4203 3.66777 54.4509 3.12105C52.4841 2.57599 49.821 3.73057 48.5013 5.69797Z" fill="#F9AEC5"/>
<path d="M100.121 26.4728C100.001 25.5735 99.9958 25.856 99.9958 25.856L89.1382 25.1593C89.1382 25.1593 88.8066 27.2947 89.5726 28.3594C90.3387 29.424 92.7821 30.7928 95.7423 30.521C99.836 30.1457 100.242 27.3722 100.121 26.4728Z" fill="url(#paint2_linear_2436_13336)"/>
<path d="M89.1277 26.1723C89.5166 28.356 92.2722 30.0017 95.2852 29.8447C98.2982 29.6893 100.428 27.7938 100.041 25.6085C99.6551 23.4248 96.8995 21.7806 93.8865 21.936C90.871 22.0914 88.7413 23.9886 89.1277 26.1723Z" fill="#F9AEC5"/>
<path d="M60.8811 40.8479L60.8872 40.0917L52.4182 39.9532L53.1766 41.3363C53.7701 41.9209 54.9637 42.597 57.2731 42.5061C59.5851 42.4153 60.6205 41.4665 60.8811 40.8479Z" fill="url(#paint3_linear_2436_13336)"/>
<path d="M52.4874 39.9326C52.7897 41.1307 54.9249 42.0365 57.2546 41.9572C59.5844 41.878 61.2264 40.8426 60.9241 39.6445C60.6219 38.4464 58.4867 37.5407 56.157 37.6199C53.8272 37.7008 52.1851 38.7362 52.4874 39.9326Z" fill="#F9AEC5"/>
<path d="M56.9285 23.7441L55.6429 22.4319L44.0823 27.4301L45.7639 28.7814C46.9795 28.9529 50.1557 28.851 52.9404 27.5178C55.3941 26.3419 56.9311 24.6964 56.9285 23.7441Z" fill="url(#paint4_linear_2436_13336)"/>
<path d="M47.8628 23.0527C46.3337 23.7166 45.0818 24.5543 44.3823 25.38C43.6828 26.2074 43.595 26.9548 44.1354 27.4606C44.6759 27.9664 45.8016 28.1878 47.265 28.0755C48.7282 27.9648 50.4089 27.5291 51.938 26.8652C53.4672 26.2013 54.719 25.3637 55.4185 24.5379C56.118 23.7105 56.2059 22.9631 55.6654 22.4573C55.1249 21.9515 53.9992 21.7301 52.5359 21.8425C51.0726 21.9532 49.3893 22.3888 47.8628 23.0527Z" fill="#F9AEC5"/>
<path d="M83.3073 13.3562L84.5816 12.2623L70.6177 7.11568L69.6015 8.54324C70.1077 9.1778 72.2129 10.6338 75.3519 11.6473C78.6236 12.7027 81.9832 13.6428 83.3073 13.3562Z" fill="url(#paint5_linear_2436_13336)"/>
<path d="M76.8434 10.5733C78.6941 11.2432 80.551 11.7874 82.011 12.0899C83.4709 12.3907 84.409 12.4244 84.6231 12.1811C84.8373 11.9379 84.307 11.4387 83.1489 10.794C81.9934 10.1476 80.3043 9.40879 78.4535 8.74052C76.6053 8.07064 74.7459 7.52481 73.286 7.22394C71.8285 6.92145 70.888 6.88937 70.6738 7.13102C70.4622 7.37433 70.99 7.87349 72.148 8.51985C73.3061 9.16456 74.9952 9.9034 76.8434 10.5733Z" fill="#F9AEC5"/>
</g>
<defs>
<linearGradient id="paint0_linear_2436_13336" x1="-5503.86" y1="3176.4" x2="-4994.76" y2="3877.42" gradientUnits="userSpaceOnUse">
<stop stop-color="#97ACF8"/>
<stop offset="1" stop-color="#B2C3FF"/>
</linearGradient>
<linearGradient id="paint1_linear_2436_13336" x1="-3086.03" y1="850.046" x2="-3242.6" y2="1203.37" gradientUnits="userSpaceOnUse">
<stop stop-color="#F9AEC5"/>
<stop offset="0.508287" stop-color="#FFDAE6"/>
<stop offset="1" stop-color="#F9AEC5"/>
</linearGradient>
<linearGradient id="paint2_linear_2436_13336" x1="-2383.74" y1="1404.82" x2="-2674.69" y2="1639.52" gradientUnits="userSpaceOnUse">
<stop stop-color="#F9AEC5"/>
<stop offset="0.508287" stop-color="#FFDAE6"/>
<stop offset="1" stop-color="#F9AEC5"/>
</linearGradient>
<linearGradient id="paint3_linear_2436_13336" x1="-3124.42" y1="881.874" x2="-3188.69" y2="1000.06" gradientUnits="userSpaceOnUse">
<stop stop-color="#F9AEC5"/>
<stop offset="0.508287" stop-color="#FFDDE7"/>
<stop offset="1" stop-color="#F9AEC5"/>
</linearGradient>
<linearGradient id="paint4_linear_2436_13336" x1="-5027.02" y1="1470.57" x2="-5314.18" y2="1882.89" gradientUnits="userSpaceOnUse">
<stop stop-color="#F9AEC5"/>
<stop offset="0.508287" stop-color="#FFDCE7"/>
<stop offset="1" stop-color="#F9AEC5"/>
</linearGradient>
<linearGradient id="paint5_linear_2436_13336" x1="-4094.95" y1="981.897" x2="-4468.72" y2="465.717" gradientUnits="userSpaceOnUse">
<stop stop-color="#F9AEC5"/>
<stop offset="0.508287" stop-color="#FFDCE7"/>
<stop offset="1" stop-color="#F9AEC5"/>
</linearGradient>
<clipPath id="clip0_2436_13336">
<rect width="125" height="69.2647" fill="white" transform="matrix(-1 0 0 1 125 0)"/>
</clipPath>
</defs>
</svg>
