<svg width="51" height="51" viewBox="0 0 51 51" fill="none" xmlns="http://www.w3.org/2000/svg">
<g clip-path="url(#clip0_2796_13778)">
<rect x="0.468506" y="0.859375" width="50" height="50" rx="25" fill="url(#paint0_linear_2796_13778)"/>
<rect x="0.468506" y="0.859375" width="50" height="50" rx="25" fill="url(#paint1_linear_2796_13778)"/>
<g clip-path="url(#clip1_2796_13778)">
<path d="M18.9829 25.5561C19.5071 26.7479 20.1917 27.6943 21.036 28.3946L21.0377 28.3979L21.0453 28.4061C21.1457 28.5168 21.2166 28.6636 21.258 28.8463C21.2754 28.9239 21.2857 29.003 21.2886 29.0825C21.2886 29.0628 21.2951 29.0432 21.3071 29.0236C21.2891 29.0661 21.2848 29.2701 21.2929 29.6361C21.2977 29.8474 21.3009 30.0586 21.3028 30.2699C20.0853 30.4194 18.9769 30.6665 17.9766 31.0106C17.0368 31.3346 16.254 31.7225 15.6273 32.1752C14.8091 32.7659 14.2675 33.4565 14.0024 34.2479C13.9697 34.3494 13.9539 34.4497 13.9539 34.5496V35.677C13.9539 35.9606 14.0499 36.2023 14.2419 36.4036C14.436 36.607 14.6711 36.709 14.9471 36.709H26.7928L26.6766 36.511C26.0184 35.3898 25.6719 34.113 25.6729 32.8128C25.6729 31.4994 25.9969 30.3485 26.6444 29.359C26.6864 29.2941 26.73 29.2303 26.7753 29.167L26.9384 28.9336C27.1402 28.6423 27.3066 28.4099 27.438 28.2354L27.4686 28.195C27.8199 27.7321 28.2045 27.2955 28.6195 26.8886L28.6659 26.8428L28.6648 26.8319L28.7897 26.6743L28.7935 26.6677C28.8491 26.5777 28.9489 26.4386 29.0929 26.2516C29.322 25.9532 29.4737 25.7214 29.5484 25.5561C29.9313 25.4961 30.2799 25.2834 30.594 24.9185C30.9066 24.5552 31.1242 24.1096 31.2453 23.5832C31.3773 23.0072 31.3762 22.4699 31.2404 21.9703C31.1046 21.4685 30.8608 21.103 30.5089 20.8739C30.5417 18.7068 30.0159 17.0083 28.9315 15.7783C27.8046 14.4992 26.2495 13.8594 24.2657 13.8594C22.2819 13.8594 20.7273 14.4992 19.6009 15.7783C18.5166 17.0088 17.9908 18.7074 18.024 20.8734C17.6717 21.1025 17.4279 21.4685 17.2915 21.9703C17.1562 22.4699 17.1551 23.0077 17.2871 23.5832C17.4082 24.1096 17.6253 24.5546 17.9384 24.9185C18.2515 25.2828 18.5995 25.4956 18.9829 25.5561ZM22.9102 29.6006L22.9031 29.2417V29.1594H22.8993C22.9097 28.9386 22.8887 28.7175 22.8371 28.5026C22.7411 28.0783 22.5633 27.7139 22.3037 27.409C22.2351 27.3237 22.1575 27.246 22.0724 27.1772C21.4249 26.6372 20.8899 25.8872 20.4671 24.9256C20.3666 24.6884 20.2076 24.4805 20.0051 24.3212C19.7958 24.1533 19.547 24.0418 19.2824 23.9972C19.2425 23.9686 19.2065 23.9349 19.1755 23.8968C19.032 23.7299 18.9289 23.5096 18.8657 23.2341C18.7915 22.9123 18.7882 22.6265 18.8553 22.3777C18.8864 22.2632 18.9077 22.2016 18.9186 22.195L18.9339 22.1852L18.9497 22.1743C19.4275 21.8536 19.6582 21.409 19.6413 20.8412C19.6129 19.0848 20.0079 17.743 20.8255 16.8152C21.6295 15.9016 22.776 15.445 24.2657 15.445C25.7559 15.445 26.9024 15.9016 27.7069 16.8141C28.5251 17.7425 28.9195 19.0908 28.8906 20.8603C28.8764 21.4145 29.106 21.8519 29.58 22.1721L29.5964 22.1836L29.6139 22.1945C29.6248 22.2016 29.6455 22.2626 29.6771 22.3772C29.7442 22.6265 29.7409 22.9117 29.6668 23.2346C29.6035 23.509 29.5004 23.7299 29.3569 23.8968C29.3257 23.9352 29.2894 23.9692 29.2489 23.9977C28.9789 24.0468 28.7411 24.1526 28.5355 24.3141C28.3195 24.4832 28.1591 24.6937 28.0555 24.9452C28.0408 24.9779 27.9557 25.0952 27.8002 25.2981C27.6568 25.4841 27.5439 25.6401 27.462 25.7645L27.4053 25.8359C26.8091 26.4299 26.2075 27.1652 25.5999 28.0428L25.4471 28.2616C24.5195 29.5696 24.0557 31.0866 24.0557 32.8128C24.0557 33.6103 24.1555 34.3805 24.3557 35.1234H15.5711V34.651C15.7359 34.2212 16.074 33.8219 16.5857 33.4526C17.0831 33.0932 17.7257 32.7779 18.5122 32.5068C19.4308 32.1905 20.4622 31.9652 21.6055 31.8305C22.458 31.7306 22.8955 31.2392 22.9189 30.3566C22.9206 30.2994 22.9206 30.2236 22.92 30.1292C22.9189 30.0266 22.9157 29.8505 22.9097 29.6006H22.9102ZM34.5846 27.4706C33.9041 27.1879 33.1741 27.0435 32.4371 27.0457C31.6337 27.0457 30.8695 27.2083 30.1446 27.5334C29.452 27.842 28.8312 28.2913 28.3217 28.8528C28.0327 29.1693 27.7824 29.519 27.576 29.8946C27.1397 30.6903 26.9215 31.543 26.9215 32.4528C26.9215 33.1859 27.0655 33.8874 27.3546 34.5572C27.6323 35.2018 28.0339 35.7856 28.5366 36.2754C29.0409 36.7713 29.6364 37.1649 30.2902 37.4345C30.9737 37.7181 31.6893 37.8594 32.4371 37.8594C33.1855 37.8594 33.9011 37.7176 34.5846 37.4339C35.2384 37.1647 35.8339 36.7714 36.3382 36.2759C36.8409 35.7861 37.2425 35.2023 37.5202 34.5577C37.8082 33.8933 37.9559 33.1765 37.9539 32.4523C37.9539 31.7192 37.8093 31.0177 37.5202 30.3479C37.2413 29.701 36.8473 29.1283 36.3382 28.6297C35.834 28.1338 35.2385 27.7402 34.5846 27.4706ZM29.6809 29.7506C30.442 29.0045 31.3608 28.6314 32.4371 28.6314C33.5139 28.6314 34.4329 29.0045 35.1939 29.7506C35.9553 30.4968 36.336 31.3976 36.336 32.4528C36.336 33.5077 35.9553 34.4083 35.1939 35.1545C34.4329 35.9006 33.5139 36.2737 32.4377 36.2737C31.3609 36.2737 30.4419 35.9006 29.6809 35.1545C28.9195 34.4083 28.5388 33.5077 28.5388 32.4528C28.5388 31.3974 28.9195 30.4968 29.6809 29.7506ZM30.0491 31.747C29.8377 31.7441 29.6332 31.8226 29.478 31.9663C29.3987 32.0354 29.3354 32.121 29.2925 32.2171C29.2496 32.3132 29.2283 32.4174 29.2299 32.5226C29.2299 32.743 29.3122 32.9279 29.4769 33.0779L31.2246 34.7056L31.2268 34.7072C31.3882 34.8539 31.5791 34.927 31.7989 34.927C32.0106 34.9301 32.2153 34.8516 32.3706 34.7077L35.3859 31.8981C35.5495 31.7492 35.6308 31.5648 35.6308 31.3445C35.6308 31.1241 35.5489 30.9392 35.3842 30.7892C35.2224 30.6426 35.0315 30.5694 34.8115 30.5694C34.6 30.5664 34.3956 30.645 34.2404 30.7886L31.7989 33.0632L30.6229 31.9685C30.4672 31.8237 30.2617 31.7444 30.0491 31.747Z" fill="white"/>
</g>
</g>
<defs>
<linearGradient id="paint0_linear_2796_13778" x1="10.4685" y1="7.85938" x2="42.4685" y2="45.8594" gradientUnits="userSpaceOnUse">
<stop stop-color="#FFBD82"/>
<stop offset="1" stop-color="#DF6C21"/>
</linearGradient>
<linearGradient id="paint1_linear_2796_13778" x1="10.4685" y1="7.85938" x2="42.4685" y2="45.8594" gradientUnits="userSpaceOnUse">
<stop stop-color="#FFBD82"/>
<stop offset="1" stop-color="#DF6C21"/>
</linearGradient>
<clipPath id="clip0_2796_13778">
<rect width="51" height="51" fill="white"/>
</clipPath>
<clipPath id="clip1_2796_13778">
<rect width="24" height="24" fill="white" transform="translate(13.9539 13.8594)"/>
</clipPath>
</defs>
</svg>
