<svg width="141" height="70" viewBox="0 0 141 70" fill="none" xmlns="http://www.w3.org/2000/svg">
<g opacity="0.3" clip-path="url(#clip0_2436_12826)">
<path fill-rule="evenodd" clip-rule="evenodd" d="M25.4073 32.719C25.392 32.719 25.3788 32.7206 25.3688 32.7225C25.3368 32.7283 25.2769 32.7474 25.2343 32.8093L17.3941 44.1915C17.3515 44.2537 17.355 44.3163 17.3607 44.3484C17.3667 44.3803 17.3858 44.4401 17.4478 44.4827L21.1117 47.0043C21.1739 47.0469 21.2367 47.0432 21.2686 47.0375C21.3005 47.0317 21.3604 47.0126 21.403 46.9506L29.2431 35.5684C29.2859 35.5065 29.2824 35.4435 29.2764 35.4116C29.2707 35.3799 29.2515 35.32 29.1895 35.2774L25.5256 32.7558C25.483 32.7264 25.4402 32.719 25.4073 32.719ZM21.2276 48.1555C20.962 48.1555 20.703 48.0755 20.4796 47.9217L16.816 45.4004C16.5246 45.1999 16.329 44.8982 16.2648 44.5504C16.2006 44.2027 16.2757 43.851 16.4762 43.5598L24.3163 32.1776C24.5168 31.8866 24.8188 31.6911 25.1666 31.6269C25.5143 31.5627 25.8664 31.6378 26.1577 31.8382L29.8214 34.3598C30.1125 34.5598 30.3083 34.8617 30.3725 35.2097C30.4368 35.5573 30.3616 35.9092 30.1611 36.2002L22.3211 47.5824C22.1207 47.8734 21.8187 48.0689 21.4708 48.1331C21.3897 48.1481 21.3083 48.1555 21.2276 48.1555Z" fill="white"/>
<path fill-rule="evenodd" clip-rule="evenodd" d="M25.4869 32.9356C25.462 32.9356 25.4369 32.9379 25.412 32.9424C25.3047 32.9622 25.2119 33.0225 25.1501 33.1118L17.4198 44.3349C17.2924 44.5199 17.3393 44.7741 17.5244 44.9017L20.6931 47.0822C20.7827 47.144 20.8912 47.1672 20.9983 47.1475C21.1055 47.1277 21.1984 47.0674 21.2599 46.9777L28.9904 35.7548C29.0522 35.6655 29.0753 35.557 29.0555 35.45C29.0357 35.3428 28.9754 35.2498 28.8861 35.1882L25.7171 33.0074C25.6485 32.9601 25.5687 32.9356 25.4869 32.9356ZM20.9223 47.665C20.738 47.665 20.5583 47.6095 20.4035 47.5029L17.2347 45.3221C17.0327 45.1832 16.8969 44.9737 16.8524 44.7325C16.8079 44.4913 16.86 44.2472 16.999 44.0451L24.7293 32.8224C24.8685 32.6206 25.0778 32.4849 25.3193 32.4403C25.5606 32.3958 25.8048 32.4479 26.0068 32.5868L29.1757 34.7676C29.3775 34.9065 29.5134 35.116 29.5579 35.3574C29.6023 35.5984 29.5502 35.8424 29.4113 36.0443L21.6808 47.2675C21.5418 47.4693 21.3322 47.605 21.0909 47.6494C21.0347 47.6599 20.9783 47.665 20.9223 47.665Z" fill="#E1E4F1"/>
<path fill-rule="evenodd" clip-rule="evenodd" d="M29.3332 34.2831C29.4281 34.1452 29.3933 33.9563 29.2553 33.8617L26.8253 32.1892C26.6873 32.0943 26.4986 32.1291 26.4036 32.267L26.0598 32.766C25.9649 32.9039 25.9997 33.0926 26.1376 33.1875L28.5679 34.86C28.7056 34.9548 28.8944 34.9199 28.9893 34.7822L29.3332 34.2831Z" fill="#E1E4F1"/>
<path fill-rule="evenodd" clip-rule="evenodd" d="M28.6706 49.1517C29.3326 48.1907 29.0894 46.8734 28.1281 46.212L16.015 37.8755C15.0535 37.2139 13.7357 37.4569 13.074 38.418L0.654684 56.4479C-0.00723043 57.4088 0.236123 58.726 1.19739 59.3877L13.3105 67.7239C14.2718 68.3856 15.5897 68.1425 16.2516 67.1815L28.6706 49.1517Z" fill="#EBEAEA"/>
<path fill-rule="evenodd" clip-rule="evenodd" d="M1.61365 58.6393C2.03633 58.9301 2.14318 59.5094 1.85227 59.9317C1.56115 60.354 0.982 60.461 0.559322 60.17C0.136849 59.8792 0.0297902 59.3001 0.320909 58.8779C0.611822 58.4554 1.19097 58.3486 1.61365 58.6393Z" fill="#6E6F6E"/>
<path fill-rule="evenodd" clip-rule="evenodd" d="M1.33851 59.0383C1.54069 59.1774 1.59175 59.4542 1.45257 59.6563C1.31339 59.8582 1.03648 59.9094 0.834303 59.7705C0.632126 59.6314 0.581067 59.3544 0.720244 59.1523C0.859421 58.9502 1.13654 58.8992 1.33851 59.0383Z" fill="#535253"/>
<path fill-rule="evenodd" clip-rule="evenodd" d="M13.132 66.5662C13.5547 66.8569 13.6613 67.4361 13.3704 67.8583C13.0795 68.2808 12.5004 68.3876 12.0777 68.0966C11.655 67.8059 11.5482 67.227 11.8393 66.8045C12.13 66.382 12.7093 66.2754 13.132 66.5662Z" fill="#6E6F6E"/>
<path fill-rule="evenodd" clip-rule="evenodd" d="M12.8568 66.966C13.059 67.1053 13.1101 67.3821 12.9709 67.5842C12.8317 67.7861 12.5548 67.8371 12.3526 67.6982C12.1504 67.5591 12.0994 67.2821 12.2386 67.0802C12.3777 66.8781 12.6548 66.8269 12.8568 66.966Z" fill="#535253"/>
<mask id="mask0_2436_12826" style="mask-type:luminance" maskUnits="userSpaceOnUse" x="89" y="2" width="52" height="32">
<path d="M90.2191 2.44824H138.983C139.656 2.44824 140.202 2.99254 140.202 3.66405V32.5395C140.202 33.2109 139.656 33.7553 138.983 33.7553H90.2191C89.5458 33.7553 89 33.2109 89 32.5395V3.66405C89 2.99254 89.5458 2.44824 90.2191 2.44824Z" fill="white"/>
</mask>
<g mask="url(#mask0_2436_12826)">
<path fill-rule="evenodd" clip-rule="evenodd" d="M87.4761 35.2753H141.726V0.928711H87.4761V35.2753Z" fill="white"/>
</g>
<mask id="mask1_2436_12826" style="mask-type:luminance" maskUnits="userSpaceOnUse" x="89" y="0" width="51" height="5">
<path d="M139.347 0C139.684 0 139.958 0.274167 139.958 0.612198V4.89721H89V0.612198C89 0.274167 89.2732 0 89.6103 0H139.347Z" fill="white"/>
</mask>
<g mask="url(#mask1_2436_12826)">
<path fill-rule="evenodd" clip-rule="evenodd" d="M87.4744 6.42753H141.483V-1.53027H87.4744V6.42753Z" fill="url(#paint0_linear_2436_12826)"/>
</g>
<mask id="mask2_2436_12826" style="mask-type:luminance" maskUnits="userSpaceOnUse" x="91" y="1" width="3" height="3">
<path d="M92.7351 3.09062C93.2422 3.09062 93.6533 2.67307 93.6533 2.1581C93.6533 1.64301 93.2422 1.22559 92.7351 1.22559C92.228 1.22559 91.8169 1.64301 91.8169 2.1581C91.8169 2.67307 92.228 3.09062 92.7351 3.09062Z" fill="white"/>
</mask>
<g mask="url(#mask2_2436_12826)">
<path fill-rule="evenodd" clip-rule="evenodd" d="M90.2866 4.64453H95.1837V-0.329102H90.2866V4.64453Z" fill="white"/>
</g>
<mask id="mask3_2436_12826" style="mask-type:luminance" maskUnits="userSpaceOnUse" x="94" y="1" width="3" height="3">
<path d="M95.3962 3.09062C95.9033 3.09062 96.3144 2.67307 96.3144 2.1581C96.3144 1.64301 95.9033 1.22559 95.3962 1.22559C94.8891 1.22559 94.478 1.64301 94.478 2.1581C94.478 2.67307 94.8891 3.09062 95.3962 3.09062Z" fill="white"/>
</mask>
<g mask="url(#mask3_2436_12826)">
<path fill-rule="evenodd" clip-rule="evenodd" d="M92.9478 4.64453H97.8449V-0.329102H92.9478V4.64453Z" fill="white"/>
</g>
<mask id="mask4_2436_12826" style="mask-type:luminance" maskUnits="userSpaceOnUse" x="94" y="1" width="3" height="3">
<path d="M95.3962 3.09062C95.9033 3.09062 96.3144 2.67307 96.3144 2.1581C96.3144 1.64301 95.9033 1.22559 95.3962 1.22559C94.8891 1.22559 94.478 1.64301 94.478 2.1581C94.478 2.67307 94.8891 3.09062 95.3962 3.09062Z" fill="white"/>
</mask>
<g mask="url(#mask4_2436_12826)">
<path fill-rule="evenodd" clip-rule="evenodd" d="M92.9478 4.64453H97.8449V-0.329102H92.9478V4.64453Z" fill="white"/>
</g>
<mask id="mask5_2436_12826" style="mask-type:luminance" maskUnits="userSpaceOnUse" x="93" y="7" width="11" height="11">
<path d="M98.8809 7.92773C101.651 7.92773 103.896 10.1133 103.896 12.8093C103.896 15.4785 101.696 17.6473 98.9639 17.6904L98.8809 17.691C96.1109 17.691 93.8655 15.5055 93.8655 12.8093C93.8655 10.1406 96.0664 7.9715 98.798 7.92839L98.8809 7.92773Z" fill="white"/>
</mask>
<g mask="url(#mask5_2436_12826)">
<path fill-rule="evenodd" clip-rule="evenodd" d="M103.896 12.8093C103.896 10.1151 101.649 7.92773 98.8809 7.92773C96.1128 7.92773 93.8655 10.1151 93.8655 12.8093C93.8655 15.5036 96.1128 17.691 98.8809 17.691C101.649 17.691 103.896 15.5036 103.896 12.8093Z" fill="white"/>
</g>
<mask id="mask6_2436_12826" style="mask-type:luminance" maskUnits="userSpaceOnUse" x="93" y="7" width="11" height="11">
<path d="M98.8809 7.92773C101.651 7.92773 103.896 10.1133 103.896 12.8093C103.896 15.4785 101.696 17.6473 98.9639 17.6904L98.8809 17.691C96.1109 17.691 93.8655 15.5055 93.8655 12.8093C93.8655 10.1406 96.0664 7.9715 98.798 7.92839L98.8809 7.92773Z" fill="white"/>
</mask>
<g mask="url(#mask6_2436_12826)">
<path fill-rule="evenodd" clip-rule="evenodd" d="M103.896 12.8093C103.896 10.1151 101.649 7.92773 98.8809 7.92773C96.1128 7.92773 93.8655 10.1151 93.8655 12.8093C93.8655 15.5036 96.1128 17.691 98.8809 17.691C101.649 17.691 103.896 15.5036 103.896 12.8093Z" stroke="#E4EBFF" stroke-width="2"/>
</g>
<mask id="mask7_2436_12826" style="mask-type:luminance" maskUnits="userSpaceOnUse" x="94" y="9" width="9" height="8">
<path d="M99.0386 9.05078C101.182 9.05078 102.919 10.7679 102.919 12.8861C102.919 15.0044 101.182 16.7216 99.0386 16.7216H98.7228C96.5795 16.7216 94.842 15.0044 94.842 12.8861C94.842 10.7679 96.5795 9.05078 98.7228 9.05078H99.0386Z" fill="white"/>
</mask>
<g mask="url(#mask7_2436_12826)">
<path fill-rule="evenodd" clip-rule="evenodd" d="M-170.109 1163.68H272.3V-114.638H-170.109V1163.68Z" fill="url(#paint1_linear_2436_12826)"/>
</g>
<mask id="mask8_2436_12826" style="mask-type:luminance" maskUnits="userSpaceOnUse" x="94" y="9" width="9" height="8">
<path d="M99.0386 9.05078C101.182 9.05078 102.919 10.7679 102.919 12.8861C102.919 15.0044 101.182 16.7216 99.0386 16.7216H98.7228C96.5795 16.7216 94.842 15.0044 94.842 12.8861C94.842 10.7679 96.5795 9.05078 98.7228 9.05078H99.0386Z" fill="white"/>
</mask>
<g mask="url(#mask8_2436_12826)">
<path fill-rule="evenodd" clip-rule="evenodd" d="M-170.109 1163.68H272.3V-114.638H-170.109V1163.68Z" fill="url(#paint2_linear_2436_12826)"/>
</g>
<mask id="mask9_2436_12826" style="mask-type:luminance" maskUnits="userSpaceOnUse" x="107" y="10" width="28" height="3">
<path d="M108.031 10.2158H133.828C134.323 10.2158 134.724 10.6197 134.724 11.1179C134.724 11.6162 134.323 12.02 133.828 12.02H108.031C107.536 12.02 107.135 11.6162 107.135 11.1179C107.135 10.6197 107.536 10.2158 108.031 10.2158Z" fill="white"/>
</mask>
<g mask="url(#mask9_2436_12826)">
<path fill-rule="evenodd" clip-rule="evenodd" d="M105.615 13.5495H136.244V8.68457H105.615V13.5495Z" fill="#F4F4F4"/>
</g>
<mask id="mask10_2436_12826" style="mask-type:luminance" maskUnits="userSpaceOnUse" x="106" y="13" width="19" height="3">
<path d="M107.88 13.5986H123.959C124.456 13.5986 124.859 14.0088 124.859 14.5149C124.859 15.0209 124.456 15.4311 123.959 15.4311H107.88C107.383 15.4311 106.979 15.0209 106.979 14.5149C106.979 14.0088 107.383 13.5986 107.88 13.5986Z" fill="white"/>
</mask>
<g mask="url(#mask10_2436_12826)">
<path fill-rule="evenodd" clip-rule="evenodd" d="M105.452 16.9858H126.387V12.0449H105.452V16.9858Z" fill="#F4F4F4"/>
</g>
<mask id="mask11_2436_12826" style="mask-type:luminance" maskUnits="userSpaceOnUse" x="93" y="20" width="11" height="11">
<path d="M98.8809 20.7188C101.651 20.7188 103.896 22.9112 103.896 25.6159C103.896 28.2935 101.696 30.4691 98.9639 30.5123L98.8809 30.513C96.1109 30.513 93.8655 28.3205 93.8655 25.6159C93.8655 22.9386 96.0664 20.7627 98.798 20.7194L98.8809 20.7188Z" fill="white"/>
</mask>
<g mask="url(#mask11_2436_12826)">
<path fill-rule="evenodd" clip-rule="evenodd" d="M103.896 25.6159C103.896 22.9131 101.649 20.7188 98.8809 20.7188C96.1128 20.7188 93.8655 22.9131 93.8655 25.6159C93.8655 28.3187 96.1128 30.513 98.8809 30.513C101.649 30.513 103.896 28.3187 103.896 25.6159Z" fill="white"/>
</g>
<mask id="mask12_2436_12826" style="mask-type:luminance" maskUnits="userSpaceOnUse" x="93" y="20" width="11" height="11">
<path d="M98.8809 20.7188C101.651 20.7188 103.896 22.9112 103.896 25.6159C103.896 28.2935 101.696 30.4691 98.9639 30.5123L98.8809 30.513C96.1109 30.513 93.8655 28.3205 93.8655 25.6159C93.8655 22.9386 96.0664 20.7627 98.798 20.7194L98.8809 20.7188Z" fill="white"/>
</mask>
<g mask="url(#mask12_2436_12826)">
<path fill-rule="evenodd" clip-rule="evenodd" d="M103.896 25.6159C103.896 22.9131 101.649 20.7188 98.8809 20.7188C96.1128 20.7188 93.8655 22.9131 93.8655 25.6159C93.8655 28.3187 96.1128 30.513 98.8809 30.513C101.649 30.513 103.896 28.3187 103.896 25.6159Z" stroke="#E4EBFF" stroke-width="2"/>
</g>
<mask id="mask13_2436_12826" style="mask-type:luminance" maskUnits="userSpaceOnUse" x="94" y="21" width="9" height="9">
<path d="M99.0389 21.8447C101.182 21.8447 102.92 23.5619 102.92 25.6802C102.92 27.7984 101.182 29.5156 99.0389 29.5156H98.7231C96.5798 29.5156 94.8423 27.7984 94.8423 25.6802C94.8423 23.5619 96.5798 21.8447 98.7231 21.8447H99.0389Z" fill="white"/>
</mask>
<g mask="url(#mask13_2436_12826)">
<path fill-rule="evenodd" clip-rule="evenodd" d="M-170.109 1163.72H272.3V-114.598H-170.109V1163.72Z" fill="url(#paint3_linear_2436_12826)"/>
</g>
<mask id="mask14_2436_12826" style="mask-type:luminance" maskUnits="userSpaceOnUse" x="94" y="21" width="9" height="9">
<path d="M99.0389 21.8447C101.182 21.8447 102.92 23.5619 102.92 25.6802C102.92 27.7984 101.182 29.5156 99.0389 29.5156H98.7231C96.5798 29.5156 94.8423 27.7984 94.8423 25.6802C94.8423 23.5619 96.5798 21.8447 98.7231 21.8447H99.0389Z" fill="white"/>
</mask>
<g mask="url(#mask14_2436_12826)">
<path fill-rule="evenodd" clip-rule="evenodd" d="M-170.109 1163.72H272.3V-114.598H-170.109V1163.72Z" fill="url(#paint4_linear_2436_12826)"/>
</g>
<mask id="mask15_2436_12826" style="mask-type:luminance" maskUnits="userSpaceOnUse" x="107" y="23" width="28" height="2">
<path d="M108.031 23.0078H133.828C134.323 23.0078 134.724 23.4117 134.724 23.9099C134.724 24.4081 134.323 24.812 133.828 24.812H108.031C107.536 24.812 107.135 24.4081 107.135 23.9099C107.135 23.4117 107.536 23.0078 108.031 23.0078Z" fill="white"/>
</mask>
<g mask="url(#mask15_2436_12826)">
<path fill-rule="evenodd" clip-rule="evenodd" d="M105.615 26.3424H136.244V21.4775H105.615V26.3424Z" fill="#F5F5F5"/>
</g>
<mask id="mask16_2436_12826" style="mask-type:luminance" maskUnits="userSpaceOnUse" x="106" y="26" width="19" height="3">
<path d="M107.88 26.3916H123.959C124.456 26.3916 124.859 26.8018 124.859 27.3078C124.859 27.8138 124.456 28.224 123.959 28.224H107.88C107.383 28.224 106.979 27.8138 106.979 27.3078C106.979 26.8018 107.383 26.3916 107.88 26.3916Z" fill="white"/>
</mask>
<g mask="url(#mask16_2436_12826)">
<path fill-rule="evenodd" clip-rule="evenodd" d="M105.452 29.7778H126.387V24.8369H105.452V29.7778Z" fill="#F5F5F5"/>
</g>
<mask id="mask17_2436_12826" style="mask-type:luminance" maskUnits="userSpaceOnUse" x="0" y="37" width="29" height="32">
<path d="M12.7208 38.4116L0.373004 56.3576C-0.289285 57.3204 -0.0461715 58.6399 0.916203 59.3028L13.0377 67.6538C13.9999 68.3167 15.3185 68.0733 15.981 67.1105L28.3288 49.1647C28.9911 48.2019 28.7477 46.8824 27.7858 46.2195L15.664 37.868C15.2979 37.6161 14.8802 37.4951 14.4664 37.4951C13.7932 37.4951 13.1311 37.8154 12.7208 38.4116Z" fill="white"/>
</mask>
<g mask="url(#mask17_2436_12826)">
<path fill-rule="evenodd" clip-rule="evenodd" d="M12.7208 38.4116L0.373004 56.3576C-0.289285 57.3204 -0.0461715 58.6399 0.916203 59.3028L13.0377 67.6538C13.9999 68.3167 15.3185 68.0733 15.981 67.1105L28.3288 49.1647C28.9911 48.2019 28.7477 46.8824 27.7858 46.2195L15.664 37.868C15.2979 37.6161 14.8802 37.4951 14.4664 37.4951C13.7932 37.4951 13.1311 37.8154 12.7208 38.4116Z" fill="url(#paint5_linear_2436_12826)"/>
</g>
<mask id="mask18_2436_12826" style="mask-type:luminance" maskUnits="userSpaceOnUse" x="0" y="37" width="29" height="32">
<path d="M12.7208 38.4116L0.373004 56.3576C-0.289285 57.3204 -0.0461715 58.6399 0.916203 59.3028L13.0377 67.6538C13.9999 68.3167 15.3185 68.0733 15.981 67.1105L28.3288 49.1647C28.9911 48.2019 28.7477 46.8824 27.7858 46.2195L15.664 37.868C15.2979 37.6159 14.88 37.4951 14.4664 37.4951C13.7932 37.4951 13.1311 37.8154 12.7208 38.4116Z" fill="white"/>
</mask>
<g mask="url(#mask18_2436_12826)">
<path fill-rule="evenodd" clip-rule="evenodd" d="M16.5806 36.9351L16.1149 36.6143L-0.371338 60.5749L0.0943207 60.8958L16.5806 36.9351Z" fill="white"/>
</g>
<mask id="mask19_2436_12826" style="mask-type:luminance" maskUnits="userSpaceOnUse" x="0" y="37" width="29" height="32">
<path d="M12.7208 38.4116L0.373004 56.3576C-0.289285 57.3204 -0.0461715 58.6399 0.916203 59.3028L13.0377 67.6538C13.9999 68.3167 15.3185 68.0733 15.981 67.1105L28.3288 49.1647C28.9911 48.2019 28.7477 46.8824 27.7858 46.2195L15.664 37.868C15.2979 37.6159 14.88 37.4951 14.4664 37.4951C13.7932 37.4951 13.1311 37.8154 12.7208 38.4116Z" fill="white"/>
</mask>
<g mask="url(#mask19_2436_12826)">
<path fill-rule="evenodd" clip-rule="evenodd" d="M18.4099 38.3882L17.9443 38.0674L1.45801 62.028L1.92367 62.3489L18.4099 38.3882Z" fill="white"/>
</g>
<mask id="mask20_2436_12826" style="mask-type:luminance" maskUnits="userSpaceOnUse" x="0" y="37" width="29" height="32">
<path d="M12.7208 38.4116L0.373004 56.3576C-0.289285 57.3204 -0.0461715 58.6399 0.916203 59.3028L13.0377 67.6538C13.9999 68.3167 15.3185 68.0733 15.981 67.1105L28.3288 49.1647C28.9911 48.2019 28.7477 46.8824 27.7858 46.2195L15.664 37.868C15.2979 37.6159 14.88 37.4951 14.4664 37.4951C13.7932 37.4951 13.1311 37.8154 12.7208 38.4116Z" fill="white"/>
</mask>
<g mask="url(#mask20_2436_12826)">
<path fill-rule="evenodd" clip-rule="evenodd" d="M20.3736 39.815L19.9079 39.4941L3.42188 63.4548L3.88733 63.7757L20.3736 39.815Z" fill="white"/>
</g>
<mask id="mask21_2436_12826" style="mask-type:luminance" maskUnits="userSpaceOnUse" x="0" y="37" width="29" height="32">
<path d="M12.7208 38.4116L0.373004 56.3576C-0.289285 57.3204 -0.0461715 58.6399 0.916203 59.3028L13.0377 67.6538C13.9999 68.3167 15.3185 68.0733 15.981 67.1105L28.3288 49.1647C28.9911 48.2019 28.7477 46.8824 27.7858 46.2195L15.664 37.868C15.2979 37.6159 14.88 37.4951 14.4664 37.4951C13.7932 37.4951 13.1311 37.8154 12.7208 38.4116Z" fill="white"/>
</mask>
<g mask="url(#mask21_2436_12826)">
<path fill-rule="evenodd" clip-rule="evenodd" d="M22.3975 41.1636L21.9318 40.8428L5.44556 64.8034L5.91122 65.1243L22.3975 41.1636Z" fill="white"/>
</g>
<mask id="mask22_2436_12826" style="mask-type:luminance" maskUnits="userSpaceOnUse" x="0" y="37" width="29" height="32">
<path d="M12.7208 38.4116L0.373004 56.3576C-0.289285 57.3204 -0.0461715 58.6399 0.916203 59.3028L13.0377 67.6538C13.9999 68.3167 15.3185 68.0733 15.981 67.1105L28.3288 49.1647C28.9911 48.2019 28.7477 46.8824 27.7858 46.2195L15.664 37.868C15.2979 37.6159 14.88 37.4951 14.4664 37.4951C13.7932 37.4951 13.1311 37.8154 12.7208 38.4116Z" fill="white"/>
</mask>
<g mask="url(#mask22_2436_12826)">
<path fill-rule="evenodd" clip-rule="evenodd" d="M24.3904 42.5474L23.9248 42.2266L7.43872 66.1872L7.90417 66.5081L24.3904 42.5474Z" fill="white"/>
</g>
<mask id="mask23_2436_12826" style="mask-type:luminance" maskUnits="userSpaceOnUse" x="0" y="37" width="29" height="32">
<path d="M12.7208 38.4116L0.373004 56.3576C-0.289285 57.3204 -0.0461715 58.6399 0.916203 59.3028L13.0377 67.6538C13.9999 68.3167 15.3185 68.0733 15.981 67.1105L28.3288 49.1647C28.9911 48.2019 28.7477 46.8824 27.7858 46.2195L15.664 37.868C15.2979 37.6159 14.88 37.4951 14.4664 37.4951C13.7932 37.4951 13.1311 37.8154 12.7208 38.4116Z" fill="white"/>
</mask>
<g mask="url(#mask23_2436_12826)">
<path fill-rule="evenodd" clip-rule="evenodd" d="M26.4668 44.1763L26.0012 43.8555L9.51514 67.8161L9.98059 68.137L26.4668 44.1763Z" fill="white"/>
</g>
<mask id="mask24_2436_12826" style="mask-type:luminance" maskUnits="userSpaceOnUse" x="0" y="37" width="29" height="32">
<path d="M12.7208 38.4116L0.373004 56.3576C-0.289285 57.3204 -0.0461715 58.6399 0.916203 59.3028L13.0377 67.6538C13.9999 68.3167 15.3185 68.0733 15.981 67.1105L28.3288 49.1647C28.9911 48.2019 28.7477 46.8824 27.7858 46.2195L15.664 37.868C15.2979 37.6159 14.88 37.4951 14.4664 37.4951C13.7932 37.4951 13.1311 37.8154 12.7208 38.4116Z" fill="white"/>
</mask>
<g mask="url(#mask24_2436_12826)">
<path fill-rule="evenodd" clip-rule="evenodd" d="M28.6406 45.4058L28.175 45.085L11.6887 69.0454L12.1544 69.3663L28.6406 45.4058Z" fill="white"/>
</g>
<mask id="mask25_2436_12826" style="mask-type:luminance" maskUnits="userSpaceOnUse" x="43" y="62" width="9" height="8">
<path d="M44.0271 63.0795L43.9858 65.3375C43.8484 65.5402 43.9804 66.3764 43.7645 66.986C43.4538 67.8636 43.3743 68.174 43.4259 68.6604C43.51 69.4516 44.4593 69.4266 45.3991 69.2735C46.3804 69.1134 46.9231 69.1499 47.6138 69.1862C48.1897 69.2165 48.8686 69.2471 49.9908 69.1635C52.1679 69.0009 51.8842 68.1763 50.7517 67.85C49.6192 67.5229 47.5797 66.7765 47.0206 66.2497C46.3872 65.6537 46.6926 63.7541 46.6279 62.9763C46.5996 62.64 46.3339 62.5246 45.9821 62.5244C45.2113 62.5244 44.0271 63.0795 44.0271 63.0795Z" fill="white"/>
</mask>
<g mask="url(#mask25_2436_12826)">
<path fill-rule="evenodd" clip-rule="evenodd" d="M42.8503 69.9185H52.1798V61.9639H42.8503V69.9185Z" fill="#FADACF"/>
</g>
<mask id="mask26_2436_12826" style="mask-type:luminance" maskUnits="userSpaceOnUse" x="44" y="62" width="3" height="4">
<path d="M44.1864 63.0596L44.1487 65.0927C44.6064 64.0417 46.0327 63.8406 46.7489 63.8075C46.7536 63.664 46.7585 63.5271 46.761 63.4004L45.8891 62.5342C45.1433 62.618 44.1864 63.0596 44.1864 63.0596Z" fill="white"/>
</mask>
<g mask="url(#mask26_2436_12826)">
<path fill-rule="evenodd" clip-rule="evenodd" d="M41.6501 66.8706H47.7219V61.3076H41.6501V66.8706Z" fill="#F6C2C3"/>
</g>
<mask id="mask27_2436_12826" style="mask-type:luminance" maskUnits="userSpaceOnUse" x="43" y="65" width="9" height="5">
<path d="M43.9007 66.0851C43.8881 66.373 43.8613 66.6924 43.7648 66.9664C43.4541 67.8505 43.3745 68.1632 43.4262 68.6532C43.5103 69.4502 44.4596 69.4251 45.3993 69.2708C46.3807 69.1095 46.9234 69.1463 47.614 69.1829C48.19 69.2135 48.8688 69.2442 49.9911 69.16C52.1681 68.9962 51.8845 68.1655 50.7519 67.8368C49.6194 67.5073 47.5799 66.7554 47.0209 66.2246C46.9263 66.135 46.8527 66.0161 46.7955 65.876C45.6803 66.8354 44.7515 66.577 43.9007 66.0851Z" fill="white"/>
</mask>
<g mask="url(#mask27_2436_12826)">
<path fill-rule="evenodd" clip-rule="evenodd" d="M41.7153 71.9447H53.426V64.9531H41.7153V71.9447Z" fill="#656565"/>
</g>
<mask id="mask28_2436_12826" style="mask-type:luminance" maskUnits="userSpaceOnUse" x="43" y="66" width="5" height="4">
<path d="M43.9186 67.0389C43.6662 67.7395 43.5671 68.0704 43.5671 68.4271C43.5673 68.5073 43.5725 68.5888 43.5817 68.6761C43.5836 68.6925 43.5856 68.7086 43.5883 68.7244C43.5912 68.7429 43.5947 68.7611 43.5988 68.7786L43.7437 69.0638L44.5191 69.3549C44.567 69.3573 44.6157 69.3588 44.6657 69.3588C44.6675 69.3588 44.669 69.3588 44.6704 69.3588C44.6717 69.3588 44.6731 69.3588 44.6747 69.3588C44.9064 69.3586 45.1581 69.3329 45.4124 69.2958C45.4196 69.2948 45.4268 69.2936 45.434 69.2926C45.4457 69.291 45.4574 69.2891 45.4689 69.2873C45.4742 69.2865 45.4798 69.2857 45.4849 69.2849C45.487 69.2847 45.489 69.2843 45.4913 69.2839C45.5092 69.2811 45.5269 69.2784 45.5447 69.2756C45.5797 69.27 45.6142 69.2647 45.6481 69.2593C46.5598 69.1215 47.0854 69.1558 47.748 69.1903C47.7844 69.1921 47.8214 69.1941 47.8586 69.1959C47.8088 69.1707 47.7585 69.1451 47.7069 69.1186C46.2141 68.3549 46.1971 68.4058 45.7864 68.4566C45.6473 68.474 45.4631 68.4911 45.1616 68.4766C43.9687 68.4197 44.4807 67.5966 44.7645 66.9996C44.8293 66.8638 44.8751 66.7064 44.9072 66.5444C44.612 66.4699 44.329 66.3388 44.0538 66.1836C44.0413 66.4631 44.0146 66.773 43.9186 67.0389Z" fill="white"/>
</mask>
<g mask="url(#mask28_2436_12826)">
<path fill-rule="evenodd" clip-rule="evenodd" d="M42.0059 71.6164H52.4239V64.8447H42.0059V71.6164Z" fill="#4D4D4D"/>
</g>
<mask id="mask29_2436_12826" style="mask-type:luminance" maskUnits="userSpaceOnUse" x="21" y="57" width="8" height="10">
<path d="M25.0263 58.7185C24.7824 58.7378 24.2107 59.3642 23.6003 59.5753C22.7206 59.8797 22.4282 60.0122 22.0805 60.3571C21.514 60.9162 22.1246 61.6438 22.8298 62.2837C24.18 63.5075 24.0948 63.9916 25.7754 65.8071C27.2581 67.4093 27.7265 66.6726 27.2767 65.5826C26.8268 64.4923 26.1402 62.4297 26.2032 61.6638C26.2748 60.7961 27.9507 59.8472 28.5179 59.3115C29.3013 58.5705 26.8183 57.3398 26.8183 57.3398L25.0263 58.7185Z" fill="white"/>
</mask>
<g mask="url(#mask29_2436_12826)">
<path fill-rule="evenodd" clip-rule="evenodd" d="M21.2974 67.2965H29.231V56.7783H21.2974V67.2965Z" fill="#FADACF"/>
</g>
<mask id="mask30_2436_12826" style="mask-type:luminance" maskUnits="userSpaceOnUse" x="25" y="57" width="4" height="3">
<path d="M25.1279 58.5996C26.2541 58.2895 27.3082 59.2773 27.7832 59.8164C27.9004 59.7292 28.013 59.646 28.1155 59.5675L28.2616 58.337C27.7281 57.8066 26.7769 57.3379 26.7769 57.3379L25.1279 58.5996Z" fill="white"/>
</mask>
<g mask="url(#mask30_2436_12826)">
<path fill-rule="evenodd" clip-rule="evenodd" d="M23.0754 60.6957H28.9323V56.209H23.0754V60.6957Z" fill="#F6C2C3"/>
</g>
<mask id="mask31_2436_12826" style="mask-type:luminance" maskUnits="userSpaceOnUse" x="21" y="59" width="7" height="8">
<path d="M23.5978 59.6295C22.7195 59.9315 22.4275 60.063 22.0804 60.4052C21.5148 60.96 22.1244 61.6819 22.8285 62.3169C24.1766 63.5312 24.0915 64.0114 25.7694 65.8129C27.2498 67.4027 27.7175 66.6717 27.2683 65.5901C26.8192 64.5083 26.1337 62.4617 26.1965 61.7018C26.2072 61.573 26.2536 61.4425 26.3269 61.3118C24.8901 61.0363 24.5122 60.1568 24.3647 59.1934C24.1339 59.3608 23.8696 59.5362 23.5978 59.6295Z" fill="white"/>
</mask>
<g mask="url(#mask31_2436_12826)">
<path fill-rule="evenodd" clip-rule="evenodd" d="M19.7905 69.0413H29.2368V58.3613H19.7905V69.0413Z" fill="#656565"/>
</g>
<mask id="mask32_2436_12826" style="mask-type:luminance" maskUnits="userSpaceOnUse" x="21" y="59" width="7" height="8">
<path d="M23.6135 59.5834C22.7272 59.8874 22.4327 60.0197 22.0824 60.3641C21.5117 60.9225 22.1268 61.6491 22.8372 62.2882C24.1974 63.5104 24.1116 63.9938 25.8046 65.8069C26.5996 66.6585 27.1052 66.8484 27.336 66.6758C27.1902 66.5891 27.0164 66.5069 26.8456 66.4414C26.2138 66.1982 25.8678 65.8796 24.6972 63.9376C23.5264 61.9956 23.8476 62.7156 22.8501 62.0381C21.8526 61.3621 22.7372 60.9132 23.3039 60.5423C23.8708 60.1711 24.3461 59.247 24.3461 59.247L24.2825 59.2188C24.0758 59.3631 23.8476 59.5031 23.6135 59.5834Z" fill="white"/>
</mask>
<g mask="url(#mask32_2436_12826)">
<path fill-rule="evenodd" clip-rule="evenodd" d="M20.7463 67.8003H28.2608V58.0098H20.7463V67.8003Z" fill="#4D4D4D"/>
</g>
<mask id="mask33_2436_12826" style="mask-type:luminance" maskUnits="userSpaceOnUse" x="26" y="35" width="16" height="26">
<path d="M34.4486 44.7387C33.7683 47.0974 32.9617 49.8622 32.5106 50.3649C32.0129 50.9182 30.9894 51.6841 30.0984 52.7133C29.2214 53.7268 28.392 55.2138 27.7124 56.0651C27.2555 56.6361 26.8456 56.7324 26.6117 56.9081C25.6761 57.6127 26.661 58.1534 26.661 58.1534L28.4711 60.3931C29.4345 60.1972 30.3137 59.4031 31.1548 58.3382L36.8567 53.5138C36.8567 53.5138 40.77 46.5722 41.1301 44.0378C41.4902 41.5024 36.9694 35.0322 36.9694 35.0322C36.9694 35.0322 35.753 40.2169 34.4486 44.7387Z" fill="white"/>
</mask>
<g mask="url(#mask33_2436_12826)">
<path fill-rule="evenodd" clip-rule="evenodd" d="M25.6475 60.9535H41.7111V34.4727H25.6475V60.9535Z" fill="#6C91A1"/>
</g>
<mask id="mask34_2436_12826" style="mask-type:luminance" maskUnits="userSpaceOnUse" x="29" y="43" width="13" height="18">
<path d="M40.2738 43.8268C40.2738 43.8268 38.7378 49.7988 37.3638 51.3018C35.99 52.806 32.4084 56.3737 30.6597 58.1455C29.8568 58.9591 29.3945 59.6575 29.1455 60.2419C29.8733 59.9004 30.555 59.2326 31.2134 58.3976L36.8824 53.5933C36.8824 53.5933 40.7731 46.6807 41.1311 44.1568C41.15 44.0227 41.1553 43.8773 41.1483 43.7227C41.1233 43.7219 41.0983 43.7217 41.0736 43.7217C40.63 43.7217 40.2738 43.8268 40.2738 43.8268Z" fill="white"/>
</mask>
<g mask="url(#mask34_2436_12826)">
<path fill-rule="evenodd" clip-rule="evenodd" d="M28.3337 63.0624H43.3417V43.165H28.3337V63.0624Z" fill="#89AEBC"/>
</g>
<mask id="mask35_2436_12826" style="mask-type:luminance" maskUnits="userSpaceOnUse" x="37" y="33" width="12" height="31">
<path d="M38.1019 34.1415C37.8725 35.2288 37.5121 37.7497 38.5009 39.7588C39.49 41.768 42.7703 46.9787 43.111 48.239C43.2506 48.7553 43.2004 52.0071 43.2619 54.9492C43.2801 55.8183 43.4968 57.3406 43.5196 58.174C43.5716 60.0961 43.1805 61.4614 43.1631 62.36C43.1514 62.9723 43.5171 63.4394 43.5171 63.4394C43.1731 63.6985 45.6928 64.1479 47.1533 63.6415C47.3667 63.5678 47.0118 63.0003 47.3359 59.9296C47.7521 55.983 48.4507 50.3109 48.6305 49.0526C48.9792 46.6089 45.5881 36.6248 45.5881 36.6248C45.5881 36.6248 40.1224 33.9355 38.5281 33.9355C38.2852 33.9355 38.1323 33.9979 38.1019 34.1415Z" fill="white"/>
</mask>
<g mask="url(#mask35_2436_12826)">
<path fill-rule="evenodd" clip-rule="evenodd" d="M37.2878 64.4305H49.2123V33.377H37.2878V64.4305Z" fill="#89AEBC"/>
</g>
<mask id="mask36_2436_12826" style="mask-type:luminance" maskUnits="userSpaceOnUse" x="37" y="35" width="9" height="29">
<path d="M37.748 35.5488C37.6218 36.7914 37.6487 38.4603 38.3505 39.8752C39.3468 41.883 42.6508 47.0902 42.994 48.3497C43.1346 48.8657 43.084 52.1152 43.146 55.0554C43.1643 55.924 43.3826 57.4452 43.4055 58.278C43.458 60.1988 43.064 61.5632 43.0464 62.4612C43.0347 63.0731 43.403 63.5399 43.403 63.5399C43.3496 63.58 43.3646 63.6246 43.4346 63.6693C43.5536 63.5331 43.6124 63.3341 43.5812 63.0528C43.3981 61.4016 44.1809 62.0246 43.892 58.8655C43.6029 55.7076 43.8038 51.0098 43.7718 49.0433C43.7404 47.1009 45.0485 47.8725 45.0822 47.8926C45.0539 47.8755 44.1295 47.3053 42.21 44.8032C40.2601 42.2618 39.7554 35.4667 39.7554 35.4667C39.7554 35.4667 39.4226 35.4062 38.9454 35.4062C38.5983 35.4062 38.1748 35.4383 37.748 35.5488Z" fill="white"/>
</mask>
<g mask="url(#mask36_2436_12826)">
<path fill-rule="evenodd" clip-rule="evenodd" d="M35.0852 64.4866H45.6437V34.8477H35.0852V64.4866Z" fill="#6C91A1"/>
</g>
<mask id="mask37_2436_12826" style="mask-type:luminance" maskUnits="userSpaceOnUse" x="43" y="13" width="4" height="4">
<path d="M44.2039 13.835L46.8238 15.838L46.5679 16.8713L46.5 16.8782C46.4322 16.8845 46.3649 16.8887 46.298 16.8908L46.2313 16.8921C45.3655 16.9007 44.5746 16.5485 43.8838 15.7131C44.0285 15.5509 44.1445 15.0392 44.2039 13.835Z" fill="white"/>
</mask>
<g mask="url(#mask37_2436_12826)">
<path fill-rule="evenodd" clip-rule="evenodd" d="M43.7749 17.0315H46.9359V13.7441H43.7749V17.0315Z" fill="url(#paint6_linear_2436_12826)"/>
</g>
<mask id="mask38_2436_12826" style="mask-type:luminance" maskUnits="userSpaceOnUse" x="43" y="13" width="4" height="4">
<path d="M44.2039 13.835L46.8238 15.838L46.5679 16.8713L46.5 16.8782C46.4322 16.8845 46.3649 16.8887 46.298 16.8908L46.2313 16.8921C45.3655 16.9007 44.5746 16.5485 43.8838 15.7131C44.0285 15.5509 44.1445 15.0392 44.2039 13.835Z" fill="white"/>
</mask>
<g mask="url(#mask38_2436_12826)">
<path fill-rule="evenodd" clip-rule="evenodd" d="M43.8838 15.7131C44.6632 16.6556 45.57 16.9831 46.5679 16.8713L46.8238 15.838L44.2039 13.835C44.1445 15.0392 44.0285 15.5509 43.8838 15.7131Z" fill="url(#paint7_linear_2436_12826)"/>
</g>
<mask id="mask39_2436_12826" style="mask-type:luminance" maskUnits="userSpaceOnUse" x="43" y="6" width="8" height="11">
<path d="M45.9493 8.08458L43.9297 9.3711C43.9297 9.3711 43.081 11.1774 43.0726 11.9324C43.0018 12.1747 43.4893 12.3547 43.8557 13.0001C43.9433 13.1552 44.0048 12.9475 44.05 12.7393C44.1035 12.4921 44.1337 12.2447 44.1572 12.6081C44.219 13.5696 44.6435 14.4968 45.4737 15.1513C46.2355 15.7513 46.6698 16.0617 47.2799 16.2381C47.7616 16.379 48.2866 16.4436 48.723 16.2192C49.3077 15.9177 49.6015 15.1826 49.846 14.4096C49.997 13.9329 50.1615 13.6926 50.5064 13.5094C50.8513 13.3273 50.6744 12.9721 50.5136 12.5867C50.3525 12.2004 50.4287 12.0887 50.5591 11.6319C50.7118 11.1015 50.7038 10.4447 50.7038 10.4447L50.3646 8.7771L48.0809 6.81348L45.9493 8.08458Z" fill="white"/>
</mask>
<g mask="url(#mask39_2436_12826)">
<path fill-rule="evenodd" clip-rule="evenodd" d="M42.5085 16.9255H51.2617V6.25586H42.5085V16.9255Z" fill="#FAE1DB"/>
</g>
<mask id="mask40_2436_12826" style="mask-type:luminance" maskUnits="userSpaceOnUse" x="49" y="12" width="2" height="2">
<path d="M49.87 13.5225L49.8624 13.5102L49.8587 13.5044L49.8624 13.5102L49.8536 13.4956L49.8476 13.4854L49.8425 13.4761L49.8338 13.4601L49.8369 13.4655L49.8341 13.46L49.8262 13.4447L49.8242 13.4402C49.8215 13.4345 49.8188 13.4287 49.8162 13.4229L49.8162 13.4228C49.8082 13.4049 49.801 13.3866 49.7945 13.3679C49.7824 13.3329 49.7729 13.2969 49.7665 13.2602C49.7642 13.2474 49.7623 13.2345 49.7608 13.2216C49.7579 13.1965 49.7563 13.1711 49.7561 13.1455C49.756 13.1221 49.757 13.0985 49.7593 13.0747L49.7637 13.0389L49.7709 12.999C49.7802 12.9543 49.7938 12.9112 49.8112 12.8699C49.9119 12.6317 50.1397 12.4572 50.4099 12.4053L50.4183 12.4402C50.4308 12.4875 50.4487 12.5386 50.4731 12.596L50.4926 12.6402L50.5087 12.6753C50.6696 13.0257 50.8298 13.3463 50.5178 13.5224L50.485 13.5395L50.4268 13.5692C50.3325 13.6195 50.2519 13.6746 50.1811 13.738L50.1399 13.7771L50.1029 13.7544C50.0414 13.7143 49.9864 13.6669 49.9394 13.6137L49.9392 13.6137C49.9213 13.5932 49.9043 13.5718 49.8886 13.5497L49.8823 13.5409L49.8814 13.5395L49.8762 13.5319L49.8749 13.5299L49.87 13.5225Z" fill="white"/>
</mask>
<g mask="url(#mask40_2436_12826)">
<path fill-rule="evenodd" clip-rule="evenodd" d="M49.6494 13.8088H50.9535V12.3936H49.6494V13.8088Z" fill="url(#paint8_linear_2436_12826)"/>
</g>
<mask id="mask41_2436_12826" style="mask-type:luminance" maskUnits="userSpaceOnUse" x="49" y="12" width="2" height="2">
<path d="M50.4099 12.4053L50.4183 12.4402C50.4339 12.4994 50.458 12.5644 50.4926 12.6402L50.5087 12.6753C50.675 13.0374 50.8404 13.3676 50.485 13.5395L50.4268 13.5692C50.3137 13.6295 50.2201 13.6968 50.1399 13.7771L50.1029 13.7544C50.0414 13.7143 49.9864 13.6669 49.9394 13.6137L49.9392 13.6137C49.9213 13.5932 49.9043 13.5718 49.8886 13.5497L49.8929 13.5559C49.8857 13.5459 49.8788 13.5358 49.8721 13.5256L49.8886 13.5497C49.8802 13.5379 49.8723 13.5259 49.8646 13.5137L49.8721 13.5256C49.8655 13.5154 49.8591 13.5051 49.853 13.4946L49.8646 13.5137C49.8571 13.5017 49.8499 13.4895 49.8431 13.4771L49.853 13.4946C49.8458 13.4824 49.839 13.47 49.8326 13.4573L49.8431 13.4771C49.8369 13.4658 49.831 13.4543 49.8255 13.4428L49.8326 13.4573C49.8269 13.446 49.8214 13.4345 49.8162 13.4229L49.8162 13.4228C49.8082 13.4049 49.801 13.3866 49.7945 13.3679C49.7824 13.3329 49.7729 13.2969 49.7665 13.2602C49.7642 13.2474 49.7623 13.2345 49.7608 13.2216C49.7579 13.1965 49.7563 13.1711 49.7561 13.1455C49.7559 13.1104 49.7584 13.0748 49.7637 13.0389L49.7709 12.999C49.7802 12.9542 49.7938 12.9111 49.8112 12.8699C49.9119 12.6317 50.1397 12.4572 50.4099 12.4053Z" fill="white"/>
</mask>
<g mask="url(#mask41_2436_12826)">
<path fill-rule="evenodd" clip-rule="evenodd" d="M50.4922 12.3936C50.1239 12.4292 49.8159 12.6896 49.7638 13.0393C49.7155 13.3622 49.8995 13.6653 50.1984 13.8088H50.9534V12.4705C50.874 12.4338 50.7866 12.4086 50.6937 12.397C50.6838 12.3956 50.674 12.3946 50.6642 12.3936H50.4922Z" fill="url(#paint9_linear_2436_12826)"/>
</g>
<mask id="mask42_2436_12826" style="mask-type:luminance" maskUnits="userSpaceOnUse" x="44" y="10" width="3" height="3">
<path d="M45.2471 10.3506L45.2959 10.3517C45.5321 10.3624 45.7577 10.4504 45.9311 10.6056C45.9923 10.6602 46.0469 10.7232 46.0933 10.7941L46.1265 10.8487L46.1487 10.8907C46.3806 11.3554 46.2001 11.9338 45.7336 12.2239L45.6904 12.2495L45.6461 12.2731C45.4975 12.3483 45.3398 12.3873 45.1846 12.3928L45.1381 12.3935C44.7987 12.3912 44.4764 12.2293 44.2921 11.9374L44.2667 11.8948L44.2445 11.853C44.0058 11.3755 44.2044 10.7748 44.703 10.4943C44.8763 10.3967 45.064 10.3506 45.2471 10.3506Z" fill="white"/>
</mask>
<g mask="url(#mask42_2436_12826)">
<path fill-rule="evenodd" clip-rule="evenodd" d="M43.9478 12.5673H46.4879V10.1426H43.9478V12.5673Z" fill="url(#paint10_linear_2436_12826)"/>
</g>
<mask id="mask43_2436_12826" style="mask-type:luminance" maskUnits="userSpaceOnUse" x="44" y="10" width="3" height="3">
<path d="M45.2471 10.3506L45.2959 10.3517C45.5321 10.3624 45.7577 10.4504 45.9311 10.6056C46.0075 10.6739 46.0738 10.7553 46.1265 10.8487L46.1487 10.8907C46.3876 11.3695 46.1888 11.969 45.6904 12.2495L45.6461 12.2731C45.4975 12.3483 45.3398 12.3873 45.1846 12.3928L45.1381 12.3935C44.7825 12.3911 44.4457 12.2135 44.2667 11.8948L44.2445 11.853C44.0058 11.3755 44.2044 10.7748 44.703 10.4943C44.8763 10.3967 45.064 10.3506 45.2471 10.3506Z" fill="white"/>
</mask>
<g mask="url(#mask43_2436_12826)">
<path fill-rule="evenodd" clip-rule="evenodd" d="M44.703 10.4943C44.1898 10.783 43.9944 11.4111 44.2667 11.8948C44.5391 12.3798 45.1769 12.538 45.6904 12.2495C46.2034 11.9607 46.3991 11.3339 46.1265 10.8487C45.9462 10.5285 45.6056 10.3506 45.2471 10.3506C45.064 10.3506 44.8763 10.3967 44.703 10.4943Z" fill="url(#paint11_linear_2436_12826)"/>
</g>
<mask id="mask44_2436_12826" style="mask-type:luminance" maskUnits="userSpaceOnUse" x="48" y="14" width="2" height="2">
<path d="M48.8088 14.3206C48.8098 14.4708 48.9285 14.8703 48.9856 15.0064C49.0897 15.2556 49.2906 15.4076 49.5279 15.4675C49.6636 15.1991 49.7733 14.895 49.8733 14.5828C49.6831 14.5411 49.495 14.4968 49.3256 14.4531C49.205 14.4219 48.9462 14.293 48.8479 14.293C48.8233 14.293 48.8088 14.301 48.8088 14.3206Z" fill="white"/>
</mask>
<g mask="url(#mask44_2436_12826)">
<path fill-rule="evenodd" clip-rule="evenodd" d="M48.2649 16.0416H51.4174V13.749H48.2649V16.0416Z" fill="#CD7778"/>
</g>
<path fill-rule="evenodd" clip-rule="evenodd" d="M49.0995 11.1259C48.6313 11.1879 48.2941 11.6293 48.3477 12.1096C48.3734 12.3395 48.4844 12.5446 48.6603 12.6871C48.8393 12.8321 49.064 12.8952 49.2919 12.8651C49.7601 12.803 50.0974 12.3616 50.0437 11.8813C50.018 11.6512 49.9071 11.4463 49.7309 11.3036C49.5519 11.1588 49.3275 11.0957 49.0995 11.1259ZM49.1801 13.0456C48.954 13.0456 48.7366 12.9688 48.5569 12.8234C48.3457 12.6522 48.2123 12.4058 48.1812 12.1294C48.1173 11.5556 48.5197 11.0283 49.0782 10.9541C49.3513 10.9181 49.6195 10.9936 49.8341 11.1673C50.0458 11.3385 50.1792 11.5851 50.21 11.8613C50.2741 12.4354 49.8719 12.9626 49.3133 13.0368C49.2687 13.0426 49.2241 13.0456 49.1801 13.0456Z" fill="#483F3F"/>
<path fill-rule="evenodd" clip-rule="evenodd" d="M48.1314 11.8406C48.0653 11.8406 47.9697 11.807 47.8238 11.7471C47.804 11.739 47.7884 11.7324 47.7796 11.7292C47.2842 11.5617 46.8588 11.4062 46.48 11.2549C46.4434 11.2404 46.302 11.187 46.1781 11.1403C46.0934 11.1084 46.0342 11.0858 45.9933 11.068C45.9882 11.0671 45.9833 11.0658 45.9783 11.0643L45.9791 11.0616C45.8982 11.0242 45.9043 11.0061 45.9228 10.9521C45.9378 10.9072 45.9892 10.8849 46.0326 10.9004C46.0359 10.9015 46.0385 10.9028 46.0414 10.904C46.0675 10.9142 46.1473 10.9442 46.2354 10.9774C46.3606 11.0248 46.5028 11.0784 46.54 11.0931C46.9166 11.2434 47.3391 11.3979 47.8326 11.5651C47.8441 11.5691 47.8624 11.5765 47.8856 11.5861C48.012 11.638 48.0924 11.6654 48.1253 11.6671C48.1577 11.6514 48.1974 11.6584 48.2227 11.6869C48.2541 11.7222 48.2517 11.777 48.2176 11.8094C48.1952 11.8306 48.1678 11.8406 48.1314 11.8406Z" fill="#483F3F"/>
<mask id="mask45_2436_12826" style="mask-type:luminance" maskUnits="userSpaceOnUse" x="49" y="11" width="1" height="2">
<path d="M49.3059 11.9343C49.1673 11.9522 49.0689 12.0923 49.0868 12.2447C49.1047 12.3983 49.2315 12.5089 49.3704 12.4908C49.5093 12.4727 49.6074 12.3338 49.5895 12.1802C49.5731 12.0374 49.4619 11.9326 49.3344 11.9326C49.3251 11.9326 49.3155 11.933 49.3059 11.9343Z" fill="white"/>
</mask>
<g mask="url(#mask45_2436_12826)">
<path fill-rule="evenodd" clip-rule="evenodd" d="M48.5203 13.0583H50.156V11.3691H48.5203V13.0583Z" fill="#343535"/>
</g>
<path fill-rule="evenodd" clip-rule="evenodd" d="M50.2891 10.9912C50.2841 10.9912 50.2788 10.9908 50.2739 10.9897C50.2706 10.989 50.028 10.8982 49.9143 10.8066C49.7237 10.7503 49.4875 10.714 49.2652 10.7069C49.2465 10.7063 49.2253 10.7046 49.2039 10.7024C49.1832 10.7005 49.1509 10.6971 49.1316 10.6983C49.119 10.7314 49.0904 10.7544 49.0512 10.7535C49.0049 10.7522 48.9685 10.7117 48.9698 10.6636C48.9714 10.6129 48.994 10.5813 49.0131 10.5639C49.0672 10.5139 49.148 10.5216 49.2191 10.5283C49.2368 10.53 49.2543 10.5317 49.2697 10.5322C49.5097 10.5397 49.7549 10.5775 49.9616 10.6387C49.9628 10.6389 49.9638 10.6393 49.9651 10.6397C50.0966 10.6792 50.2186 10.7529 50.3306 10.8265C50.3649 10.8491 50.3826 10.8969 50.3676 10.9362C50.3547 10.9697 50.323 10.9912 50.2891 10.9912Z" fill="#483F3F"/>
<mask id="mask46_2436_12826" style="mask-type:luminance" maskUnits="userSpaceOnUse" x="42" y="5" width="10" height="10">
<path d="M43.2646 7.0886C42.2097 7.78308 42.384 9.14019 42.0751 10.1245C41.6767 11.3946 42.995 12.3277 43.1672 13.0175C43.216 13.2117 43.5007 13.7989 43.6506 14.0098C43.9188 14.3859 44.1233 14.3569 44.4043 14.3927C44.799 14.4416 45.0384 14.0869 45.2882 13.8213C45.6045 13.4851 45.5868 13.1024 45.551 12.6995C44.836 11.8221 44.9967 11.7853 45.1753 11.3447C45.4854 10.8066 46.2155 10.8837 46.2393 11.5332C46.2618 12.1493 46.3888 12.4917 46.7465 11.9037C47.1044 11.3155 47.073 11.3613 47.7491 10.8724C48.4248 10.3834 48.6973 9.34901 48.6973 9.34901C48.6973 9.34901 48.7546 9.5866 49.305 10.1111C49.8551 10.6358 49.8886 10.7789 50.6429 10.9719C51.2475 11.1258 51.3465 10.6726 51.4303 10.1668C51.5212 9.61784 51.3618 9.61681 51.2533 8.94494C51.1364 8.21819 50.9406 7.64908 50.6534 7.51055C50.3665 7.37223 50.1107 6.99282 49.3562 6.45043C48.6018 5.90804 47.7241 5.91688 47.7241 5.91688C47.7241 5.91688 47.6645 5.80857 46.6018 5.73828C46.4047 5.72492 46.2265 5.71875 46.064 5.71875C44.4527 5.71875 44.4008 6.34171 43.2646 7.0886Z" fill="white"/>
</mask>
<g mask="url(#mask46_2436_12826)">
<path fill-rule="evenodd" clip-rule="evenodd" d="M41.4392 14.9548H52.0186V5.16016H41.4392V14.9548Z" fill="#3F3F3F"/>
</g>
<mask id="mask47_2436_12826" style="mask-type:luminance" maskUnits="userSpaceOnUse" x="42" y="5" width="6" height="10">
<path d="M43.2602 7.09845C42.209 7.79683 42.3827 9.16155 42.0749 10.1514C41.6778 11.4287 42.9915 12.367 43.1631 13.0606C43.2118 13.2559 43.4955 13.8464 43.6449 14.0585C43.8173 14.3028 43.9638 14.3772 44.121 14.4088C44.8491 13.8194 45.6312 13.2332 45.2144 12.3112C45.1394 12.1998 45.0885 12.1091 45.0566 12.0311C44.9507 11.8728 44.8112 11.705 44.6326 11.5264C43.7598 10.6532 44.3827 10.1065 44.8279 9.06731C45.2731 8.02893 45.1734 6.91119 46.7284 6.63941C48.2442 6.37361 47.0792 6.57926 47.4755 5.84203C47.3154 5.80896 47.044 5.77113 46.5856 5.74054C46.3892 5.72732 46.2114 5.7207 46.0497 5.7207C44.4443 5.72091 44.3921 6.34716 43.2602 7.09845Z" fill="white"/>
</mask>
<g mask="url(#mask47_2436_12826)">
<path fill-rule="evenodd" clip-rule="evenodd" d="M40.0132 16.0226H48.1604V2.62891H40.0132V16.0226Z" fill="#343434"/>
</g>
<mask id="mask48_2436_12826" style="mask-type:luminance" maskUnits="userSpaceOnUse" x="47" y="21" width="17" height="9">
<path d="M47.2253 24.1681C47.7426 24.8061 51.1316 26.4286 51.7049 26.7523C52.2785 27.0755 57.2229 27.9655 58.5376 28.2364C59.8518 28.5075 60.4334 28.5832 61.337 29.0572C62.4453 29.6394 63.6129 28.805 63.7538 27.9889C63.8867 27.2205 63.8832 27.6745 63.8072 27.1402C63.7308 26.6073 63.5107 26.4254 63.5107 26.4254C63.5107 26.4254 63.2739 26.2067 62.9151 26.3473C62.5564 26.4878 62.3623 26.305 62.5104 26.1522C62.6584 25.9984 63.1476 25.4027 63.219 24.9934C63.2899 24.5843 62.9274 24.4505 62.9274 24.4505C62.9274 24.4505 62.2112 25.6582 61.5908 25.859C60.9702 26.0606 60.4301 26.5726 59.5682 26.5872C58.7064 26.6018 52.158 23.9052 52.158 23.9052L48.9396 21.0547C48.9396 21.0547 46.7078 23.5292 47.2253 24.1681Z" fill="white"/>
</mask>
<g mask="url(#mask48_2436_12826)">
<path fill-rule="evenodd" clip-rule="evenodd" d="M46.5896 29.8091H64.4174V20.4971H46.5896V29.8091Z" fill="#FAE1DB"/>
</g>
<mask id="mask49_2436_12826" style="mask-type:luminance" maskUnits="userSpaceOnUse" x="45" y="17" width="15" height="13">
<path d="M45.7239 18.066L45.8304 19.9904L46.3319 23.3741L51.0971 26.981L57.9355 28.9861L58.9515 29.2002C59.3938 28.4704 60.1514 27.4835 59.5132 26.3355C59.5132 26.3355 57.065 25.4483 56.596 25.37C55.4474 25.1808 54.3285 24.4257 52.7801 23.6302C51.6148 23.0317 50.1713 21.5311 49.4528 20.3374C48.4458 18.6633 47.1751 17.7615 46.36 17.7617C46.0888 17.7617 45.8677 17.8616 45.7239 18.066Z" fill="white"/>
</mask>
<g mask="url(#mask49_2436_12826)">
<path fill-rule="evenodd" clip-rule="evenodd" d="M45.1672 29.7592H60.3148V17.2021H45.1672V29.7592Z" fill="#3B3C3C"/>
</g>
<mask id="mask50_2436_12826" style="mask-type:luminance" maskUnits="userSpaceOnUse" x="35" y="14" width="14" height="24">
<path d="M42.6397 15.591C42.5484 16.0564 42.543 16.108 42.1505 16.4679C41.7579 16.8289 40.0081 17.5803 39.2706 18.4661C38.5329 19.3509 37.484 23.0881 37.4598 24.5009C37.4354 25.9139 37.0163 28.9527 36.3292 31.2949C35.7751 33.1845 35.9225 33.8607 35.9225 33.8607C35.907 34.3428 35.7304 36.0943 36.512 35.9854C37.0414 35.9128 37.4813 36.2836 37.4813 36.2836C37.4813 36.2836 41.4867 37.1405 43.1822 37.5083C45.9919 38.117 46.4238 37.0049 46.4238 37.0049C46.4238 37.0049 46.7938 36.1793 46.7223 35.2722C46.6062 33.7911 46.9606 32.8345 47.3176 31.1896C47.6745 29.546 47.8944 28.4109 47.9799 27.505C48.0652 26.5977 48.3673 22.9322 48.2128 22.2708C48.0584 21.6103 47.2675 18.8035 47.1958 18.2553C47.1244 17.7081 47.259 17.7977 47.3907 17.3606C47.523 16.923 47.4637 16.9926 47.3246 16.7514C47.1855 16.5115 46.9391 16.4902 46.9391 16.4902C47.0383 16.737 45.1232 16.6709 44.3149 15.8253C43.8085 15.2949 43.7892 15.1053 43.7892 15.1053C43.7892 15.1053 43.402 15.0428 43.0406 15.0023C43.0054 14.9982 42.9739 14.9961 42.9459 14.9961C42.6882 14.9961 42.7219 15.1722 42.6397 15.591Z" fill="white"/>
</mask>
<g mask="url(#mask50_2436_12826)">
<path fill-rule="evenodd" clip-rule="evenodd" d="M35.3328 38.2513H48.8183V14.4355H35.3328V38.2513Z" fill="#3B3C3C"/>
</g>
<mask id="mask51_2436_12826" style="mask-type:luminance" maskUnits="userSpaceOnUse" x="26" y="17" width="18" height="21">
<path d="M39.2794 18.3112L34.1622 24.6842L30.1041 34.5993L28.6039 35.3955L26.663 35.2181C26.663 35.2181 25.5124 35.4302 26.487 36.1042C27.4623 36.7769 27.4905 37.2159 28.8691 37.0778C29.2867 37.0358 29.6469 37.055 29.9602 37.0747C30.6814 37.1193 31.1554 37.164 31.5156 36.4578C32.0321 35.4449 35.3456 27.4501 36.6323 26.3665C37.9191 25.2827 41.1073 22.6899 42.0143 21.6745C42.9214 20.6606 44.6697 18.775 42.8076 17.8678C42.3396 17.6399 41.8837 17.5547 41.4638 17.5547C40.213 17.5545 39.2794 18.3112 39.2794 18.3112Z" fill="white"/>
</mask>
<g mask="url(#mask51_2436_12826)">
<path fill-rule="evenodd" clip-rule="evenodd" d="M25.5356 37.6646H44.1917V16.9932H25.5356V37.6646Z" fill="#FAE1DB"/>
</g>
<mask id="mask52_2436_12826" style="mask-type:luminance" maskUnits="userSpaceOnUse" x="30" y="17" width="16" height="18">
<path d="M37.5729 19.3022C35.9481 20.9174 32.0021 26.7861 31.3209 29.5654C30.64 32.3432 30.4404 33.7226 30.4404 33.7226C30.4404 33.7226 30.8404 34.2513 32.3282 34.6597C33.816 35.0696 35.0433 27.6807 37.4853 26.3798C39.9275 25.0792 42.1966 24.3024 43.2092 22.1329C44.222 19.9634 46.2142 19.0711 44.2658 18.1518C42.3176 17.2327 41.0962 17.0898 41.0962 17.0898C41.0962 17.0898 39.1982 17.6859 37.5729 19.3022Z" fill="white"/>
</mask>
<g mask="url(#mask52_2436_12826)">
<path fill-rule="evenodd" clip-rule="evenodd" d="M29.8818 35.237H45.6472V16.5283H29.8818V35.237Z" fill="#3B3C3C"/>
</g>
<mask id="mask53_2436_12826" style="mask-type:luminance" maskUnits="userSpaceOnUse" x="61" y="24" width="6" height="8">
<path d="M64.1458 24.1162L64.1788 24.1181C64.2118 24.1218 64.2447 24.1312 64.2764 24.1465L66.7569 25.3449L66.7822 25.3588C66.9127 25.4383 66.964 25.6038 66.8959 25.7433L64.3817 30.8913L64.3678 30.9165C64.3179 30.9974 64.234 31.0474 64.144 31.0571L64.1168 31.0589C64.0713 31.0596 64.0249 31.0501 63.9812 31.0292L61.5003 29.8294L61.4749 29.8158C61.3447 29.7373 61.2936 29.5705 61.3618 29.4311L63.8759 24.2845C63.9282 24.1783 64.0347 24.1162 64.1458 24.1162Z" fill="white"/>
</mask>
<g mask="url(#mask53_2436_12826)">
<path fill-rule="evenodd" clip-rule="evenodd" d="M63.8759 24.2845L61.3618 29.431C61.2893 29.5792 61.3515 29.7583 61.5003 29.8294L63.9812 31.0292C64.1299 31.1003 64.309 31.0393 64.3817 30.8913L66.8959 25.7433C66.9683 25.5951 66.9058 25.4175 66.7569 25.3449L64.2764 24.1465C64.2342 24.126 64.1897 24.1162 64.1458 24.1162C64.0347 24.1162 63.9282 24.1783 63.8759 24.2845Z" fill="url(#paint12_radial_2436_12826)"/>
</g>
<mask id="mask54_2436_12826" style="mask-type:luminance" maskUnits="userSpaceOnUse" x="61" y="24" width="6" height="8">
<path d="M64.1159 24.1123L64.1488 24.1141C64.1817 24.1178 64.2146 24.1271 64.2461 24.1422L66.7088 25.3414L66.734 25.3551C66.8634 25.4339 66.914 25.6 66.8465 25.7391L64.3302 30.9266L64.3165 30.9518C64.2673 31.0328 64.1841 31.0829 64.0947 31.0927L64.0677 31.0944C64.0225 31.0951 63.9764 31.0856 63.9329 31.0645L61.4694 29.8655L61.4442 29.8517C61.3149 29.7728 61.2643 29.6067 61.3315 29.4676L63.8478 24.2801C63.8994 24.174 64.0053 24.1123 64.1159 24.1123Z" fill="white"/>
</mask>
<g mask="url(#mask54_2436_12826)">
<path fill-rule="evenodd" clip-rule="evenodd" d="M63.8478 24.2801L61.3315 29.4676C61.26 29.6154 61.3217 29.7937 61.4694 29.8655L63.9329 31.0645C64.0807 31.1363 64.2587 31.0746 64.3302 30.9266L66.8465 25.7391C66.9182 25.5913 66.8566 25.413 66.7088 25.3414L64.2461 24.1422C64.2041 24.122 64.1596 24.1123 64.1159 24.1123C64.0053 24.1123 63.8994 24.174 63.8478 24.2801Z" fill="url(#paint13_radial_2436_12826)"/>
</g>
<mask id="mask55_2436_12826" style="mask-type:luminance" maskUnits="userSpaceOnUse" x="61" y="24" width="6" height="7">
<path d="M61.8167 28.9768L64.5068 30.2975L66.7524 25.6293L64.0621 24.3086L61.8167 28.9768Z" fill="white"/>
</mask>
<g mask="url(#mask55_2436_12826)">
<path fill-rule="evenodd" clip-rule="evenodd" d="M61.2578 30.8621H67.3114V23.7441H61.2578V30.8621Z" fill="white"/>
</g>
<mask id="mask56_2436_12826" style="mask-type:luminance" maskUnits="userSpaceOnUse" x="62" y="24" width="5" height="6">
<path d="M64.0729 24.8435L63.343 26.3654L62.6122 27.8895C62.5964 27.9248 62.6073 27.9652 62.6368 27.9797L64.7448 29.0171C64.7748 29.0316 64.814 29.0148 64.8306 28.9788L65.5609 27.4569L66.2921 25.933C66.3073 25.8975 66.296 25.858 66.2667 25.8426L64.1589 24.805C64.1515 24.8015 64.1435 24.7998 64.1357 24.7998C64.1111 24.7998 64.0856 24.8162 64.0729 24.8435Z" fill="white"/>
</mask>
<g mask="url(#mask56_2436_12826)">
<path fill-rule="evenodd" clip-rule="evenodd" d="M61.9172 29.7242H66.9864V24.0986H61.9172V29.7242Z" fill="white"/>
</g>
<mask id="mask57_2436_12826" style="mask-type:luminance" maskUnits="userSpaceOnUse" x="64" y="25" width="1" height="1">
<path d="M64.2044 25.3533C64.1852 25.3992 64.1975 25.4513 64.2314 25.4705L64.4966 25.615C64.5318 25.6342 64.5759 25.6125 64.595 25.568C64.6151 25.5222 64.6029 25.4705 64.5677 25.4513L64.3025 25.3051C64.2944 25.3009 64.2854 25.2988 64.2765 25.2988C64.2486 25.2988 64.2197 25.3189 64.2044 25.3533Z" fill="white"/>
</mask>
<g mask="url(#mask57_2436_12826)">
<path fill-rule="evenodd" clip-rule="evenodd" d="M63.4956 26.4157H65.3053V24.5068H63.4956V26.4157Z" fill="#D7D7D8"/>
</g>
<mask id="mask58_2436_12826" style="mask-type:luminance" maskUnits="userSpaceOnUse" x="63" y="25" width="3" height="2">
<path d="M63.9723 25.5199C63.9595 25.545 63.9669 25.5748 63.99 25.5844L65.0131 26.0679C65.0348 26.0786 65.0633 26.0669 65.0763 26.0414C65.0883 26.0163 65.0807 25.9876 65.059 25.9769L64.0357 25.4934C64.0299 25.4906 64.0238 25.4893 64.0176 25.4893C63.9996 25.4893 63.9813 25.5008 63.9723 25.5199Z" fill="white"/>
</mask>
<g mask="url(#mask58_2436_12826)">
<path fill-rule="evenodd" clip-rule="evenodd" d="M63.2998 26.7241H65.7491V24.8369H63.2998V26.7241Z" fill="#EEEEEE"/>
</g>
<mask id="mask59_2436_12826" style="mask-type:luminance" maskUnits="userSpaceOnUse" x="63" y="26" width="3" height="2">
<path d="M63.7805 26.0297L65.8108 27.0419L65.8165 27.029L63.7869 26.0166L63.7805 26.0297Z" fill="white"/>
</mask>
<g mask="url(#mask59_2436_12826)">
<path fill-rule="evenodd" clip-rule="evenodd" d="M63.0916 27.7552H66.5057V25.3027H63.0916V27.7552Z" fill="#EEEEEE"/>
</g>
<mask id="mask60_2436_12826" style="mask-type:luminance" maskUnits="userSpaceOnUse" x="63" y="26" width="3" height="2">
<path d="M63.5508 26.647L65.4859 27.6112L65.4914 27.599L63.5569 26.6348L63.5508 26.647Z" fill="white"/>
</mask>
<g mask="url(#mask60_2436_12826)">
<path fill-rule="evenodd" clip-rule="evenodd" d="M62.8938 28.2909H66.1487V25.9551H62.8938V28.2909Z" fill="#EEEEEE"/>
</g>
<mask id="mask61_2436_12826" style="mask-type:luminance" maskUnits="userSpaceOnUse" x="63" y="27" width="3" height="2">
<path d="M63.1719 27.2176L65.107 28.1818L65.1125 28.1693L63.178 27.2051L63.1719 27.2176Z" fill="white"/>
</mask>
<g mask="url(#mask61_2436_12826)">
<path fill-rule="evenodd" clip-rule="evenodd" d="M62.5151 28.8601H65.77V26.5244H62.5151V28.8601Z" fill="#EEEEEE"/>
</g>
<mask id="mask62_2436_12826" style="mask-type:luminance" maskUnits="userSpaceOnUse" x="62" y="27" width="3" height="2">
<path d="M62.8347 27.8102L64.8641 28.7744L64.8699 28.7609L62.8411 27.7969L62.8347 27.8102Z" fill="white"/>
</mask>
<g mask="url(#mask62_2436_12826)">
<path fill-rule="evenodd" clip-rule="evenodd" d="M62.1458 29.4541H65.5595V27.1172H62.1458V29.4541Z" fill="#EEEEEE"/>
</g>
<mask id="mask63_2436_12826" style="mask-type:luminance" maskUnits="userSpaceOnUse" x="63" y="26" width="1" height="2">
<path d="M63.6681 26.7965L63.1934 27.8384L63.299 27.8939L63.7738 26.8507C63.7821 26.8328 63.7769 26.8125 63.7625 26.8056L63.7089 26.7773C63.7054 26.7755 63.7017 26.7744 63.698 26.7744C63.6861 26.7744 63.6742 26.7831 63.6681 26.7965Z" fill="white"/>
</mask>
<g mask="url(#mask63_2436_12826)">
<path fill-rule="evenodd" clip-rule="evenodd" d="M62.5618 28.5733H64.4201V26.084H62.5618V28.5733Z" fill="#C8E2F6"/>
</g>
<mask id="mask64_2436_12826" style="mask-type:luminance" maskUnits="userSpaceOnUse" x="63" y="26" width="1" height="2">
<path d="M63.4912 26.9067L63.0708 27.7726L63.1835 27.8267L63.6038 26.962C63.6126 26.9437 63.6072 26.9236 63.5918 26.9157L63.5348 26.8887C63.5311 26.8868 63.5269 26.8857 63.5228 26.8857C63.5105 26.8857 63.4978 26.8941 63.4912 26.9067Z" fill="white"/>
</mask>
<g mask="url(#mask64_2436_12826)">
<path fill-rule="evenodd" clip-rule="evenodd" d="M62.397 28.5063H64.2936V26.1943H62.397V28.5063Z" fill="#A1D7E3"/>
</g>
<mask id="mask65_2436_12826" style="mask-type:luminance" maskUnits="userSpaceOnUse" x="63" y="26" width="2" height="3">
<path d="M64.0707 26.7707L63.5042 28.0549L63.6098 28.1106L64.1765 26.8277C64.1849 26.8091 64.1795 26.788 64.1647 26.7801L64.1116 26.752C64.1079 26.7499 64.1039 26.749 64.0998 26.749C64.0885 26.749 64.0768 26.757 64.0707 26.7707Z" fill="white"/>
</mask>
<g mask="url(#mask65_2436_12826)">
<path fill-rule="evenodd" clip-rule="evenodd" d="M62.8723 28.8116H64.823V26.0361H62.8723V28.8116Z" fill="#A1D7E3"/>
</g>
<mask id="mask66_2436_12826" style="mask-type:luminance" maskUnits="userSpaceOnUse" x="63" y="26" width="2" height="3">
<path d="M64.5354 26.9244L63.8362 28.2458L63.9549 28.2982L64.6541 26.9767C64.6633 26.9593 64.6576 26.9396 64.641 26.932L64.5818 26.9059C64.5777 26.9041 64.5731 26.9033 64.5687 26.9033C64.5557 26.9033 64.5426 26.9111 64.5354 26.9244Z" fill="white"/>
</mask>
<g mask="url(#mask66_2436_12826)">
<path fill-rule="evenodd" clip-rule="evenodd" d="M63.1287 28.9537H65.3783V26.2363H63.1287V28.9537Z" fill="#A1D7E3"/>
</g>
<mask id="mask67_2436_12826" style="mask-type:luminance" maskUnits="userSpaceOnUse" x="64" y="26" width="2" height="3">
<path d="M64.8776 26.8313L64.1143 28.3751L64.2328 28.4311L64.9961 26.8873C65.0055 26.8684 64.9998 26.8476 64.9833 26.8395L64.9239 26.8114C64.9197 26.8095 64.9156 26.8086 64.9112 26.8086C64.8981 26.8086 64.8848 26.8172 64.8776 26.8313Z" fill="white"/>
</mask>
<g mask="url(#mask67_2436_12826)">
<path fill-rule="evenodd" clip-rule="evenodd" d="M63.4065 29.1331H65.7205V26.0967H63.4065V29.1331Z" fill="#A1D7E3"/>
</g>
<mask id="mask68_2436_12826" style="mask-type:luminance" maskUnits="userSpaceOnUse" x="64" y="26" width="2" height="3">
<path d="M65.3806 26.8027L64.5293 28.5088L64.6422 28.5629L65.4935 26.8556C65.5014 26.838 65.4958 26.8181 65.4812 26.8104L65.4234 26.7841C65.4199 26.7823 65.416 26.7812 65.4118 26.7812C65.3995 26.7812 65.3864 26.7896 65.3806 26.8027Z" fill="white"/>
</mask>
<g mask="url(#mask68_2436_12826)">
<path fill-rule="evenodd" clip-rule="evenodd" d="M63.8564 29.2256H66.1821V26.1084H63.8564V29.2256Z" fill="#A1D7E3"/>
</g>
<mask id="mask69_2436_12826" style="mask-type:luminance" maskUnits="userSpaceOnUse" x="63" y="26" width="2" height="3">
<path d="M64.1811 26.735L63.4941 28.1229L63.6125 28.1797L64.2998 26.792C64.3079 26.7736 64.302 26.7515 64.2863 26.7444L64.2261 26.7152C64.2223 26.7135 64.2184 26.7129 64.2143 26.7129C64.2014 26.7129 64.1874 26.721 64.1811 26.735Z" fill="white"/>
</mask>
<g mask="url(#mask69_2436_12826)">
<path fill-rule="evenodd" clip-rule="evenodd" d="M62.7866 28.8805H65.0227V26H62.7866V28.8805Z" fill="#C8E2F6"/>
</g>
<mask id="mask70_2436_12826" style="mask-type:luminance" maskUnits="userSpaceOnUse" x="63" y="26" width="2" height="3">
<path d="M64.6547 26.8101L63.916 28.2564L64.0343 28.3117L64.773 26.8642C64.7813 26.8463 64.7769 26.8259 64.7601 26.818L64.6997 26.791C64.6957 26.7889 64.6916 26.7881 64.6872 26.7881C64.6746 26.7881 64.6608 26.7966 64.6547 26.8101Z" fill="white"/>
</mask>
<g mask="url(#mask70_2436_12826)">
<path fill-rule="evenodd" clip-rule="evenodd" d="M63.2087 28.9913H65.4962V26.0977H63.2087V28.9913Z" fill="#C8E2F6"/>
</g>
<mask id="mask71_2436_12826" style="mask-type:luminance" maskUnits="userSpaceOnUse" x="64" y="26" width="2" height="3">
<path d="M65.1582 26.8054L64.3501 28.3916L64.4684 28.4469L65.2772 26.8607C65.2865 26.8426 65.2804 26.8222 65.2638 26.8145L65.2047 26.7873C65.2003 26.7852 65.1955 26.7842 65.1912 26.7842C65.1781 26.7842 65.1654 26.7921 65.1582 26.8054Z" fill="white"/>
</mask>
<g mask="url(#mask71_2436_12826)">
<path fill-rule="evenodd" clip-rule="evenodd" d="M63.6421 29.1263H66.0011V26.0928H63.6421V29.1263Z" fill="#C8E2F6"/>
</g>
<mask id="mask72_2436_12826" style="mask-type:luminance" maskUnits="userSpaceOnUse" x="64" y="26" width="2" height="3">
<path d="M65.6864 26.7376L64.7688 28.6692L64.8817 28.7258L65.7993 26.7929C65.8083 26.7744 65.8026 26.7535 65.7881 26.7455L65.7305 26.7178C65.7266 26.7159 65.7224 26.7148 65.7182 26.7148C65.7058 26.7148 65.6933 26.7238 65.6864 26.7376Z" fill="white"/>
</mask>
<g mask="url(#mask72_2436_12826)">
<path fill-rule="evenodd" clip-rule="evenodd" d="M64.0947 29.4206H66.4892V26.0088H64.0947V29.4206Z" fill="#C8E2F6"/>
</g>
<mask id="mask73_2436_12826" style="mask-type:luminance" maskUnits="userSpaceOnUse" x="63" y="27" width="1" height="2">
<path d="M63.0483 27.9844L63.2259 28.0707L63.2537 28.0152L63.0759 27.9287L63.0483 27.9844Z" fill="white"/>
</mask>
<g mask="url(#mask73_2436_12826)">
<path fill-rule="evenodd" clip-rule="evenodd" d="M62.2905 28.8346H64.0116V27.1621H62.2905V28.8346Z" fill="#E6E6E5"/>
</g>
<mask id="mask74_2436_12826" style="mask-type:luminance" maskUnits="userSpaceOnUse" x="63" y="28" width="1" height="1">
<path d="M63.4019 28.1157L63.5791 28.202L63.6067 28.1449L63.4292 28.0596L63.4019 28.1157Z" fill="white"/>
</mask>
<g mask="url(#mask74_2436_12826)">
<path fill-rule="evenodd" clip-rule="evenodd" d="M62.6433 28.9666H64.3646V27.2939H62.6433V28.9666Z" fill="#E6E6E5"/>
</g>
<mask id="mask75_2436_12826" style="mask-type:luminance" maskUnits="userSpaceOnUse" x="63" y="28" width="2" height="1">
<path d="M63.8201 28.3196L63.998 28.4059L64.0247 28.35L63.8479 28.2637L63.8201 28.3196Z" fill="white"/>
</mask>
<g mask="url(#mask75_2436_12826)">
<path fill-rule="evenodd" clip-rule="evenodd" d="M63.0618 29.1717H64.7829V27.499H63.0618V29.1717Z" fill="#E6E6E5"/>
</g>
<mask id="mask76_2436_12826" style="mask-type:luminance" maskUnits="userSpaceOnUse" x="64" y="28" width="1" height="1">
<path d="M64.0952 28.4504L64.2732 28.5367L64.301 28.4808L64.1233 28.3945L64.0952 28.4504Z" fill="white"/>
</mask>
<g mask="url(#mask76_2436_12826)">
<path fill-rule="evenodd" clip-rule="evenodd" d="M63.3369 29.3023H65.059V27.6299H63.3369V29.3023Z" fill="#E6E6E5"/>
</g>
<mask id="mask77_2436_12826" style="mask-type:luminance" maskUnits="userSpaceOnUse" x="64" y="28" width="1" height="1">
<path d="M64.5144 28.7319L64.6922 28.8184L64.7202 28.7611L64.5425 28.6748L64.5144 28.7319Z" fill="white"/>
</mask>
<g mask="url(#mask77_2436_12826)">
<path fill-rule="evenodd" clip-rule="evenodd" d="M63.7561 29.5836H65.477V27.9111H63.7561V29.5836Z" fill="#E6E6E5"/>
</g>
<path fill-rule="evenodd" clip-rule="evenodd" d="M47.3007 23.3086C47.2937 23.3086 47.2866 23.3084 47.2794 23.308C45.93 23.2412 42.6288 16.5434 42.4249 16.0544C42.4137 16.0271 42.4266 15.9959 42.4537 15.9845C42.4809 15.9733 42.5124 15.9862 42.5236 16.0135C42.853 16.8037 46.0837 23.1418 47.2847 23.2012C47.4037 23.2072 47.4949 23.1464 47.5655 23.015C47.9783 22.2489 47.6932 20.8557 47.391 19.3807C47.2889 18.8813 47.1832 18.3655 47.1065 17.8738C47.102 17.8446 47.1219 17.8173 47.1509 17.8127C47.1795 17.8082 47.2075 17.8283 47.212 17.8574C47.2885 18.3464 47.3937 18.8613 47.4957 19.3591C47.8017 20.8536 48.0908 22.2653 47.6594 23.0657C47.5726 23.2269 47.452 23.3086 47.3007 23.3086Z" fill="#ECBCBC"/>
<mask id="mask78_2436_12826" style="mask-type:luminance" maskUnits="userSpaceOnUse" x="46" y="22" width="3" height="5">
<path d="M46.1519 22.9551H48.2525V26.0114H46.1519V22.9551Z" fill="white"/>
</mask>
<g mask="url(#mask78_2436_12826)">
<path fill-rule="evenodd" clip-rule="evenodd" d="M45.5745 26.5662H48.8298V22.3984H45.5745V26.5662Z" fill="#FCEFED"/>
</g>
<path fill-rule="evenodd" clip-rule="evenodd" d="M46.2068 25.9589H48.1978V23.0079H46.2068V25.9589ZM48.2526 26.0643H46.1518C46.1218 26.0643 46.0969 26.0407 46.0969 26.0117V22.9551C46.0969 22.9259 46.1218 22.9023 46.1518 22.9023H48.2526C48.283 22.9023 48.3075 22.9259 48.3075 22.9551V26.0117C48.3075 26.0407 48.283 26.0643 48.2526 26.0643Z" fill="#ECBCBC"/>
<path fill-rule="evenodd" clip-rule="evenodd" d="M47.659 23.7941C47.659 24.009 47.478 24.1829 47.255 24.1829C47.0318 24.1829 46.8508 24.009 46.8508 23.7941C46.8508 23.5792 47.0318 23.4053 47.255 23.4053C47.478 23.4053 47.659 23.5792 47.659 23.7941Z" fill="#C3AFAE"/>
<path fill-rule="evenodd" clip-rule="evenodd" d="M46.6196 24.8492H47.7743V24.627H46.6196V24.8492Z" fill="#C3AFAE"/>
<path fill-rule="evenodd" clip-rule="evenodd" d="M46.3889 25.2945H48.0054V25.0723H46.3889V25.2945Z" fill="#C3AFAE"/>
<mask id="mask79_2436_12826" style="mask-type:luminance" maskUnits="userSpaceOnUse" x="59" y="58" width="10" height="9">
<path d="M59.7893 58.8766V58.8769L61.4073 66.1041C63.4223 66.7913 65.439 66.8151 67.458 66.0969L68.7711 58.7529C65.7094 59.7423 62.7225 59.6853 59.7893 58.8766Z" fill="white"/>
</mask>
<g mask="url(#mask79_2436_12826)">
<path fill-rule="evenodd" clip-rule="evenodd" d="M59.7893 58.8766V58.8769L61.4073 66.1041C63.4223 66.7913 65.439 66.8151 67.458 66.0969L68.7711 58.7529C65.7094 59.7423 62.7225 59.6853 59.7893 58.8766Z" fill="url(#paint14_linear_2436_12826)"/>
</g>
<path fill-rule="evenodd" clip-rule="evenodd" d="M64.3458 58.2588C66.7982 58.2588 68.7894 58.5382 68.7894 58.8824C68.7894 59.2267 66.7982 59.5061 64.3458 59.5061C61.8934 59.5061 59.9021 59.2267 59.9021 58.8824C59.9021 58.5382 61.8934 58.2588 64.3458 58.2588Z" fill="#F3A789"/>
<mask id="mask80_2436_12826" style="mask-type:luminance" maskUnits="userSpaceOnUse" x="57" y="45" width="8" height="15">
<path d="M58.7599 45.4854C58.712 45.4854 58.6643 45.4867 58.6173 45.4894C56.4209 45.6183 56.9504 48.5063 57.4067 49.7392C57.9607 51.2357 59.434 53.505 61.5697 53.0498C61.0859 52.3064 60.5629 51.5195 60.0946 50.7985C59.9922 50.643 59.8826 50.4541 59.783 50.2765C59.7042 50.136 59.3333 49.3998 59.7418 49.7637C59.9589 49.9568 60.1157 50.4567 60.2746 50.7184C60.3752 50.8844 60.5196 51.1359 60.5882 51.2415C61.8353 53.289 63.7685 54.8685 64.1397 57.2924C64.2361 57.9206 64.1532 58.463 64.06 59.0835C64.0454 59.1808 63.9238 59.4827 64.1768 59.4391C64.4034 59.3999 64.4382 58.874 64.4642 58.7271C64.6682 57.5718 64.3464 56.3434 63.8456 55.2951C63.4978 54.5671 63.0015 53.9442 62.4491 53.3374C62.1672 53.028 62.0908 53.058 62.2385 52.6841C62.36 52.3764 62.413 51.9355 62.3312 51.623C62.2031 51.1328 61.6922 50.7464 61.4491 50.2889C61.1963 49.8131 61.0128 49.3106 60.9294 48.7862C60.8251 48.1302 60.8553 47.4734 60.7906 46.8159C60.7061 45.9565 59.6652 45.4854 58.7601 45.4854C58.76 45.4854 58.7601 45.4854 58.7599 45.4854Z" fill="white"/>
</mask>
<g mask="url(#mask80_2436_12826)">
<path fill-rule="evenodd" clip-rule="evenodd" d="M58.7599 45.4854C58.712 45.4854 58.6643 45.4867 58.6173 45.4894C56.4209 45.6183 56.9504 48.5063 57.4067 49.7392C57.9607 51.2357 59.434 53.505 61.5697 53.0498C61.0859 52.3064 60.5629 51.5195 60.0946 50.7985C59.9922 50.643 59.8826 50.4541 59.783 50.2765C59.7042 50.136 59.3333 49.3998 59.7418 49.7637C59.9589 49.9568 60.1157 50.4567 60.2746 50.7184C60.3752 50.8844 60.5196 51.1359 60.5882 51.2415C61.8353 53.289 63.7685 54.8685 64.1397 57.2924C64.2361 57.9206 64.1532 58.463 64.06 59.0835C64.0454 59.1808 63.9238 59.4827 64.1768 59.4391C64.4034 59.3999 64.4382 58.874 64.4642 58.7271C64.6682 57.5718 64.3464 56.3434 63.8456 55.2951C63.4978 54.5671 63.0015 53.9442 62.4491 53.3374C62.1672 53.028 62.0908 53.058 62.2385 52.6841C62.36 52.3764 62.413 51.9355 62.3312 51.623C62.2031 51.1328 61.6922 50.7464 61.4491 50.2889C61.1963 49.8131 61.0128 49.3106 60.9294 48.7862C60.8251 48.1302 60.8553 47.4734 60.7906 46.8159C60.7061 45.9565 59.6652 45.4854 58.7601 45.4854H58.7599Z" fill="url(#paint15_linear_2436_12826)"/>
</g>
<mask id="mask81_2436_12826" style="mask-type:luminance" maskUnits="userSpaceOnUse" x="64" y="39" width="12" height="21">
<path d="M71.9193 39.4526C70.357 39.576 69.354 40.6022 68.8872 42.0375C68.6355 42.811 68.6068 43.6056 68.4668 44.4006C68.2566 45.5965 67.8039 46.5029 66.9195 47.355C66.6455 47.6189 66.4436 47.8897 66.3 48.1796C66.0152 48.4691 65.7671 48.7966 65.5848 49.1968C65.3523 49.7084 65.2864 50.3218 65.5551 50.8316C65.6272 50.9687 65.8075 51.2438 65.9944 51.3689C65.2949 52.8515 64.9104 54.4756 64.9537 56.0975C64.98 57.0767 65.028 58.0561 65.084 59.034C65.0991 59.2965 65.1849 59.7299 65.314 59.2897C65.4319 58.8869 65.2838 58.2546 65.2702 57.8338C65.2035 55.7841 65.1465 53.9203 65.9942 52.0052C66.083 51.8045 66.1774 51.6053 66.2755 51.4078C66.2812 51.4046 66.2867 51.4005 66.2921 51.3966C66.2957 51.3995 66.299 51.4026 66.3029 51.4053C66.3092 51.3943 66.3177 51.3809 66.3278 51.3662C66.356 51.3373 66.3805 51.3007 66.4038 51.26C66.479 51.1562 66.5641 51.0345 66.5647 50.9676C66.5647 50.9672 66.5643 50.9663 66.5643 50.9659C67.0891 50.1131 67.6901 49.3075 68.304 48.5176C68.3022 48.5198 68.4047 48.3807 68.5234 48.2416C68.7069 48.0268 68.9292 47.8121 68.8662 48.1171C68.8162 48.3593 68.323 48.8204 68.1239 49.077C67.6832 49.6477 67.1658 50.3708 66.7359 51.0701C66.678 51.1032 66.5962 51.2658 66.5371 51.3869C66.5044 51.4481 66.474 51.51 66.444 51.5639C67.9675 52.0649 69.1527 51.0556 69.9608 49.8816C69.9621 49.8802 69.9628 49.8787 69.9638 49.8773C70.2096 49.553 70.4616 49.231 70.7762 48.9744C71.3013 48.5466 71.8636 48.471 72.4828 48.2604C74.1711 47.6863 74.8888 45.5081 75.117 43.8919C75.366 42.125 74.192 39.4445 72.12 39.4443C72.0539 39.4443 71.9872 39.4471 71.9193 39.4526Z" fill="white"/>
</mask>
<g mask="url(#mask81_2436_12826)">
<path fill-rule="evenodd" clip-rule="evenodd" d="M71.9193 39.4526C70.357 39.576 69.354 40.6022 68.8872 42.0375C68.6355 42.811 68.6068 43.6056 68.4668 44.4006C68.2566 45.5965 67.8039 46.5029 66.9195 47.355C66.6455 47.6189 66.4436 47.8897 66.3 48.1796C66.0152 48.4691 65.7671 48.7966 65.5848 49.1968C65.3523 49.7084 65.2864 50.3218 65.5551 50.8316C65.6272 50.9687 65.8075 51.2438 65.9944 51.3689C65.2949 52.8515 64.9104 54.4756 64.9537 56.0975C64.98 57.0767 65.028 58.0561 65.084 59.034C65.0991 59.2965 65.1849 59.7299 65.314 59.2897C65.4319 58.8869 65.2838 58.2546 65.2702 57.8338C65.2035 55.7841 65.1465 53.9203 65.9942 52.0052C66.083 51.8045 66.1774 51.6053 66.2755 51.4078C66.2812 51.4046 66.2867 51.4005 66.2921 51.3966C66.2957 51.3995 66.299 51.4026 66.3029 51.4053C66.3092 51.3943 66.3177 51.3809 66.3278 51.3662C66.356 51.3373 66.3805 51.3007 66.4038 51.26C66.479 51.1562 66.5641 51.0345 66.5647 50.9676C66.5647 50.9672 66.5643 50.9663 66.5643 50.9659C67.0891 50.1131 67.6901 49.3075 68.304 48.5176C68.3022 48.5198 68.4047 48.3807 68.5234 48.2416C68.7069 48.0268 68.9292 47.8121 68.8662 48.1171C68.8162 48.3593 68.323 48.8204 68.1239 49.077C67.6832 49.6477 67.1658 50.3708 66.7359 51.0701C66.678 51.1032 66.5962 51.2658 66.5371 51.3869C66.5044 51.4481 66.474 51.51 66.444 51.5639C67.9675 52.0649 69.1527 51.0556 69.9608 49.8816C69.9621 49.8802 69.9628 49.8787 69.9638 49.8773C70.2096 49.553 70.4616 49.231 70.7762 48.9744C71.3013 48.5466 71.8636 48.471 72.4828 48.2604C74.1711 47.6863 74.8888 45.5081 75.117 43.8919C75.366 42.125 74.192 39.4445 72.12 39.4443C72.0539 39.4443 71.9872 39.4471 71.9193 39.4526Z" fill="url(#paint16_linear_2436_12826)"/>
</g>
<mask id="mask82_2436_12826" style="mask-type:luminance" maskUnits="userSpaceOnUse" x="63" y="37" width="6" height="23">
<path d="M64.8411 44.3064C64.148 46.7223 63.6903 49.1755 63.6727 51.6874C63.6613 53.3378 63.6156 54.9983 63.7135 56.6466C63.7484 57.2323 63.8077 57.8186 63.9021 58.3978C63.91 58.4453 64.1212 59.7384 64.3233 59.4371C64.4382 59.2656 64.1068 58.0956 64.0818 57.9008C63.9409 56.8032 63.908 55.6975 63.9149 54.5919C63.9263 52.7717 63.8716 50.9605 64.0593 49.147C64.0873 48.8762 64.1095 48.5918 64.175 48.327C64.2445 48.0453 64.1558 48.1682 64.3822 48.0567C64.6023 47.9484 64.8739 47.9639 65.1021 47.8278C66.0072 47.2885 66.4704 45.903 66.8308 44.9939C67.2429 43.9542 67.4933 42.8456 67.6935 41.7515C67.8404 40.9478 67.9454 40.1487 68.0049 39.3346C68.0236 39.0782 68.0247 38.8098 68.0761 38.5574C68.0899 38.4895 68.1592 38.3689 68.1566 38.3087C68.1514 38.1811 68.0731 38.1063 68.0666 37.999C67.9987 38.0591 67.9321 38.1205 67.8668 38.1835C66.245 39.8424 65.4615 42.1431 64.8411 44.3064Z" fill="white"/>
</mask>
<g mask="url(#mask82_2436_12826)">
<path fill-rule="evenodd" clip-rule="evenodd" d="M64.8411 44.3064C64.148 46.7223 63.6903 49.1755 63.6727 51.6874C63.6613 53.3378 63.6156 54.9983 63.7135 56.6466C63.7484 57.2323 63.8077 57.8186 63.9021 58.3978C63.91 58.4453 64.1212 59.7384 64.3233 59.4371C64.4382 59.2656 64.1068 58.0956 64.0818 57.9008C63.9409 56.8032 63.908 55.6975 63.9149 54.5919C63.9263 52.7717 63.8716 50.9605 64.0593 49.147C64.0873 48.8762 64.1095 48.5918 64.175 48.327C64.2445 48.0453 64.1558 48.1682 64.3822 48.0567C64.6023 47.9484 64.8739 47.9639 65.1021 47.8278C66.0072 47.2885 66.4704 45.903 66.8308 44.9939C67.2429 43.9542 67.4933 42.8456 67.6935 41.7515C67.8404 40.9478 67.9454 40.1487 68.0049 39.3346C68.0236 39.0782 68.0247 38.8098 68.0761 38.5574C68.0899 38.4895 68.1592 38.3689 68.1566 38.3087C68.1514 38.1811 68.0731 38.1063 68.0666 37.999C67.9987 38.0591 67.9321 38.1205 67.8668 38.1835C66.245 39.8424 65.4615 42.1431 64.8411 44.3064Z" fill="#BEE0EA"/>
</g>
<mask id="mask83_2436_12826" style="mask-type:luminance" maskUnits="userSpaceOnUse" x="65" y="55" width="8" height="7">
<path d="M68.4277 55.0538C68.2931 55.0626 68.1652 55.1011 68.051 55.1649C67.8102 55.1507 67.6113 55.1522 67.5572 55.1597C66.0919 55.3648 65.4239 57.2202 65.2102 58.4835C65.1544 58.8138 65.1299 59.1472 65.1113 59.4812H65.3777C65.3892 59.3429 65.4022 59.2048 65.4185 59.0673C65.5683 57.7918 66.1329 55.7845 67.5826 55.4667C67.717 55.437 68.1843 55.4866 68.5761 55.5291C68.7276 55.5757 68.8474 55.6382 68.8803 55.7169C68.9878 55.9744 68.2613 55.6485 68.1891 55.6331C67.766 55.5418 67.4888 55.6303 67.5341 56.1209C67.567 56.4767 67.8488 56.6969 68.1036 56.9118C68.2665 57.0492 68.4426 57.1718 68.6039 57.3111C69.2953 57.9089 69.4063 58.6732 69.4298 59.5505C69.4476 60.2104 69.4916 61.3392 70.4052 61.3287C71.1355 61.3204 71.5734 60.4645 71.774 59.8641C72.0737 58.9674 72.1554 57.8589 71.6703 57.0149C71.0943 56.0126 69.7931 55.0479 68.5884 55.0479C68.5347 55.0479 68.4811 55.0498 68.4277 55.0538Z" fill="white"/>
</mask>
<g mask="url(#mask83_2436_12826)">
<path fill-rule="evenodd" clip-rule="evenodd" d="M68.4277 55.0538C68.2931 55.0626 68.1652 55.1011 68.051 55.1649C67.8102 55.1507 67.6113 55.1522 67.5572 55.1597C66.0919 55.3648 65.4239 57.2202 65.2102 58.4835C65.1544 58.8138 65.1299 59.1472 65.1113 59.4812H65.3777C65.3892 59.3429 65.4022 59.2048 65.4185 59.0673C65.5683 57.7918 66.1329 55.7845 67.5826 55.4667C67.717 55.437 68.1843 55.4866 68.5761 55.5291C68.7276 55.5757 68.8474 55.6382 68.8803 55.7169C68.9878 55.9744 68.2613 55.6485 68.1891 55.6331C67.766 55.5418 67.4888 55.6303 67.5341 56.1209C67.567 56.4767 67.8488 56.6969 68.1036 56.9118C68.2665 57.0492 68.4426 57.1718 68.6039 57.3111C69.2953 57.9089 69.4063 58.6732 69.4298 59.5505C69.4476 60.2104 69.4916 61.3392 70.4052 61.3287C71.1355 61.3204 71.5734 60.4645 71.774 59.8641C72.0737 58.9674 72.1554 57.8589 71.6703 57.0149C71.0943 56.0126 69.7931 55.0479 68.5884 55.0479C68.5347 55.0479 68.4811 55.0498 68.4277 55.0538Z" fill="url(#paint17_linear_2436_12826)"/>
</g>
<mask id="mask84_2436_12826" style="mask-type:luminance" maskUnits="userSpaceOnUse" x="73" y="37" width="40" height="13">
<path d="M74.619 37.708C73.9799 37.7171 73.4646 38.2356 73.4646 38.8736V48.1985C73.4646 48.8423 73.989 49.3644 74.6359 49.3644H111.829C112.475 49.3644 113 48.8423 113 48.1985V38.8736C113 38.2356 112.485 37.7171 111.846 37.708H74.619Z" fill="white"/>
</mask>
<g mask="url(#mask84_2436_12826)">
<path fill-rule="evenodd" clip-rule="evenodd" d="M72.4792 50.0536H113.692V37.0195H72.4792V50.0536Z" fill="white"/>
</g>
<mask id="mask85_2436_12826" style="mask-type:luminance" maskUnits="userSpaceOnUse" x="73" y="37" width="13" height="13">
<path d="M74.6116 37.708C73.9765 37.7171 73.4646 38.2356 73.4646 38.8736V48.1985C73.4646 48.8423 73.9856 49.3644 74.6283 49.3644H85.1028V37.708H74.6116Z" fill="white"/>
</mask>
<g mask="url(#mask85_2436_12826)">
<path fill-rule="evenodd" clip-rule="evenodd" d="M72.4856 50.0536H85.7905V37.0195H72.4856V50.0536Z" fill="#809FD2"/>
</g>
<mask id="mask86_2436_12826" style="mask-type:luminance" maskUnits="userSpaceOnUse" x="76" y="41" width="7" height="5">
<path d="M81.2556 41.249C81.1641 41.249 81.0901 41.3219 81.0901 41.4121C81.0901 41.5022 81.1641 41.5751 81.2556 41.5751H81.4618C81.7128 41.5751 81.9172 41.7761 81.9172 42.0229V45.2206C81.9172 45.4674 81.7128 45.6686 81.4618 45.6686H77.7347C77.4836 45.6686 77.2791 45.4674 77.2791 45.2206V42.0229C77.2791 41.7761 77.4836 41.5751 77.7347 41.5751H77.9418C78.0334 41.5751 78.1072 41.5022 78.1072 41.4121C78.1072 41.3219 78.0334 41.249 77.9418 41.249H77.7347C77.3009 41.249 76.948 41.5963 76.948 42.0229V45.2206C76.948 45.6471 77.3009 45.9944 77.7347 45.9944H81.4618C81.8955 45.9944 82.2486 45.6471 82.2486 45.2206V42.0229C82.2486 41.5963 81.8955 41.249 81.4618 41.249H81.2556Z" fill="white"/>
</mask>
<g mask="url(#mask86_2436_12826)">
<path fill-rule="evenodd" clip-rule="evenodd" d="M74.7688 48.1445H84.4281V39.0977H74.7688V48.1445Z" fill="white"/>
</g>
<mask id="mask87_2436_12826" style="mask-type:luminance" maskUnits="userSpaceOnUse" x="77" y="40" width="5" height="3">
<path d="M80.4814 41.0266V42.0409C80.4814 42.1302 80.5548 42.2031 80.6449 42.2031C80.7348 42.2031 80.8084 42.1302 80.8084 42.0409V41.0266C80.8084 40.9374 80.7348 40.8643 80.6449 40.8643C80.5548 40.8643 80.4814 40.9374 80.4814 41.0266ZM78.3955 41.0266V42.0409C78.3955 42.1302 78.469 42.2031 78.5589 42.2031C78.6489 42.2031 78.7224 42.1302 78.7224 42.0409V41.0266C78.7224 40.9374 78.6489 40.8643 78.5589 40.8643C78.469 40.8643 78.3955 40.9374 78.3955 41.0266ZM79.2103 41.3308C79.1205 41.3308 79.0468 41.404 79.0468 41.4933C79.0468 41.5825 79.1205 41.6556 79.2103 41.6556H79.987C80.0769 41.6556 80.1505 41.5825 80.1505 41.4933C80.1505 41.404 80.0769 41.3308 79.987 41.3308H79.2103ZM77.1924 42.9742H81.9232V42.6497H77.1924V42.9742Z" fill="white"/>
</mask>
<g mask="url(#mask87_2436_12826)">
<path fill-rule="evenodd" clip-rule="evenodd" d="M75.0415 45.117H84.074V38.7217H75.0415V45.117Z" fill="white"/>
</g>
<mask id="mask88_2436_12826" style="mask-type:luminance" maskUnits="userSpaceOnUse" x="79" y="43" width="1" height="2">
<path d="M79.4246 43.7856C79.4246 43.9225 79.5376 44.0337 79.6774 44.0337C79.8171 44.0337 79.9302 43.9225 79.9302 43.7856C79.9302 43.6481 79.8171 43.5371 79.6774 43.5371C79.5376 43.5371 79.4246 43.6481 79.4246 43.7856Z" fill="white"/>
</mask>
<g mask="url(#mask88_2436_12826)">
<path fill-rule="evenodd" clip-rule="evenodd" d="M77.4819 45.9758H81.8731V41.5938H77.4819V45.9758Z" fill="white"/>
</g>
<mask id="mask89_2436_12826" style="mask-type:luminance" maskUnits="userSpaceOnUse" x="79" y="44" width="1" height="2">
<path d="M79.4246 44.8802C79.4246 45.0171 79.5376 45.1284 79.6774 45.1284C79.8171 45.1284 79.9302 45.0171 79.9302 44.8802C79.9302 44.7431 79.8171 44.6318 79.6774 44.6318C79.5376 44.6318 79.4246 44.7431 79.4246 44.8802Z" fill="white"/>
</mask>
<g mask="url(#mask89_2436_12826)">
<path fill-rule="evenodd" clip-rule="evenodd" d="M77.4819 47.0704H81.8731V42.6885H77.4819V47.0704Z" fill="white"/>
</g>
<mask id="mask90_2436_12826" style="mask-type:luminance" maskUnits="userSpaceOnUse" x="78" y="43" width="1" height="2">
<path d="M78.0032 43.7856C78.0032 43.9225 78.1163 44.0337 78.256 44.0337C78.3955 44.0337 78.5088 43.9225 78.5088 43.7856C78.5088 43.6481 78.3955 43.5371 78.256 43.5371C78.1163 43.5371 78.0032 43.6481 78.0032 43.7856Z" fill="white"/>
</mask>
<g mask="url(#mask90_2436_12826)">
<path fill-rule="evenodd" clip-rule="evenodd" d="M76.0605 45.9758H80.4516V41.5938H76.0605V45.9758Z" fill="white"/>
</g>
<mask id="mask91_2436_12826" style="mask-type:luminance" maskUnits="userSpaceOnUse" x="78" y="44" width="1" height="2">
<path d="M78.0032 44.8802C78.0032 45.0171 78.1163 45.1284 78.256 45.1284C78.3955 45.1284 78.5088 45.0171 78.5088 44.8802C78.5088 44.7431 78.3955 44.6318 78.256 44.6318C78.1163 44.6318 78.0032 44.7431 78.0032 44.8802Z" fill="white"/>
</mask>
<g mask="url(#mask91_2436_12826)">
<path fill-rule="evenodd" clip-rule="evenodd" d="M76.0605 47.0704H80.4516V42.6885H76.0605V47.0704Z" fill="white"/>
</g>
<mask id="mask92_2436_12826" style="mask-type:luminance" maskUnits="userSpaceOnUse" x="80" y="43" width="2" height="2">
<path d="M80.6836 43.7856C80.6836 43.9225 80.7969 44.0337 80.9366 44.0337C81.0761 44.0337 81.1895 43.9225 81.1895 43.7856C81.1895 43.6481 81.0761 43.5371 80.9366 43.5371C80.7969 43.5371 80.6836 43.6481 80.6836 43.7856Z" fill="white"/>
</mask>
<g mask="url(#mask92_2436_12826)">
<path fill-rule="evenodd" clip-rule="evenodd" d="M78.741 45.9758H83.1321V41.5938H78.741V45.9758Z" fill="white"/>
</g>
<mask id="mask93_2436_12826" style="mask-type:luminance" maskUnits="userSpaceOnUse" x="80" y="44" width="2" height="2">
<path d="M80.6836 44.8802C80.6836 45.0171 80.7969 45.1284 80.9366 45.1284C81.0761 45.1284 81.1895 45.0171 81.1895 44.8802C81.1895 44.7431 81.0761 44.6318 80.9366 44.6318C80.7969 44.6318 80.6836 44.7431 80.6836 44.8802Z" fill="white"/>
</mask>
<g mask="url(#mask93_2436_12826)">
<path fill-rule="evenodd" clip-rule="evenodd" d="M78.741 47.0704H83.1321V42.6885H78.741V47.0704Z" fill="white"/>
</g>
<mask id="mask94_2436_12826" style="mask-type:luminance" maskUnits="userSpaceOnUse" x="89" y="41" width="20" height="2">
<path d="M89.8246 41.3652C89.5019 41.3652 89.2405 41.6309 89.2405 41.9588C89.2405 42.2866 89.5019 42.5523 89.8246 42.5523H107.933C108.255 42.5523 108.517 42.2866 108.517 41.9588C108.517 41.6309 108.255 41.3652 107.933 41.3652H89.8246Z" fill="white"/>
</mask>
<g mask="url(#mask94_2436_12826)">
<path fill-rule="evenodd" clip-rule="evenodd" d="M87.0896 44.7387H110.667V39.1807H87.0896V44.7387Z" fill="#DDE7F1"/>
</g>
<mask id="mask95_2436_12826" style="mask-type:luminance" maskUnits="userSpaceOnUse" x="89" y="43" width="15" height="2">
<path d="M89.8277 43.6924C89.5034 43.6924 89.2407 43.958 89.2407 44.2858C89.2407 44.6135 89.5034 44.8795 89.8277 44.8795H102.447C102.771 44.8795 103.034 44.6135 103.034 44.2858C103.034 43.958 102.771 43.6924 102.447 43.6924H89.8277Z" fill="white"/>
</mask>
<g mask="url(#mask95_2436_12826)">
<path fill-rule="evenodd" clip-rule="evenodd" d="M87.0793 47.0649H105.195V41.5068H87.0793V47.0649Z" fill="#EAF2FA"/>
</g>
</g>
<defs>
<linearGradient id="paint0_linear_2436_12826" x1="240.042" y1="396.371" x2="5335.81" y2="396.371" gradientUnits="userSpaceOnUse">
<stop stop-color="#A0CDEF"/>
<stop offset="1" stop-color="#BDE7FA"/>
</linearGradient>
<linearGradient id="paint1_linear_2436_12826" x1="26325" y1="12254.2" x2="26325" y2="43346.9" gradientUnits="userSpaceOnUse">
<stop stop-color="#1B90FA"/>
<stop offset="1" stop-color="#416EC8"/>
</linearGradient>
<linearGradient id="paint2_linear_2436_12826" x1="26325" y1="12637.8" x2="27132.8" y2="12637.8" gradientUnits="userSpaceOnUse">
<stop stop-color="#96CDFF"/>
<stop offset="1" stop-color="#9DBDFF"/>
</linearGradient>
<linearGradient id="paint3_linear_2436_12826" x1="26325" y1="13529.5" x2="26325" y2="44622.3" gradientUnits="userSpaceOnUse">
<stop stop-color="#FFD97D"/>
<stop offset="1" stop-color="#FA95AA"/>
</linearGradient>
<linearGradient id="paint4_linear_2436_12826" x1="22482.5" y1="13697.3" x2="22736.8" y2="13845.9" gradientUnits="userSpaceOnUse">
<stop stop-color="#FFDFD4"/>
<stop offset="1" stop-color="#FEAB8B"/>
</linearGradient>
<linearGradient id="paint5_linear_2436_12826" x1="745.453" y1="1026.44" x2="2183.14" y2="2016.93" gradientUnits="userSpaceOnUse">
<stop stop-color="#DCDFEE"/>
<stop offset="1" stop-color="#F1F3FA"/>
</linearGradient>
<linearGradient id="paint6_linear_2436_12826" x1="54.6629" y1="22.7349" x2="54.6629" y2="11243.1" gradientUnits="userSpaceOnUse">
<stop stop-color="#FBE1DB"/>
<stop offset="1" stop-color="#F5B4A8"/>
</linearGradient>
<linearGradient id="paint7_linear_2436_12826" x1="329.945" y1="190.022" x2="61.1365" y2="154.227" gradientUnits="userSpaceOnUse">
<stop stop-color="#FBE1DB"/>
<stop offset="1" stop-color="#F5B4A8"/>
</linearGradient>
<linearGradient id="paint8_linear_2436_12826" x1="60.3179" y1="11.9872" x2="60.3179" y2="11159.5" gradientUnits="userSpaceOnUse">
<stop stop-color="#F6BDB1"/>
<stop offset="1" stop-color="#FBE1DB"/>
</linearGradient>
<linearGradient id="paint9_linear_2436_12826" x1="184.479" y1="97.6348" x2="66.5954" y2="82.7821" gradientUnits="userSpaceOnUse">
<stop stop-color="#F6BDB1"/>
<stop offset="1" stop-color="#FBE1DB"/>
</linearGradient>
<linearGradient id="paint10_linear_2436_12826" x1="63.5459" y1="30.8416" x2="63.5459" y2="11854" gradientUnits="userSpaceOnUse">
<stop stop-color="#F4AFA1"/>
<stop offset="1" stop-color="#FBE1DB"/>
</linearGradient>
<linearGradient id="paint11_linear_2436_12826" x1="100.062" y1="29.8654" x2="194.383" y2="197.53" gradientUnits="userSpaceOnUse">
<stop stop-color="#F4AFA1"/>
<stop offset="1" stop-color="#FBE1DB"/>
</linearGradient>
<radialGradient id="paint12_radial_2436_12826" cx="0" cy="0" r="1" gradientUnits="userSpaceOnUse" gradientTransform="translate(597.048 336.823) scale(102.983 102.983)">
<stop stop-color="#327BBB"/>
<stop offset="1" stop-color="#D5EEFB"/>
</radialGradient>
<radialGradient id="paint13_radial_2436_12826" cx="0" cy="0" r="1" gradientUnits="userSpaceOnUse" gradientTransform="translate(190.098 244.554) scale(333.417 333.417)">
<stop stop-color="#89B6DE"/>
<stop offset="1" stop-color="#BAE1F3"/>
</radialGradient>
<linearGradient id="paint14_linear_2436_12826" x1="59.7921" y1="452.485" x2="957.994" y2="452.485" gradientUnits="userSpaceOnUse">
<stop stop-color="#FAD5C6"/>
<stop offset="1" stop-color="#FCE8DF"/>
</linearGradient>
<linearGradient id="paint15_linear_2436_12826" x1="525.609" y1="716.854" x2="334.562" y2="736.726" gradientUnits="userSpaceOnUse">
<stop stop-color="white"/>
<stop offset="1" stop-color="#66B5CD"/>
</linearGradient>
<linearGradient id="paint16_linear_2436_12826" x1="64.9597" y1="1041.14" x2="1084.91" y2="1041.14" gradientUnits="userSpaceOnUse">
<stop stop-color="#9FC7D7"/>
<stop offset="1" stop-color="#86CEDF"/>
</linearGradient>
<linearGradient id="paint17_linear_2436_12826" x1="23.321" y1="426.178" x2="713.833" y2="426.178" gradientUnits="userSpaceOnUse">
<stop stop-color="white"/>
<stop offset="1" stop-color="#76C8CA"/>
</linearGradient>
<clipPath id="clip0_2436_12826">
<rect width="140.202" height="69.3587" fill="white"/>
</clipPath>
</defs>
</svg>
