<svg width="50" height="50" viewBox="0 0 50 50" fill="none" xmlns="http://www.w3.org/2000/svg">
<g clip-path="url(#clip0_2379_12434)">
<rect width="50" height="50" rx="25" fill="url(#paint0_linear_2379_12434)"/>
<g clip-path="url(#clip1_2379_12434)">
<path d="M29.575 13.3286C30.7798 13.3286 31.9352 13.8133 32.7871 14.6759C33.6391 15.5386 34.1177 16.7086 34.1177 17.9286V24.8365C32.9608 24.4217 31.7044 24.3864 30.5266 24.7357C29.3489 25.0849 28.3097 25.801 27.5566 26.7822C26.8035 27.7633 26.3747 28.9598 26.3312 30.2017C26.2876 31.4437 26.6315 32.6679 27.314 33.7007L18.5427 33.7C17.3379 33.7 16.1824 33.2154 15.3305 32.3527C14.4786 31.4901 14 30.32 14 29.1V17.9286C14 16.7086 14.4786 15.5386 15.3305 14.6759C16.1824 13.8133 17.3379 13.3286 18.5427 13.3286H29.575ZM21.8206 19.0497C21.7582 18.9869 21.6842 18.9371 21.6027 18.9033C21.5213 18.8695 21.4342 18.8522 21.3462 18.8525C21.2582 18.8528 21.1711 18.8707 21.0899 18.9051C21.0088 18.9395 20.9351 18.9897 20.8731 19.053C20.7469 19.1816 20.676 19.3556 20.676 19.537C20.676 19.7183 20.7469 19.8923 20.8731 20.021L22.8816 22.066H21.0899C20.9066 22.066 20.7308 22.1397 20.6011 22.271C20.4715 22.4022 20.3987 22.5802 20.3987 22.7658C20.3987 22.9515 20.4715 23.1295 20.6011 23.2607C20.7308 23.392 20.9066 23.4657 21.0899 23.4657H23.3722V24.6328H21.0899C20.9066 24.6328 20.7308 24.7065 20.6011 24.8378C20.4715 24.969 20.3987 25.147 20.3987 25.3326C20.3987 25.5183 20.4715 25.6963 20.6011 25.8275C20.7308 25.9588 20.9066 26.0325 21.0899 26.0325H23.3722V28.138C23.3722 28.3224 23.4446 28.4992 23.5733 28.6296C23.7021 28.76 23.8767 28.8332 24.0588 28.8332C24.2409 28.8332 24.4156 28.76 24.5443 28.6296C24.6731 28.4992 24.7454 28.3224 24.7454 28.138V26.0332H27.0278C27.2111 26.0332 27.3869 25.9594 27.5165 25.8282C27.6461 25.6969 27.7189 25.5189 27.7189 25.3333C27.7189 25.1477 27.6461 24.9697 27.5165 24.8384C27.3869 24.7072 27.2111 24.6334 27.0278 24.6334H24.7454V23.4664H27.0278C27.2111 23.4664 27.3869 23.3926 27.5165 23.2614C27.6461 23.1301 27.7189 22.9521 27.7189 22.7665C27.7189 22.5809 27.6461 22.4029 27.5165 22.2716C27.3869 22.1404 27.2111 22.0666 27.0278 22.0666H25.1478L27.155 20.021C27.2812 19.8923 27.3521 19.7183 27.3521 19.537C27.3521 19.3556 27.2812 19.1816 27.155 19.053C27.0927 18.9897 27.0186 18.9395 26.9371 18.9053C26.8556 18.871 26.7682 18.8534 26.68 18.8534C26.5917 18.8534 26.5043 18.871 26.4228 18.9053C26.3413 18.9395 26.2673 18.9897 26.2049 19.053L24.0147 21.2846L21.8238 19.053L21.8206 19.0497Z" fill="white"/>
<path d="M32.5399 25.3545C33.9115 25.3545 35.2269 25.9062 36.1968 26.8883C37.1666 27.8704 37.7115 29.2024 37.7115 30.5913C37.7115 31.9801 37.1666 33.3121 36.1968 34.2942C35.2269 35.2763 33.9115 35.828 32.5399 35.828C31.1684 35.828 29.853 35.2763 28.8831 34.2942C27.9133 33.3121 27.3684 31.9801 27.3684 30.5913C27.3684 29.2024 27.9133 27.8704 28.8831 26.8883C29.853 25.9062 31.1684 25.3545 32.5399 25.3545ZM35.25 29.0003C35.1795 28.9343 35.0968 28.883 35.0067 28.8493C34.9167 28.8157 34.8209 28.8003 34.7249 28.8042C34.629 28.808 34.5347 28.831 34.4476 28.8717C34.3604 28.9125 34.282 28.9703 34.2169 29.0417L32.2135 31.2353L31.3329 30.3435L31.2641 30.2817C31.1173 30.1655 30.9322 30.1105 30.7467 30.1279C30.5612 30.1452 30.3892 30.2337 30.266 30.3752C30.1427 30.5167 30.0775 30.7005 30.0837 30.8891C30.0898 31.0777 30.1669 31.2567 30.2991 31.3897L31.7177 32.8269L31.7833 32.886C32.0785 33.1206 32.5101 33.0923 32.7716 32.8058L35.2902 30.0458L35.3447 29.9795C35.4502 29.8329 35.4988 29.6521 35.4813 29.4716C35.4639 29.2911 35.3815 29.1234 35.25 29.0003Z" fill="white"/>
</g>
</g>
<defs>
<linearGradient id="paint0_linear_2379_12434" x1="10" y1="7" x2="42" y2="45" gradientUnits="userSpaceOnUse">
<stop stop-color="#C9F9DA"/>
<stop offset="1" stop-color="#49C9C4"/>
</linearGradient>
<clipPath id="clip0_2379_12434">
<rect width="50" height="50" fill="white"/>
</clipPath>
<clipPath id="clip1_2379_12434">
<rect width="24" height="23" fill="white" transform="translate(14 13)"/>
</clipPath>
</defs>
</svg>
