<svg width="50" height="50" viewBox="0 0 50 50" fill="none" xmlns="http://www.w3.org/2000/svg">
<g clip-path="url(#clip0_2379_10569)">
<rect width="50" height="50" rx="25" fill="url(#paint0_linear_2379_10569)"/>
<path d="M33.0285 15.4067H29.8242C29.517 14.414 28.5902 13.6929 27.4959 13.6929H22.5549C21.4605 13.6929 20.5338 14.414 20.2266 15.4067H16.9766C16.0219 15.4067 15.25 16.1786 15.25 17.1333V34.6757C15.25 35.6304 16.0219 36.4022 16.9766 36.4022H33.026C33.9807 36.4022 34.7525 35.6304 34.7525 34.6757V17.1333C34.7551 16.1812 33.9807 15.4067 33.0285 15.4067ZM25.0254 30.4608C25.0254 30.9077 24.6623 31.2708 24.2154 31.2708H20.1783C19.7314 31.2708 19.3684 30.9077 19.3684 30.4608C19.3684 30.014 19.7314 29.6509 20.1783 29.6509H24.2154C24.6623 29.6509 25.0254 30.014 25.0254 30.4608ZM30.723 25.9438C30.723 26.3907 30.36 26.7538 29.9131 26.7538H20.1377C19.6908 26.7538 19.3277 26.3907 19.3277 25.9438C19.3277 25.497 19.6908 25.1339 20.1377 25.1339H29.9156C30.3625 25.1339 30.723 25.497 30.723 25.9438ZM30.723 21.4269C30.723 21.8737 30.36 22.2368 29.9131 22.2368H20.1377C19.6908 22.2368 19.3277 21.8737 19.3277 21.4269C19.3277 20.98 19.6908 20.6169 20.1377 20.6169H29.9156C30.3625 20.6169 30.723 20.98 30.723 21.4269Z" fill="white"/>
</g>
<defs>
<linearGradient id="paint0_linear_2379_10569" x1="10" y1="7" x2="44.5" y2="45" gradientUnits="userSpaceOnUse">
<stop stop-color="#F6A58E"/>
<stop offset="1" stop-color="#FE655F"/>
</linearGradient>
<clipPath id="clip0_2379_10569">
<rect width="50" height="50" fill="white"/>
</clipPath>
</defs>
</svg>
