<svg width="144" height="72" viewBox="0 0 144 72" fill="none" xmlns="http://www.w3.org/2000/svg">
<g opacity="0.3">
<g clip-path="url(#clip0_2436_14009)">
<path fill-rule="evenodd" clip-rule="evenodd" d="M6.75253 23.5808H3.76123V13.4588C3.76123 12.6531 4.42735 12 5.24906 12H5.26467C6.08639 12 6.75253 12.6531 6.75253 13.4588V23.5808Z" fill="#BAE637"/>
<path fill-rule="evenodd" clip-rule="evenodd" d="M8.23999 26.0583H5.23999V20.7728C5.23999 19.9884 5.89141 19.3525 6.69499 19.3525H6.78501C7.58857 19.3525 8.23999 19.9884 8.23999 20.7728V26.0583Z" fill="#389E0D"/>
<path fill-rule="evenodd" clip-rule="evenodd" d="M4.19993 23.5754H1.17993V17.8287C1.17993 17.0399 1.83306 16.4004 2.63871 16.4004H2.74115C3.5468 16.4004 4.19993 17.0399 4.19993 17.8287V23.5754Z" fill="#7CB305"/>
<path fill-rule="evenodd" clip-rule="evenodd" d="M8.41845 31.9712H0.562256C0.251727 31.9712 0 31.7252 0 31.4216V23.7888C0 23.4853 0.251727 23.2393 0.562256 23.2393H8.41845C8.72898 23.2393 8.9807 23.4853 8.9807 23.7888V31.4216C8.9807 31.7252 8.72898 31.9712 8.41845 31.9712Z" fill="#3B68B8"/>
<path fill-rule="evenodd" clip-rule="evenodd" d="M132.847 38.7734H128.485V24.9869C128.485 23.8896 129.457 23 130.655 23H130.678C131.876 23 132.847 23.8896 132.847 24.9869V38.7734Z" fill="#BAE637"/>
<path fill-rule="evenodd" clip-rule="evenodd" d="M135.017 42.1481H130.642V34.9491C130.642 33.8807 131.592 33.0146 132.763 33.0146H132.895C134.067 33.0146 135.017 33.8807 135.017 34.9491V42.1481Z" fill="#389E0D"/>
<path fill-rule="evenodd" clip-rule="evenodd" d="M129.125 38.7662H124.721V30.9391C124.721 29.8647 125.673 28.9937 126.848 28.9937H126.998C128.173 28.9937 129.125 29.8647 129.125 30.9391V38.7662Z" fill="#7CB305"/>
<path fill-rule="evenodd" clip-rule="evenodd" d="M135.277 50.2008H123.82C123.367 50.2008 123 49.8657 123 49.4523V39.0561C123 38.6427 123.367 38.3076 123.82 38.3076H135.277C135.73 38.3076 136.097 38.6427 136.097 39.0561V49.4523C136.097 49.8657 135.73 50.2008 135.277 50.2008Z" fill="#3B68B8"/>
<path fill-rule="evenodd" clip-rule="evenodd" d="M78.9236 59.1587H76.7424V52.0277C76.7424 51.4601 77.2281 51 77.8273 51H77.8387C78.4379 51 78.9236 51.4601 78.9236 52.0277V59.1587Z" fill="#BAE637"/>
<path fill-rule="evenodd" clip-rule="evenodd" d="M80.0083 60.9039H77.8208V57.1803C77.8208 56.6277 78.2958 56.1797 78.8817 56.1797H78.9474C79.5333 56.1797 80.0083 56.6277 80.0083 57.1803V60.9039Z" fill="#389E0D"/>
<path fill-rule="evenodd" clip-rule="evenodd" d="M77.0624 59.1553H74.8604V55.1068C74.8604 54.5511 75.3366 54.1006 75.924 54.1006H75.9987C76.5862 54.1006 77.0624 54.5511 77.0624 55.1068V59.1553Z" fill="#7CB305"/>
<path fill-rule="evenodd" clip-rule="evenodd" d="M80.1385 65.0696H74.41C74.1836 65.0696 74 64.8963 74 64.6824V59.3051C74 59.0913 74.1836 58.918 74.41 58.918H80.1385C80.3649 58.918 80.5484 59.0913 80.5484 59.3051V64.6824C80.5484 64.8963 80.3649 65.0696 80.1385 65.0696Z" fill="#3B68B8"/>
<path fill-rule="evenodd" clip-rule="evenodd" d="M21.4576 7.92966L51.2532 3.08524C54.797 2.50906 58.1368 4.91478 58.713 8.45857C58.7691 8.8035 58.7973 9.15238 58.7973 9.50184V56.5466C58.7973 59.7342 56.486 62.4516 53.3397 62.9631L23.5441 67.8076C20.0003 68.3837 16.6604 65.978 16.0843 62.4342C16.0282 62.0893 16 61.7404 16 61.391V14.3463C16 11.1586 18.3113 8.44122 21.4576 7.92966Z" fill="url(#paint0_linear_2436_14009)"/>
<path fill-rule="evenodd" clip-rule="evenodd" d="M22.6483 9.68969L51.3604 5.12271C54.6106 4.60572 57.6646 6.82148 58.1816 10.0717C58.2308 10.3813 58.2556 10.6944 58.2556 11.0078V55.4885C58.2556 58.4182 56.1259 60.9134 53.2326 61.3736L24.5205 65.9406C21.2702 66.4576 18.2162 64.2418 17.6992 60.9916C17.65 60.682 17.6252 60.3689 17.6252 60.0555V15.5748C17.6252 12.6451 19.7549 10.1499 22.6483 9.68969Z" fill="url(#paint1_linear_2436_14009)"/>
<path fill-rule="evenodd" clip-rule="evenodd" d="M20.8757 13.655V59.483C20.8757 62.1757 23.0586 64.3586 25.7514 64.3586C26.0211 64.3586 26.2903 64.3362 26.5563 64.2917L56.0887 59.3484L57.1221 7.81836L20.8757 13.655Z" fill="#EAF2FF"/>
<g filter="url(#filter0_d_2436_14009)">
<path d="M20.334 13.6128L21.1067 22.5925C22.8509 42.8628 40.6972 57.8811 60.9674 56.1369C62.1652 56.0338 63.3571 55.8722 64.5391 55.6526L66.3817 55.3102C63.7735 53.4554 61.7096 48.8581 60.1901 41.5181C58.6705 34.1781 57.4571 22.9448 56.5499 7.81836L20.334 13.6128Z" fill="black"/>
</g>
<path d="M20.334 13.6128L21.1067 22.5925C22.8509 42.8628 40.6972 57.8811 60.9674 56.1369C62.1652 56.0338 63.3571 55.8722 64.5391 55.6526L66.3817 55.3102C63.7735 53.4554 61.7096 48.8581 60.1901 41.5181C58.6705 34.1781 57.4571 22.9448 56.5499 7.81836L20.334 13.6128Z" fill="url(#paint2_linear_2436_14009)"/>
<path fill-rule="evenodd" clip-rule="evenodd" d="M29.0017 6.97002L47.0825 4.58491C48.319 4.43643 49.0391 5.23147 49.2429 6.97002C49.4468 8.70858 49.5617 10.2299 49.5877 11.534L33.3645 14.1047C32.7735 14.1983 32.2184 13.7951 32.1248 13.2041C32.1128 13.1284 32.1089 13.0516 32.1131 12.975C32.2434 10.6072 32.0651 9.04795 31.5782 8.29711C31.0044 7.41238 30.1456 6.97002 29.0017 6.97002Z" fill="#4069BD"/>
<path fill-rule="evenodd" clip-rule="evenodd" d="M28.46 7.03592L46.7906 4.02637C48.1921 4.15884 48.9946 5.16203 49.198 7.03592C49.3592 8.52108 49.4743 9.90272 49.5431 11.1808C49.5731 11.7375 49.1758 12.226 48.6248 12.3102L33.2795 14.653C32.6879 14.7433 32.1352 14.337 32.0449 13.7455C32.0328 13.6662 32.0295 13.5858 32.0352 13.5058C32.2143 10.9626 32.0587 9.28272 31.5685 8.46632C30.9959 7.51272 29.9597 7.03592 28.46 7.03592Z" fill="url(#paint3_linear_2436_14009)"/>
<path fill-rule="evenodd" clip-rule="evenodd" d="M26.4198 17.329L27.6719 17.1122C29.4408 16.8059 31.123 17.9915 31.4293 19.7603C31.4517 19.8901 31.4663 20.0211 31.4729 20.1526L31.5667 22.0287C31.6487 23.6695 30.4936 25.1135 28.8749 25.3938L27.6227 25.6106C25.8539 25.9169 24.1717 24.7313 23.8654 22.9624C23.8429 22.8327 23.8284 22.7017 23.8218 22.5701L23.728 20.694C23.646 19.0533 24.8011 17.6093 26.4198 17.329Z" fill="#AFC2F3"/>
<path fill-rule="evenodd" clip-rule="evenodd" d="M27.5033 30.3309L28.7554 30.1141C30.5243 29.8078 32.2065 30.9935 32.5128 32.7623C32.5352 32.8921 32.5498 33.0231 32.5564 33.1546L32.6502 35.0307C32.7322 36.6714 31.5771 38.1154 29.9584 38.3957L28.7062 38.6126C26.9374 38.9188 25.2552 37.7332 24.9489 35.9644C24.9264 35.8346 24.9118 35.7036 24.9053 35.5721L24.8115 33.696C24.7295 32.0552 25.8846 30.6112 27.5033 30.3309Z" fill="#AFC2F3"/>
<path fill-rule="evenodd" clip-rule="evenodd" d="M32.6366 16.6426L53.9239 13.3769C54.4011 13.3037 54.8473 13.6312 54.9205 14.1084C54.9236 14.1284 54.9259 14.1485 54.9276 14.1686C54.9713 14.6945 54.6005 15.1645 54.079 15.2445L32.7916 18.5101C32.3144 18.5834 31.8682 18.2559 31.795 17.7787C31.792 17.7587 31.7896 17.7386 31.7879 17.7184C31.7443 17.1926 32.115 16.7226 32.6366 16.6426Z" fill="#AFC2F3"/>
<path fill-rule="evenodd" clip-rule="evenodd" d="M33.7201 29.645L55.0074 26.3794C55.4846 26.3062 55.9308 26.6337 56.004 27.1108C56.0071 27.1308 56.0094 27.1509 56.0111 27.1711C56.0548 27.697 55.684 28.1669 55.1625 28.2469L33.8751 31.5126C33.3979 31.5858 32.9517 31.2583 32.8785 30.7811C32.8755 30.7611 32.8731 30.741 32.8714 30.7209C32.8278 30.195 33.1985 29.725 33.7201 29.645Z" fill="#AFC2F3"/>
<path fill-rule="evenodd" clip-rule="evenodd" d="M32.6366 19.3516L53.9239 16.0859C54.4011 16.0127 54.8473 16.3402 54.9205 16.8174C54.9236 16.8374 54.9259 16.8575 54.9276 16.8776C54.9713 17.4035 54.6005 17.8735 54.079 17.9535L32.7916 21.2191C32.3144 21.2923 31.8682 20.9648 31.795 20.4877C31.792 20.4677 31.7896 20.4476 31.7879 20.4274C31.7443 19.9016 32.115 19.4316 32.6366 19.3516Z" fill="#AFC2F3"/>
<path fill-rule="evenodd" clip-rule="evenodd" d="M33.6715 32.475L46.386 30.6943C46.8469 30.6297 47.2728 30.951 47.3374 31.4119C47.3393 31.426 47.3409 31.44 47.3422 31.4541C47.3862 31.9487 47.0348 32.391 46.543 32.4599L33.8286 34.2406C33.3677 34.3051 32.9418 33.9838 32.8772 33.5229C32.8752 33.5089 32.8736 33.4948 32.8724 33.4807C32.8284 32.9862 33.1798 32.5439 33.6715 32.475Z" fill="#AFC2F3"/>
<path fill-rule="evenodd" clip-rule="evenodd" d="M33.1308 23.2666L38.2604 22.565C38.7229 22.5018 39.1491 22.8254 39.2124 23.2879C39.2142 23.3013 39.2157 23.3148 39.2169 23.3282C39.2605 23.8228 38.9081 24.2645 38.4161 24.3318L33.2866 25.0334C32.8241 25.0966 32.3978 24.773 32.3346 24.3105C32.3328 24.2971 32.3312 24.2836 32.3301 24.2702C32.2865 23.7756 32.6389 23.3339 33.1308 23.2666Z" fill="#AFC2F3"/>
<path fill-rule="evenodd" clip-rule="evenodd" d="M34.2143 35.1846L39.3439 34.483C39.8064 34.4197 40.2326 34.7434 40.2959 35.2059C40.2977 35.2193 40.2992 35.2327 40.3004 35.2462C40.344 35.7408 39.9916 36.1825 39.4996 36.2498L34.3701 36.9513C33.9076 37.0146 33.4813 36.6909 33.4181 36.2284C33.4163 36.215 33.4147 36.2016 33.4136 36.1881C33.37 35.6935 33.7224 35.2519 34.2143 35.1846Z" fill="#AFC2F3"/>
</g>
</g>
<defs>
<filter id="filter0_d_2436_14009" x="11.334" y="0.818359" width="64.0476" height="66.4565" filterUnits="userSpaceOnUse" color-interpolation-filters="sRGB">
<feFlood flood-opacity="0" result="BackgroundImageFix"/>
<feColorMatrix in="SourceAlpha" type="matrix" values="0 0 0 0 0 0 0 0 0 0 0 0 0 0 0 0 0 0 127 0" result="hardAlpha"/>
<feOffset dy="2"/>
<feGaussianBlur stdDeviation="4.5"/>
<feColorMatrix type="matrix" values="0 0 0 0 0.653816 0 0 0 0 0.653816 0 0 0 0 0.653816 0 0 0 0.144531 0"/>
<feBlend mode="normal" in2="BackgroundImageFix" result="effect1_dropShadow_2436_14009"/>
<feBlend mode="normal" in="SourceGraphic" in2="effect1_dropShadow_2436_14009" result="shape"/>
</filter>
<linearGradient id="paint0_linear_2436_14009" x1="2155.86" y1="3.00003" x2="516.654" y2="5075.88" gradientUnits="userSpaceOnUse">
<stop stop-color="#6D94E3"/>
<stop offset="1" stop-color="#658DDE"/>
</linearGradient>
<linearGradient id="paint1_linear_2436_14009" x1="2049.14" y1="5.04789" x2="488.679" y2="4768.85" gradientUnits="userSpaceOnUse">
<stop stop-color="#B2C5F4"/>
<stop offset="1" stop-color="#9EB5EB"/>
</linearGradient>
<linearGradient id="paint2_linear_2436_14009" x1="2322.72" y1="7.81835" x2="1767.52" y2="3311.74" gradientUnits="userSpaceOnUse">
<stop stop-color="#EAEEF1"/>
<stop offset="1" stop-color="#FEFFFF"/>
</linearGradient>
<linearGradient id="paint3_linear_2436_14009" x1="1082.7" y1="396.09" x2="1125.68" y2="664.1" gradientUnits="userSpaceOnUse">
<stop stop-color="#4D7BE1"/>
<stop offset="0.451779" stop-color="#9BB9FC"/>
<stop offset="1" stop-color="#5A85E3"/>
</linearGradient>
<clipPath id="clip0_2436_14009">
<rect width="144" height="72" rx="10" fill="white"/>
</clipPath>
</defs>
</svg>
