<svg width="50" height="50" viewBox="0 0 50 50" fill="none" xmlns="http://www.w3.org/2000/svg">
<g clip-path="url(#clip0_2352_12807)">
<rect width="50" height="50" rx="25" fill="url(#paint0_linear_2352_12807)"/>
<g clip-path="url(#clip1_2352_12807)">
<path d="M29.575 13.3281C30.7798 13.3281 31.9352 13.8128 32.7871 14.6754C33.6391 15.5381 34.1177 16.7081 34.1177 17.9281V24.836C32.9608 24.4212 31.7044 24.3859 30.5266 24.7352C29.3489 25.0844 28.3097 25.8005 27.5566 26.7817C26.8035 27.7629 26.3747 28.9593 26.3312 30.2012C26.2876 31.4432 26.6315 32.6674 27.314 33.7002L18.5427 33.6996C17.3379 33.6996 16.1824 33.2149 15.3305 32.3522C14.4786 31.4896 14 30.3195 14 29.0996V17.9281C14 16.7081 14.4786 15.5381 15.3305 14.6754C16.1824 13.8128 17.3379 13.3281 18.5427 13.3281H29.575ZM21.8206 19.0492C21.7582 18.9864 21.6842 18.9367 21.6027 18.9028C21.5213 18.869 21.4342 18.8517 21.3462 18.852C21.2582 18.8524 21.1711 18.8702 21.0899 18.9046C21.0088 18.939 20.9351 18.9893 20.8731 19.0525C20.7469 19.1811 20.676 19.3551 20.676 19.5365C20.676 19.7178 20.7469 19.8918 20.8731 20.0205L22.8816 22.0655H21.0899C20.9066 22.0655 20.7308 22.1392 20.6011 22.2705C20.4715 22.4017 20.3987 22.5797 20.3987 22.7654C20.3987 22.951 20.4715 23.129 20.6011 23.2602C20.7308 23.3915 20.9066 23.4652 21.0899 23.4652H23.3722V24.6323H21.0899C20.9066 24.6323 20.7308 24.706 20.6011 24.8373C20.4715 24.9685 20.3987 25.1465 20.3987 25.3322C20.3987 25.5178 20.4715 25.6958 20.6011 25.827C20.7308 25.9583 20.9066 26.032 21.0899 26.032H23.3722V28.1375C23.3722 28.3219 23.4446 28.4987 23.5733 28.6291C23.7021 28.7595 23.8767 28.8328 24.0588 28.8328C24.2409 28.8328 24.4156 28.7595 24.5443 28.6291C24.6731 28.4987 24.7454 28.3219 24.7454 28.1375V26.0327H27.0278C27.2111 26.0327 27.3869 25.9589 27.5165 25.8277C27.6461 25.6964 27.7189 25.5184 27.7189 25.3328C27.7189 25.1472 27.6461 24.9692 27.5165 24.8379C27.3869 24.7067 27.2111 24.633 27.0278 24.633H24.7454V23.4659H27.0278C27.2111 23.4659 27.3869 23.3921 27.5165 23.2609C27.6461 23.1296 27.7189 22.9516 27.7189 22.766C27.7189 22.5804 27.6461 22.4024 27.5165 22.2711C27.3869 22.1399 27.2111 22.0662 27.0278 22.0662H25.1478L27.155 20.0205C27.2812 19.8918 27.3521 19.7178 27.3521 19.5365C27.3521 19.3551 27.2812 19.1811 27.155 19.0525C27.0927 18.9892 27.0186 18.939 26.9371 18.9048C26.8556 18.8705 26.7682 18.8529 26.68 18.8529C26.5917 18.8529 26.5043 18.8705 26.4228 18.9048C26.3413 18.939 26.2673 18.9892 26.2049 19.0525L24.0147 21.2842L21.8238 19.0525L21.8206 19.0492Z" fill="white"/>
<path d="M32.5399 25.3545C33.9115 25.3545 35.2269 25.9062 36.1968 26.8883C37.1666 27.8704 37.7115 29.2024 37.7115 30.5913C37.7115 31.9801 37.1666 33.3121 36.1968 34.2942C35.2269 35.2763 33.9115 35.828 32.5399 35.828C31.1684 35.828 29.853 35.2763 28.8831 34.2942C27.9133 33.3121 27.3684 31.9801 27.3684 30.5913C27.3684 29.2024 27.9133 27.8704 28.8831 26.8883C29.853 25.9062 31.1684 25.3545 32.5399 25.3545ZM35.25 29.0003C35.1795 28.9343 35.0968 28.883 35.0067 28.8493C34.9167 28.8157 34.8209 28.8003 34.7249 28.8042C34.629 28.808 34.5347 28.831 34.4476 28.8717C34.3604 28.9125 34.282 28.9703 34.2169 29.0417L32.2135 31.2353L31.3329 30.3435L31.2641 30.2817C31.1173 30.1655 30.9322 30.1105 30.7467 30.1279C30.5612 30.1452 30.3892 30.2337 30.266 30.3752C30.1427 30.5167 30.0775 30.7005 30.0837 30.8891C30.0898 31.0777 30.1669 31.2567 30.2991 31.3897L31.7177 32.8269L31.7833 32.886C32.0785 33.1206 32.5101 33.0923 32.7716 32.8058L35.2902 30.0458L35.3447 29.9795C35.4502 29.8329 35.4988 29.6521 35.4813 29.4716C35.4639 29.2911 35.3815 29.1234 35.25 29.0003Z" fill="white"/>
</g>
</g>
<defs>
<linearGradient id="paint0_linear_2352_12807" x1="10" y1="7" x2="42" y2="45" gradientUnits="userSpaceOnUse">
<stop stop-color="#FD817E"/>
<stop offset="1" stop-color="#C22723"/>
</linearGradient>
<clipPath id="clip0_2352_12807">
<rect width="50" height="50" fill="white"/>
</clipPath>
<clipPath id="clip1_2352_12807">
<rect width="24" height="23" fill="white" transform="translate(14 13)"/>
</clipPath>
</defs>
</svg>
