<svg width="51" height="51" viewBox="0 0 51 51" fill="none" xmlns="http://www.w3.org/2000/svg">
<g clip-path="url(#clip0_2798_17975)">
<rect x="0.462891" y="0.789062" width="50" height="50" rx="25" fill="url(#paint0_linear_2798_17975)"/>
<g clip-path="url(#clip1_2798_17975)">
<path d="M18.9773 25.4858C19.5015 26.6776 20.1861 27.624 21.0304 28.3243L21.0321 28.3276L21.0397 28.3358C21.1401 28.4465 21.211 28.5932 21.2524 28.776C21.2698 28.8536 21.2801 28.9327 21.283 29.0122C21.283 28.9925 21.2895 28.9729 21.3015 28.9532C21.2835 28.9958 21.2792 29.1998 21.2873 29.5658C21.2921 29.777 21.2953 29.9883 21.2972 30.1996C20.0797 30.3491 18.9713 30.5962 17.971 30.9403C17.0312 31.2643 16.2484 31.6522 15.6217 32.1049C14.8035 32.6956 14.2619 33.3862 13.9968 34.1776C13.9641 34.2791 13.9482 34.3794 13.9482 34.4792V35.6067C13.9482 35.8903 14.0442 36.132 14.2362 36.3332C14.4304 36.5367 14.6655 36.6387 14.9415 36.6387H26.7872L26.671 36.4407C26.0127 35.3195 25.6662 34.0427 25.6673 32.7425C25.6673 31.4291 25.9913 30.2782 26.6388 29.2887C26.6808 29.2238 26.7244 29.16 26.7697 29.0967L26.9328 28.8632C27.1346 28.572 27.301 28.3396 27.4324 28.1651L27.463 28.1247C27.8143 27.6618 28.1989 27.2252 28.6139 26.8183L28.6602 26.7725L28.6592 26.7616L28.7841 26.604L28.7879 26.5974C28.8435 26.5074 28.9433 26.3683 29.0873 26.1812C29.3164 25.8829 29.4681 25.6511 29.5428 25.4858C29.9257 25.4258 30.2742 25.2131 30.5884 24.8482C30.901 24.4849 31.1186 24.0392 31.2397 23.5129C31.3717 22.9369 31.3706 22.3996 31.2348 21.9C31.099 21.3982 30.8552 21.0327 30.5033 20.8036C30.5361 18.6365 30.0102 16.938 28.9259 15.708C27.799 14.4289 26.2439 13.7891 24.2601 13.7891C22.2762 13.7891 20.7217 14.4289 19.5953 15.708C18.511 16.9385 17.9852 18.6371 18.0184 20.8031C17.6661 21.0322 17.4222 21.3982 17.2859 21.9C17.1506 22.3996 17.1495 22.9374 17.2815 23.5129C17.4026 24.0392 17.6197 24.4843 17.9328 24.8482C18.2459 25.2125 18.5939 25.4252 18.9773 25.4858ZM22.9046 29.5303L22.8975 29.1714V29.0891H22.8937C22.904 28.8683 22.8831 28.6472 22.8315 28.4323C22.7355 28.008 22.5577 27.6436 22.2981 27.3387C22.2294 27.2534 22.1519 27.1757 22.0668 27.1069C21.4193 26.5669 20.8842 25.8169 20.4615 24.8552C20.361 24.618 20.202 24.4101 19.9995 24.2509C19.7902 24.083 19.5414 23.9715 19.2768 23.9269C19.2368 23.8983 19.2009 23.8646 19.1699 23.8265C19.0264 23.6596 18.9233 23.4392 18.8601 23.1638C18.7859 22.842 18.7826 22.5562 18.8497 22.3074C18.8808 22.1929 18.9021 22.1312 18.913 22.1247L18.9282 22.1149L18.9441 22.104C19.4219 21.7832 19.6526 21.3387 19.6357 20.7709C19.6073 19.0145 20.0022 17.6727 20.8199 16.7449C21.6239 15.8312 22.7704 15.3747 24.2601 15.3747C25.7502 15.3747 26.8968 15.8312 27.7013 16.7438C28.5195 17.6722 28.9139 19.0205 28.885 20.79C28.8708 21.3442 29.1004 21.7816 29.5744 22.1018L29.5908 22.1132L29.6082 22.1242C29.6192 22.1312 29.6399 22.1923 29.6715 22.3069C29.7386 22.5562 29.7353 22.8414 29.6612 23.1643C29.5979 23.4387 29.4948 23.6596 29.3513 23.8265C29.3201 23.8649 29.2837 23.8988 29.2433 23.9274C28.9733 23.9765 28.7355 24.0823 28.5299 24.2438C28.3139 24.4129 28.1535 24.6234 28.0499 24.8749C28.0352 24.9076 27.9501 25.0249 27.7946 25.2278C27.6512 25.4138 27.5382 25.5698 27.4564 25.6942L27.3997 25.7656C26.8035 26.3596 26.2019 27.0949 25.5942 27.9725L25.4415 28.1912C24.5139 29.4992 24.0501 31.0163 24.0501 32.7425C24.0501 33.54 24.1499 34.3102 24.3501 35.0531H15.5655V34.5807C15.7302 34.1509 16.0684 33.7516 16.5801 33.3823C17.0775 33.0229 17.7201 32.7076 18.5066 32.4365C19.4252 32.1202 20.4566 31.8949 21.5999 31.7602C22.4524 31.6603 22.8899 31.1689 22.9133 30.2863C22.915 30.2291 22.915 30.1532 22.9144 30.0589C22.9133 29.9563 22.9101 29.7802 22.9041 29.5303H22.9046ZM34.579 27.4003C33.8984 27.1176 33.1684 26.9732 32.4315 26.9754C31.6281 26.9754 30.8639 27.138 30.139 27.4631C29.4464 27.7717 28.8256 28.221 28.3161 28.7825C28.0271 29.099 27.7767 29.4487 27.5704 29.8243C27.1341 30.62 26.9159 31.4727 26.9159 32.3825C26.9159 33.1156 27.0599 33.8171 27.349 34.4869C27.6267 35.1315 28.0283 35.7153 28.531 36.2051C29.0352 36.701 29.6307 37.0946 30.2846 37.3642C30.9681 37.6478 31.6837 37.7891 32.4315 37.7891C33.1799 37.7891 33.8955 37.6472 34.579 37.3636C35.2327 37.0943 35.8282 36.7011 36.3326 36.2056C36.8353 35.7158 37.2369 35.132 37.5146 34.4874C37.8026 33.823 37.9503 33.1062 37.9482 32.382C37.9482 31.6489 37.8037 30.9474 37.5146 30.2776C37.2357 29.6307 36.8417 29.058 36.3326 28.5594C35.8283 28.0635 35.2328 27.6699 34.579 27.4003ZM29.6753 29.6803C30.4364 28.9342 31.3552 28.5611 32.4315 28.5611C33.5082 28.5611 34.4273 28.9342 35.1882 29.6803C35.9497 30.4265 36.3304 31.3272 36.3304 32.3825C36.3304 33.4374 35.9497 34.338 35.1882 35.0842C34.4273 35.8303 33.5082 36.2034 32.4321 36.2034C31.3553 36.2034 30.4362 35.8303 29.6753 35.0842C28.9139 34.338 28.5332 33.4374 28.5332 32.3825C28.5332 31.3271 28.9139 30.4265 29.6753 29.6803ZM30.0435 31.6767C29.8321 31.6738 29.6276 31.7523 29.4724 31.896C29.3931 31.9651 29.3298 32.0507 29.2869 32.1467C29.244 32.2428 29.2227 32.3471 29.2242 32.4523C29.2242 32.6727 29.3066 32.8576 29.4713 33.0076L31.219 34.6352L31.2212 34.6369C31.3826 34.7836 31.5735 34.8567 31.7933 34.8567C32.005 34.8598 32.2097 34.7813 32.365 34.6374L35.3802 31.8278C35.5439 31.6789 35.6252 31.4945 35.6252 31.2742C35.6252 31.0538 35.5433 30.8689 35.3786 30.7189C35.2168 30.5723 35.0259 30.4991 34.8059 30.4991C34.5944 30.4961 34.3899 30.5746 34.2348 30.7183L31.7933 32.9929L30.6173 31.8982C30.4616 31.7534 30.2561 31.6741 30.0435 31.6767Z" fill="white"/>
</g>
</g>
<defs>
<linearGradient id="paint0_linear_2798_17975" x1="-0.273601" y1="1.4253" x2="50.2917" y2="50.1842" gradientUnits="userSpaceOnUse">
<stop stop-color="#59BEF9"/>
<stop offset="1" stop-color="#004A99"/>
</linearGradient>
<clipPath id="clip0_2798_17975">
<rect width="51" height="51" fill="white"/>
</clipPath>
<clipPath id="clip1_2798_17975">
<rect width="24" height="24" fill="white" transform="translate(13.9482 13.7891)"/>
</clipPath>
</defs>
</svg>
