<svg width="50" height="50" viewBox="0 0 50 50" fill="none" xmlns="http://www.w3.org/2000/svg">
<g clip-path="url(#clip0_2352_12814)">
<path d="M0 25C0 11.1929 11.1929 0 25 0C38.8071 0 50 11.1929 50 25C50 38.8071 38.8071 50 25 50C11.1929 50 0 38.8071 0 25Z" fill="url(#paint0_linear_2352_12814)"/>
<path d="M34.4852 28.6468C34.0914 28.4312 33.8617 28.2531 33.8734 27.7257C33.8875 27.0414 32.6008 26.0734 32.0688 26.2539C30.932 26.6406 30.5617 27.0812 30.6297 28.2953C30.7211 30.0015 30.2313 31.4312 29.043 32.6851C27.4774 34.3374 24.3485 34.5601 22.7852 33.3484C21.393 32.2749 20.8868 30.6695 20.8188 28.9656C20.7789 27.9906 20.9102 27.0085 20.9618 26.0289C19.9539 27.8968 19.9305 29.8023 20.6266 31.7523C21.3086 33.6648 22.7149 34.9773 24.3086 36.1421C21.7961 35.3945 20.2024 33.6906 19.4735 31.2742C18.4118 27.7492 19.8649 24.3109 23.0524 22.5296C23.4203 22.3234 23.9196 22.3445 24.3555 22.2601C24.2641 22.614 24.161 22.9656 24.0977 23.3242C24.0578 23.5562 23.9875 23.882 24.1047 24.0132C24.2219 24.1421 24.5735 24.1421 24.7844 24.0765C25.9188 23.7296 26.5867 22.8695 27.0086 21.8289C27.4586 20.7179 28.2719 20.0968 29.3899 19.7851C30.3156 19.525 31.2297 19.232 32.2422 18.9297C30.5055 17.8586 30.5055 17.8586 30.5547 17.2164C30.7774 17.3922 30.9672 17.5468 31.1594 17.6968C32.0055 18.3578 32.9711 18.7047 34.0375 18.5758C34.5953 18.5078 35.3008 18.3906 35.2937 17.6054C35.2844 16.8578 34.6305 16.7289 34.0563 16.5812C33.9742 16.5625 33.8875 16.5601 33.8055 16.5742C33.2688 16.6469 33.0133 16.3984 32.8352 15.8922C31.9774 13.4594 29.5516 12.7562 27.5219 13.0703C25.3024 13.4219 23.2047 14.3125 21.4141 15.6695C21.1211 15.8875 20.6524 15.9906 20.2774 15.9648C18.8055 15.8617 17.425 16.0562 16.1993 16.9187C15.4094 17.4789 14.779 18.1703 14.7063 19.4429C15.2852 19.2437 15.6883 19.0304 16.1102 18.9836C16.4618 18.9461 16.9375 18.9976 17.1625 19.2133C17.3383 19.3797 17.2704 19.8742 17.2024 20.2C17.1438 20.4906 16.9329 20.7531 16.7922 21.0226C14.418 25.675 15.3813 31.1218 19.1571 34.3421C22.3797 37.0937 26.0547 37.607 29.9922 36.3507C32.8188 35.4484 34.6164 33.4984 35.2117 30.5382C35.3664 29.7648 35.2352 29.0593 34.4875 28.6492L34.4852 28.6468ZM29.2445 14.9711C28.8953 15.5687 28.7453 16.1336 29.7414 16.5414C28.8578 16.7172 28.4899 16.4617 28.4031 15.8054C28.3352 15.2711 28.6024 15.0039 29.2445 14.9781V14.9711Z" fill="white"/>
</g>
<defs>
<linearGradient id="paint0_linear_2352_12814" x1="10" y1="7" x2="44.5" y2="45" gradientUnits="userSpaceOnUse">
<stop stop-color="#59BEF9"/>
<stop offset="1" stop-color="#4571F6"/>
</linearGradient>
<clipPath id="clip0_2352_12814">
<rect width="50" height="50" fill="white"/>
</clipPath>
</defs>
</svg>
