<svg width="50" height="50" viewBox="0 0 50 50" fill="none" xmlns="http://www.w3.org/2000/svg">
<g clip-path="url(#clip0_2379_13103)">
<rect width="50" height="50" rx="25" fill="url(#paint0_linear_2379_13103)"/>
<path d="M28.4812 14.7451H17.3706C16.8939 14.7451 16.5039 14.3551 16.5039 13.8784C16.5039 13.4017 16.8939 13.0117 17.3706 13.0117H28.4812C28.7111 13.0117 28.9315 13.103 29.0941 13.2656C29.2566 13.4281 29.3479 13.6485 29.3479 13.8784C29.3479 14.1082 29.2566 14.3287 29.0941 14.4912C28.9315 14.6537 28.7111 14.7451 28.4812 14.7451ZM18.0032 37.2871C17.5266 37.2871 17.1366 36.8971 17.1366 36.4204V33.8767C17.1366 33.4001 17.5266 33.01 18.0032 33.01C18.4799 33.01 18.8699 33.4001 18.8699 33.8767V36.4204C18.8699 36.8971 18.4799 37.2871 18.0032 37.2871Z" fill="white"/>
<path d="M20.1484 17.6137C19.6717 17.6137 19.2817 17.2237 19.2817 16.747V14.1167C19.2817 13.64 19.6717 13.25 20.1484 13.25C20.6251 13.25 21.0151 13.64 21.0151 14.1167V16.7427C21.0151 17.2237 20.6294 17.6137 20.1484 17.6137ZM25.6561 17.6137C25.1794 17.6137 24.7894 17.2237 24.7894 16.747V14.1167C24.7894 13.64 25.1794 13.25 25.6561 13.25C26.1327 13.25 26.5227 13.64 26.5227 14.1167V16.7427C26.5227 17.2237 26.1371 17.6137 25.6561 17.6137ZM30.9557 25.0583C28.0827 25.0583 25.7557 27.3853 25.7557 30.2583C25.7557 33.1313 28.0827 35.4583 30.9557 35.4583C33.8287 35.4583 36.1557 33.1313 36.1557 30.2583C36.1557 27.3853 33.8287 25.0583 30.9557 25.0583ZM33.5167 31.4977C33.5167 31.9743 33.1267 32.3643 32.6501 32.3643H31.8224V33.2353C31.8224 33.712 31.4324 34.102 30.9557 34.102C30.4791 34.102 30.0891 33.712 30.0891 33.2353V32.3643H29.2614C28.7847 32.3643 28.3947 31.9743 28.3947 31.4977C28.3947 31.086 28.6807 30.7437 29.0664 30.6527C28.6807 30.566 28.3947 30.2193 28.3947 29.8077C28.3947 29.3527 28.7457 28.9843 29.1877 28.9497L28.7024 28.4643C28.3644 28.1263 28.3644 27.576 28.7024 27.238C29.0404 26.9 29.5907 26.9 29.9287 27.238L30.9557 28.265L31.9827 27.238C32.3207 26.9 32.8711 26.9 33.2091 27.238C33.5471 27.576 33.5471 28.1263 33.2091 28.4643L32.7237 28.9497C32.9299 28.9657 33.1234 29.0552 33.2691 29.2019C33.4148 29.3486 33.5031 29.5427 33.5178 29.7489C33.5324 29.9552 33.4726 30.1598 33.3492 30.3257C33.2257 30.4915 33.0468 30.6076 32.8451 30.6527C33.2307 30.7437 33.5167 31.086 33.5167 31.4977Z" fill="white"/>
<path d="M29.088 16.5347H16.7164C16.2222 16.5347 15.7482 16.731 15.3988 17.0804C15.0493 17.4299 14.853 17.9038 14.853 18.398V32.867C14.853 33.3612 15.0493 33.8351 15.3988 34.1846C15.7482 34.534 16.2222 34.7303 16.7164 34.7303H25.6127C24.6644 33.5098 24.1504 32.0077 24.1524 30.462C24.1524 26.666 27.1814 23.5807 30.9514 23.4767V18.4023C30.9522 18.1572 30.9045 17.9143 30.8112 17.6877C30.7179 17.461 30.5808 17.255 30.4076 17.0814C30.2345 16.9079 30.0288 16.7703 29.8024 16.6765C29.5759 16.5826 29.3332 16.5344 29.088 16.5347ZM25.0234 24.0443H20.781C20.3044 24.0443 19.9144 23.6543 19.9144 23.1777C19.9144 22.701 20.3044 22.311 20.781 22.311H25.0234C25.2532 22.311 25.4737 22.4023 25.6362 22.5648C25.7987 22.7274 25.89 22.9478 25.89 23.1777C25.89 23.4075 25.7987 23.628 25.6362 23.7905C25.4737 23.953 25.2532 24.0443 25.0234 24.0443Z" fill="white"/>
</g>
<defs>
<linearGradient id="paint0_linear_2379_13103" x1="10" y1="7" x2="42" y2="45" gradientUnits="userSpaceOnUse">
<stop stop-color="#AAACFF"/>
<stop offset="1" stop-color="#6E63FE"/>
</linearGradient>
<clipPath id="clip0_2379_13103">
<rect width="50" height="50" rx="10" fill="white"/>
</clipPath>
</defs>
</svg>
