<svg width="45" height="45" viewBox="0 0 45 45" fill="none" xmlns="http://www.w3.org/2000/svg">
<g clip-path="url(#clip0_2749_12532)">
<path d="M0 22.5C0 10.0736 10.0736 0 22.5 0C34.9264 0 45 10.0736 45 22.5C45 34.9264 34.9264 45 22.5 45C10.0736 45 0 34.9264 0 22.5Z" fill="url(#paint0_linear_2749_12532)"/>
<g clip-path="url(#clip1_2749_12532)">
<path d="M26.575 11.3286C27.7798 11.3286 28.9352 11.8133 29.7871 12.6759C30.6391 13.5386 31.1177 14.7086 31.1177 15.9286V22.8365C29.9608 22.4217 28.7044 22.3864 27.5266 22.7357C26.3489 23.0849 25.3097 23.801 24.5566 24.7822C23.8035 25.7633 23.3747 26.9598 23.3312 28.2017C23.2876 29.4437 23.6315 30.6679 24.314 31.7007L15.5427 31.7C14.3379 31.7 13.1824 31.2154 12.3305 30.3527C11.4786 29.4901 11 28.32 11 27.1V15.9286C11 14.7086 11.4786 13.5386 12.3305 12.6759C13.1824 11.8133 14.3379 11.3286 15.5427 11.3286H26.575ZM18.8206 17.0497C18.7582 16.9869 18.6842 16.9371 18.6027 16.9033C18.5213 16.8695 18.4342 16.8522 18.3462 16.8525C18.2582 16.8528 18.1711 16.8707 18.0899 16.9051C18.0088 16.9395 17.9351 16.9897 17.8731 17.053C17.7469 17.1816 17.676 17.3556 17.676 17.537C17.676 17.7183 17.7469 17.8923 17.8731 18.021L19.8816 20.066H18.0899C17.9066 20.066 17.7308 20.1397 17.6011 20.271C17.4715 20.4022 17.3987 20.5802 17.3987 20.7658C17.3987 20.9515 17.4715 21.1295 17.6011 21.2607C17.7308 21.392 17.9066 21.4657 18.0899 21.4657H20.3722V22.6328H18.0899C17.9066 22.6328 17.7308 22.7065 17.6011 22.8378C17.4715 22.969 17.3987 23.147 17.3987 23.3326C17.3987 23.5183 17.4715 23.6963 17.6011 23.8275C17.7308 23.9588 17.9066 24.0325 18.0899 24.0325H20.3722V26.138C20.3722 26.3224 20.4446 26.4992 20.5733 26.6296C20.7021 26.76 20.8767 26.8332 21.0588 26.8332C21.2409 26.8332 21.4156 26.76 21.5443 26.6296C21.6731 26.4992 21.7454 26.3224 21.7454 26.138V24.0332H24.0278C24.2111 24.0332 24.3869 23.9594 24.5165 23.8282C24.6461 23.6969 24.7189 23.5189 24.7189 23.3333C24.7189 23.1477 24.6461 22.9697 24.5165 22.8384C24.3869 22.7072 24.2111 22.6334 24.0278 22.6334H21.7454V21.4664H24.0278C24.2111 21.4664 24.3869 21.3926 24.5165 21.2614C24.6461 21.1301 24.7189 20.9521 24.7189 20.7665C24.7189 20.5809 24.6461 20.4029 24.5165 20.2716C24.3869 20.1404 24.2111 20.0666 24.0278 20.0666H22.1478L24.155 18.021C24.2812 17.8923 24.3521 17.7183 24.3521 17.537C24.3521 17.3556 24.2812 17.1816 24.155 17.053C24.0927 16.9897 24.0186 16.9395 23.9371 16.9053C23.8556 16.871 23.7682 16.8534 23.68 16.8534C23.5917 16.8534 23.5043 16.871 23.4228 16.9053C23.3413 16.9395 23.2673 16.9897 23.2049 17.053L21.0147 19.2846L18.8238 17.053L18.8206 17.0497Z" fill="white"/>
<path d="M29.5401 23.3542C30.9116 23.3542 32.227 23.906 33.1969 24.8881C34.1667 25.8701 34.7116 27.2021 34.7116 28.591C34.7116 29.9799 34.1667 31.3119 33.1969 32.294C32.227 33.2761 30.9116 33.8278 29.5401 33.8278C28.1685 33.8278 26.8531 33.2761 25.8832 32.294C24.9134 31.3119 24.3685 29.9799 24.3685 28.591C24.3685 27.2021 24.9134 25.8701 25.8832 24.8881C26.8531 23.906 28.1685 23.3542 29.5401 23.3542ZM32.2501 27.0001C32.1796 26.9341 32.097 26.8828 32.0069 26.8491C31.9168 26.8154 31.821 26.8001 31.7251 26.8039C31.6291 26.8078 31.5349 26.8307 31.4477 26.8715C31.3605 26.9123 31.2821 26.97 31.217 27.0415L29.2136 29.235L28.333 28.3433L28.2642 28.2815C28.1174 28.1653 27.9324 28.1102 27.7468 28.1276C27.5613 28.145 27.3893 28.2335 27.2661 28.375C27.1429 28.5165 27.0776 28.7003 27.0838 28.8889C27.09 29.0774 27.167 29.2565 27.2992 29.3894L28.7178 30.8266L28.7834 30.8858C29.0787 31.1204 29.5102 31.0921 29.7717 30.8056L32.2903 28.0456L32.3449 27.9792C32.4503 27.8326 32.4989 27.6519 32.4815 27.4714C32.464 27.2909 32.3817 27.1232 32.2501 27.0001Z" fill="white"/>
</g>
</g>
<defs>
<linearGradient id="paint0_linear_2749_12532" x1="-0.662842" y1="0.572618" x2="44.846" y2="44.4556" gradientUnits="userSpaceOnUse">
<stop stop-color="#59BEF9"/>
<stop offset="1" stop-color="#004A99"/>
</linearGradient>
<clipPath id="clip0_2749_12532">
<rect width="45" height="45" rx="10" fill="white"/>
</clipPath>
<clipPath id="clip1_2749_12532">
<rect width="24" height="23" fill="white" transform="translate(11 11)"/>
</clipPath>
</defs>
</svg>
