<svg xmlns="http://www.w3.org/2000/svg" width="18" height="18" viewBox="0 0 18 18"><defs><style>.a{fill:#fff;opacity:0;}.b{fill:#ef3531;}</style></defs><rect class="a" width="18" height="18"/><g transform="translate(3 2)"><path class="b" d="M153.229,102.026h-3.51a2.2,2.2,0,0,0-4.4,0H141.8a.542.542,0,1,0,0,1.085h11.431a.542.542,0,1,0,0-1.085Zm-5.711-1.017a1.12,1.12,0,0,1,1.114,1.017H146.4A1.12,1.12,0,0,1,147.519,101.009Zm4.355,3.184a.542.542,0,0,0-.542.542v8.1h-7.584v-8.1a.542.542,0,1,0-1.085,0v8.646a.542.542,0,0,0,.542.542h8.669a.542.542,0,0,0,.542-.542v-8.646A.542.542,0,0,0,151.874,104.193Z" transform="translate(-141.256 -99.924)"/><path class="b" d="M386.391,421.574V416.75a.542.542,0,1,0-1.085,0v4.823a.542.542,0,1,0,1.085,0Zm3.246,0V416.75a.542.542,0,1,0-1.085,0v4.823a.542.542,0,1,0,1.085,0Z" transform="translate(-381.17 -410.848)"/></g></svg>