<svg xmlns="http://www.w3.org/2000/svg" width="18" height="18" viewBox="0 0 18 18"><defs><style>.a{fill:#fff;opacity:0;}.b{fill:#ef3531;}</style></defs><rect class="a" width="18" height="18"/><path class="b" d="M21.193,3.812,19.822,5.183,17.347,2.708l1.373-1.372a.58.58,0,0,1,.82,0l1.654,1.654a.582.582,0,0,1,0,.821ZM12.507,12.5l-2.743.268.269-2.743,6.49-6.49L19,6.008ZM22.018,2.165,20.364.512a1.747,1.747,0,0,0-2.47,0L9.059,9.347a.582.582,0,0,0-.168.362l-.358,3.662A.58.58,0,0,0,9.11,14l.05,0,3.662-.359a.576.576,0,0,0,.362-.168l8.835-8.835a1.748,1.748,0,0,0,0-2.472Z" transform="translate(-6.53 2)"/></svg>