<svg width="19" height="19" viewBox="0 0 19 19" fill="none" xmlns="http://www.w3.org/2000/svg">
<g clip-path="url(#clip0_184_808)">
<path d="M9.13906 1.86145C9.97932 1.84965 9.80467 2.70658 9.80467 3.51035C9.80467 3.84787 9.86198 4.27508 9.72907 4.49367C9.63448 4.64928 9.47598 4.74551 9.26014 4.7811C9.13389 4.80187 9.01629 4.75061 8.94242 4.71301C8.47998 4.47745 8.60959 3.78785 8.60959 3.11702C8.60959 2.83606 8.55027 2.45847 8.63987 2.23958C8.73796 1.99989 8.89613 1.96243 9.13906 1.86145Z" fill="#F7A900"/>
<path d="M4.84278 3.30666C5.03807 3.30561 5.17224 3.3579 5.2815 3.44282C5.56136 3.78565 5.84128 4.12861 6.12105 4.47151C6.26094 4.65113 6.46912 4.81835 6.55977 5.0388C6.68697 5.3479 6.50051 5.6497 6.31019 5.7649C6.1094 5.8865 5.79898 5.85105 5.62943 5.7271C5.42795 5.57975 5.26867 5.30426 5.11511 5.1069C4.96135 4.91776 4.80746 4.72868 4.6537 4.53961C4.44083 4.26596 4.09455 3.94575 4.42683 3.51844C4.53161 3.38363 4.666 3.37707 4.84278 3.30666Z" fill="#F7A900"/>
<path d="M13.4431 3.51088C13.8761 3.50309 14.2902 3.83495 14.1012 4.30506C14.0096 4.5329 13.792 4.67782 13.6473 4.85723C13.4532 5.07405 13.259 5.2909 13.0649 5.50771C12.9619 5.63559 12.8467 5.80197 12.7094 5.89345C12.5555 5.99601 12.254 6.029 12.074 5.92373C11.8391 5.7863 11.6554 5.41485 11.8471 5.09927C12.0387 4.88496 12.2303 4.67063 12.4219 4.45631C12.5732 4.28746 12.7245 4.11844 12.8758 3.94958C12.9748 3.82666 13.0802 3.67862 13.2161 3.59405C13.2918 3.56635 13.3675 3.53861 13.4431 3.51088Z" fill="#F7A900"/>
<path d="M12.8229 14.1148H5.41785V10.7187C5.41785 10.0342 5.3735 9.27748 5.53132 8.74446C5.8271 7.74542 6.40012 7.05045 7.21051 6.56608C7.5646 6.35446 7.96391 6.20523 8.43586 6.10466C8.59217 6.08956 8.74849 6.07445 8.90479 6.05935C9.04848 6.05678 9.19222 6.05423 9.33592 6.05176C9.65674 6.10072 9.94796 6.11812 10.2209 6.20303C11.4726 6.59242 12.3347 7.47591 12.7094 8.74446C12.8664 9.27596 12.8228 10.0285 12.8228 10.7111C12.8229 11.8455 12.8229 12.9804 12.8229 14.1148Z" fill="#F7A900"/>
<path d="M2.42269 7.17121C2.63839 7.16651 2.79389 7.21597 2.96729 7.25438C3.30013 7.31991 3.63295 7.38552 3.96579 7.45105C4.21667 7.50983 4.48278 7.51314 4.63896 7.66281C4.79948 7.81665 4.91308 8.1434 4.75997 8.39648C4.67663 8.53424 4.53156 8.64386 4.35153 8.68393C4.1634 8.7258 3.96669 8.65159 3.8145 8.61583C3.48168 8.5503 3.14884 8.48476 2.81602 8.41916C2.56003 8.35923 2.28776 8.35108 2.11262 8.21499C1.86832 8.02516 1.83155 7.52891 2.08993 7.32244C2.18948 7.24287 2.29039 7.22769 2.42269 7.17121Z" fill="#F7A900"/>
<path d="M15.6971 7.47367C16.1993 7.46838 16.5393 7.9958 16.2266 8.41917C16.0563 8.64956 15.7601 8.64158 15.4172 8.70655C15.0794 8.75696 14.7415 8.80746 14.4037 8.85789C14.2529 8.88695 14.0554 8.94786 13.8818 8.9108C13.6851 8.86893 13.5162 8.74325 13.4431 8.57796C13.2958 8.24492 13.4873 7.89906 13.7305 7.79139C13.871 7.72916 14.0504 7.73426 14.2222 7.70054C14.5575 7.64764 14.8929 7.59466 15.2282 7.54175C15.3844 7.51906 15.5408 7.49637 15.6971 7.47367Z" fill="#F7A900"/>
<path d="M4.69153 14.6222H11.9378C12.8584 14.6222 13.6635 14.4571 14.0254 15.0609C14.0933 15.1743 14.1667 15.3594 14.1313 15.5677C13.975 16.4863 13.0007 16.3014 11.9604 16.3014H6.75653H5.24373C4.98602 16.3014 4.67265 16.3294 4.47977 16.256C4.06587 16.0984 3.72106 15.5464 4.03353 15.0306C4.12273 14.8834 4.27525 14.7512 4.44197 14.6827C4.52515 14.6625 4.60834 14.6424 4.69153 14.6222Z" fill="#F7A900"/>
</g>
<defs>
<clipPath id="clip0_184_808">
<rect width="18.0684" height="18.0684" fill="white" transform="translate(0.0952148 0.0546875)"/>
</clipPath>
</defs>
</svg>
